%TF.GenerationSoftware,KiCad,Pcbnew,8.0.1-8.0.1-1~ubuntu22.04.1*%
%TF.CreationDate,2024-04-28T12:17:03-04:00*%
%TF.ProjectId,control-panel,636f6e74-726f-46c2-9d70-616e656c2e6b,rev?*%
%TF.SameCoordinates,Original*%
%TF.FileFunction,Copper,L1,Top*%
%TF.FilePolarity,Positive*%
%FSLAX46Y46*%
G04 Gerber Fmt 4.6, Leading zero omitted, Abs format (unit mm)*
G04 Created by KiCad (PCBNEW 8.0.1-8.0.1-1~ubuntu22.04.1) date 2024-04-28 12:17:03*
%MOMM*%
%LPD*%
G01*
G04 APERTURE LIST*
%TA.AperFunction,ComponentPad*%
%ADD10C,5.000000*%
%TD*%
%TA.AperFunction,ComponentPad*%
%ADD11C,2.200000*%
%TD*%
%TA.AperFunction,ComponentPad*%
%ADD12C,1.600000*%
%TD*%
%TA.AperFunction,ComponentPad*%
%ADD13C,1.650000*%
%TD*%
%TA.AperFunction,ComponentPad*%
%ADD14R,2.500000X2.500000*%
%TD*%
%TA.AperFunction,ComponentPad*%
%ADD15R,1.800000X1.800000*%
%TD*%
%TA.AperFunction,ComponentPad*%
%ADD16C,1.800000*%
%TD*%
%TA.AperFunction,ComponentPad*%
%ADD17C,3.000000*%
%TD*%
%TA.AperFunction,ComponentPad*%
%ADD18R,1.800000X2.600000*%
%TD*%
%TA.AperFunction,ComponentPad*%
%ADD19O,1.800000X2.600000*%
%TD*%
%TA.AperFunction,ComponentPad*%
%ADD20C,1.440000*%
%TD*%
%TA.AperFunction,ComponentPad*%
%ADD21R,1.700000X1.700000*%
%TD*%
%TA.AperFunction,ComponentPad*%
%ADD22O,1.700000X1.700000*%
%TD*%
%TA.AperFunction,ComponentPad*%
%ADD23R,1.600000X1.600000*%
%TD*%
%TA.AperFunction,ComponentPad*%
%ADD24O,1.600000X1.600000*%
%TD*%
%TA.AperFunction,ViaPad*%
%ADD25C,0.812800*%
%TD*%
%TA.AperFunction,Conductor*%
%ADD26C,0.254000*%
%TD*%
G04 APERTURE END LIST*
D10*
%TO.P,H2,1*%
%TO.N,N/C*%
X78105000Y-86360000D03*
%TD*%
%TO.P,H4,1*%
%TO.N,N/C*%
X224155000Y-86360000D03*
%TD*%
D11*
%TO.P,SW2,1,1*%
%TO.N,/SW1*%
X213360000Y-55245000D03*
%TO.P,SW2,2,2*%
%TO.N,GND*%
X207010000Y-57785000D03*
%TD*%
D12*
%TO.P,SW5,1,S2*%
%TO.N,GND*%
X89360000Y-62230000D03*
%TO.P,SW5,2,RED*%
%TO.N,Net-(SW5-RED)*%
X87360000Y-62230000D03*
%TO.P,SW5,3,GREEN*%
%TO.N,Net-(SW5-GREEN)*%
X85360000Y-62230000D03*
%TO.P,SW5,4,S1*%
%TO.N,/ENC_SW*%
X83360000Y-62230000D03*
D13*
%TO.P,SW5,A,A*%
%TO.N,/ENC_A*%
X83860000Y-76730000D03*
%TO.P,SW5,B,B*%
%TO.N,/ENC_B*%
X88860000Y-76730000D03*
%TO.P,SW5,C,C*%
%TO.N,GND*%
X86360000Y-76730000D03*
D14*
%TO.P,SW5,X*%
%TO.N,N/C*%
X80860000Y-69230000D03*
%TO.P,SW5,Y*%
X91860000Y-69230000D03*
%TD*%
D11*
%TO.P,SW1,1,1*%
%TO.N,/SW0*%
X194310000Y-55245000D03*
%TO.P,SW1,2,2*%
%TO.N,GND*%
X187960000Y-57785000D03*
%TD*%
%TO.P,SW3,1,1*%
%TO.N,/SW2*%
X194310000Y-74295000D03*
%TO.P,SW3,2,2*%
%TO.N,GND*%
X187960000Y-76835000D03*
%TD*%
D10*
%TO.P,H3,1*%
%TO.N,N/C*%
X224155000Y-52705000D03*
%TD*%
D15*
%TO.P,D1,1,K*%
%TO.N,Net-(D1-K)*%
X86080000Y-52705000D03*
D16*
%TO.P,D1,2,A*%
%TO.N,Net-(D1-A)*%
X88620000Y-52705000D03*
%TD*%
D10*
%TO.P,H1,1*%
%TO.N,N/C*%
X78105000Y-52705000D03*
%TD*%
D11*
%TO.P,SW4,1,1*%
%TO.N,/SW3*%
X213360000Y-74295000D03*
%TO.P,SW4,2,2*%
%TO.N,GND*%
X207010000Y-76835000D03*
%TD*%
D17*
%TO.P,DS1,*%
%TO.N,*%
X102835900Y-53857500D03*
X102835900Y-84858200D03*
X177834480Y-84858200D03*
X177835000Y-53857500D03*
D18*
%TO.P,DS1,1,VSS*%
%TO.N,GND*%
X108335000Y-53857500D03*
D19*
%TO.P,DS1,2,VDD*%
%TO.N,VCC*%
X110875000Y-53857500D03*
%TO.P,DS1,3,VO*%
%TO.N,Net-(DS1-VO)*%
X113415000Y-53857500D03*
%TO.P,DS1,4,RS*%
%TO.N,/RS*%
X115955000Y-53857500D03*
%TO.P,DS1,5,R/W*%
%TO.N,GND*%
X118495000Y-53857500D03*
%TO.P,DS1,6,E*%
%TO.N,/EN*%
X121035000Y-53857500D03*
%TO.P,DS1,7,DB0*%
%TO.N,GND*%
X123575000Y-53857500D03*
%TO.P,DS1,8,DB1*%
X126115000Y-53857500D03*
%TO.P,DS1,9,DB2*%
X128655000Y-53857500D03*
%TO.P,DS1,10,DB3*%
X131195000Y-53857500D03*
%TO.P,DS1,11,DB4*%
%TO.N,/D0*%
X133735000Y-53857500D03*
%TO.P,DS1,12,DB5*%
%TO.N,/D1*%
X136275000Y-53857500D03*
%TO.P,DS1,13,DB6*%
%TO.N,/D2*%
X138815000Y-53857500D03*
%TO.P,DS1,14,DB7*%
%TO.N,/D3*%
X141355000Y-53857500D03*
%TO.P,DS1,15,A/VEE*%
%TO.N,VCC*%
X143895000Y-53857500D03*
%TO.P,DS1,16,K*%
%TO.N,Net-(DS1-K)*%
X146435000Y-53857500D03*
%TD*%
D15*
%TO.P,D2,1,K*%
%TO.N,Net-(D2-K)*%
X93070000Y-52705000D03*
D16*
%TO.P,D2,2,A*%
%TO.N,Net-(D2-A)*%
X95610000Y-52705000D03*
%TD*%
D20*
%TO.P,RV1,1,1*%
%TO.N,VCC*%
X116205000Y-59055000D03*
%TO.P,RV1,2,2*%
%TO.N,Net-(DS1-VO)*%
X118745000Y-61595000D03*
%TO.P,RV1,3,3*%
%TO.N,GND*%
X121285000Y-59055000D03*
%TD*%
D21*
%TO.P,J2,1,Pin_1*%
%TO.N,/nDTR*%
X151765000Y-86360000D03*
D22*
%TO.P,J2,2,Pin_2*%
%TO.N,/RXD*%
X149225000Y-86360000D03*
%TO.P,J2,3,Pin_3*%
%TO.N,/TXD*%
X146685000Y-86360000D03*
%TO.P,J2,4,Pin_4*%
%TO.N,VCC*%
X144145000Y-86360000D03*
%TO.P,J2,5,Pin_5*%
%TO.N,/nCTS*%
X141605000Y-86360000D03*
%TO.P,J2,6,Pin_6*%
%TO.N,GND*%
X139065000Y-86360000D03*
%TD*%
D21*
%TO.P,J1,1,Pin_1*%
%TO.N,/MISO*%
X111125000Y-70485000D03*
D22*
%TO.P,J1,2,Pin_2*%
%TO.N,VCC*%
X111125000Y-67945000D03*
%TO.P,J1,3,Pin_3*%
%TO.N,/SCK*%
X108585000Y-70485000D03*
%TO.P,J1,4,Pin_4*%
%TO.N,/MOSI*%
X108585000Y-67945000D03*
%TO.P,J1,5,Pin_5*%
%TO.N,/nRST*%
X106045000Y-70485000D03*
%TO.P,J1,6,Pin_6*%
%TO.N,GND*%
X106045000Y-67945000D03*
%TD*%
D23*
%TO.P,U3,1,~{RESET}/PC6*%
%TO.N,/nRST*%
X157480000Y-73660000D03*
D24*
%TO.P,U3,2,PD0*%
%TO.N,/RXD*%
X154940000Y-73660000D03*
%TO.P,U3,3,PD1*%
%TO.N,/TXD*%
X152400000Y-73660000D03*
%TO.P,U3,4,PD2*%
%TO.N,/ENC_A*%
X149860000Y-73660000D03*
%TO.P,U3,5,PD3*%
%TO.N,/ENC_B*%
X147320000Y-73660000D03*
%TO.P,U3,6,PD4*%
%TO.N,/SW0*%
X144780000Y-73660000D03*
%TO.P,U3,7,VCC*%
%TO.N,VCC*%
X142240000Y-73660000D03*
%TO.P,U3,8,GND*%
%TO.N,GND*%
X139700000Y-73660000D03*
%TO.P,U3,9,XTAL1/PB6*%
%TO.N,/EN*%
X137160000Y-73660000D03*
%TO.P,U3,10,XTAL2/PB7*%
%TO.N,/RS*%
X134620000Y-73660000D03*
%TO.P,U3,11,PD5*%
%TO.N,/SW1*%
X132080000Y-73660000D03*
%TO.P,U3,12,PD6*%
%TO.N,/SW2*%
X129540000Y-73660000D03*
%TO.P,U3,13,PD7*%
%TO.N,/SW3*%
X127000000Y-73660000D03*
%TO.P,U3,14,PB0*%
%TO.N,Net-(D1-K)*%
X124460000Y-73660000D03*
%TO.P,U3,15,PB1*%
%TO.N,Net-(D2-K)*%
X124460000Y-66040000D03*
%TO.P,U3,16,PB2*%
%TO.N,/ENC_SW*%
X127000000Y-66040000D03*
%TO.P,U3,17,PB3*%
%TO.N,/MOSI*%
X129540000Y-66040000D03*
%TO.P,U3,18,PB4*%
%TO.N,/MISO*%
X132080000Y-66040000D03*
%TO.P,U3,19,PB5*%
%TO.N,/SCK*%
X134620000Y-66040000D03*
%TO.P,U3,20,AVCC*%
%TO.N,VCC*%
X137160000Y-66040000D03*
%TO.P,U3,21,AREF*%
%TO.N,unconnected-(U3-AREF-Pad21)*%
X139700000Y-66040000D03*
%TO.P,U3,22,GND*%
%TO.N,GND*%
X142240000Y-66040000D03*
%TO.P,U3,23,PC0*%
%TO.N,/D0*%
X144780000Y-66040000D03*
%TO.P,U3,24,PC1*%
%TO.N,/D1*%
X147320000Y-66040000D03*
%TO.P,U3,25,PC2*%
%TO.N,/D2*%
X149860000Y-66040000D03*
%TO.P,U3,26,PC3*%
%TO.N,/D3*%
X152400000Y-66040000D03*
%TO.P,U3,27,PC4*%
%TO.N,/ENC_RED*%
X154940000Y-66040000D03*
%TO.P,U3,28,PC5*%
%TO.N,/ENC_GRN*%
X157480000Y-66040000D03*
%TD*%
D25*
%TO.N,VCC*%
X144018000Y-78613000D03*
X84455000Y-57658000D03*
X91313000Y-57658000D03*
%TO.N,GND*%
X143992000Y-62378400D03*
X137922000Y-78740000D03*
%TO.N,Net-(D1-K)*%
X94488000Y-73660000D03*
X94488000Y-60452000D03*
X82931000Y-60579000D03*
%TO.N,Net-(D2-K)*%
X99187000Y-66040000D03*
X99187000Y-55499000D03*
%TO.N,/D2*%
X136906000Y-62484000D03*
%TO.N,/RS*%
X135763000Y-56620600D03*
%TO.N,/D3*%
X152400000Y-56388000D03*
%TO.N,/D1*%
X134874000Y-63373000D03*
%TO.N,/EN*%
X120650000Y-57404000D03*
X138176000Y-57404000D03*
%TO.N,/D0*%
X133731000Y-63881000D03*
%TO.N,/nRST*%
X157480000Y-77571600D03*
X106172000Y-77520800D03*
%TO.N,Net-(SW5-RED)*%
X153111200Y-61061600D03*
%TO.N,Net-(SW5-GREEN)*%
X160020000Y-60198000D03*
%TO.N,/SW0*%
X150012400Y-54660800D03*
%TO.N,/SW1*%
X213868000Y-69850000D03*
%TO.N,/ENC_A*%
X149707600Y-81178400D03*
%TO.N,/ENC_B*%
X147320000Y-80060800D03*
%TD*%
D26*
%TO.N,Net-(D1-K)*%
X83058000Y-60452000D02*
X82931000Y-60579000D01*
X94488000Y-60452000D02*
X83058000Y-60452000D01*
X124460000Y-73660000D02*
X94488000Y-73660000D01*
%TO.N,Net-(D2-K)*%
X95864000Y-55499000D02*
X93070000Y-52705000D01*
X124460000Y-66040000D02*
X99187000Y-66040000D01*
X99187000Y-55499000D02*
X95864000Y-55499000D01*
%TO.N,/D2*%
X137583800Y-63161800D02*
X136906000Y-62484000D01*
X146981800Y-63161800D02*
X137583800Y-63161800D01*
X149860000Y-66040000D02*
X146981800Y-63161800D01*
%TO.N,/RS*%
X115955000Y-53857500D02*
X115955000Y-54257500D01*
X118318100Y-56620600D02*
X135763000Y-56620600D01*
X115955000Y-54257500D02*
X118318100Y-56620600D01*
%TO.N,/D3*%
X143885500Y-56388000D02*
X141355000Y-53857500D01*
X152400000Y-56388000D02*
X143885500Y-56388000D01*
%TO.N,/D1*%
X147320000Y-66040000D02*
X144873600Y-63593600D01*
X144873600Y-63593600D02*
X135094600Y-63593600D01*
X135094600Y-63593600D02*
X134874000Y-63373000D01*
%TO.N,/EN*%
X138176000Y-57404000D02*
X120650000Y-57404000D01*
%TO.N,/D0*%
X144018000Y-64389000D02*
X134239000Y-64389000D01*
X134239000Y-64389000D02*
X133731000Y-63881000D01*
X144780000Y-65151000D02*
X144018000Y-64389000D01*
X144780000Y-66040000D02*
X144780000Y-65151000D01*
%TO.N,/SCK*%
X108585000Y-71628000D02*
X108585000Y-70485000D01*
X109347000Y-72390000D02*
X108585000Y-71628000D01*
X128270000Y-72390000D02*
X109347000Y-72390000D01*
X134620000Y-66040000D02*
X128270000Y-72390000D01*
%TO.N,/MISO*%
X132080000Y-66040000D02*
X127635000Y-70485000D01*
X127635000Y-70485000D02*
X111125000Y-70485000D01*
%TO.N,/MOSI*%
X108585000Y-68453000D02*
X108585000Y-67945000D01*
X129540000Y-66040000D02*
X126480200Y-69099800D01*
X109231800Y-69099800D02*
X108585000Y-68453000D01*
X126480200Y-69099800D02*
X109231800Y-69099800D01*
%TO.N,/nRST*%
X106222800Y-77571600D02*
X106172000Y-77520800D01*
X157480000Y-77571600D02*
X106222800Y-77571600D01*
%TO.N,Net-(SW5-RED)*%
X89011000Y-63881000D02*
X127635000Y-63881000D01*
X127635000Y-63881000D02*
X129921000Y-61595000D01*
X152577800Y-61595000D02*
X153111200Y-61061600D01*
X87360000Y-62230000D02*
X89011000Y-63881000D01*
X129921000Y-61595000D02*
X152577800Y-61595000D01*
%TO.N,Net-(SW5-GREEN)*%
X117729000Y-60198000D02*
X160020000Y-60198000D01*
X85360000Y-62230000D02*
X86464800Y-61125200D01*
X86464800Y-61125200D02*
X89817624Y-61125200D01*
X89817624Y-61125200D02*
X90922424Y-62230000D01*
X90922424Y-62230000D02*
X115697000Y-62230000D01*
X115697000Y-62230000D02*
X117729000Y-60198000D01*
%TO.N,/SW0*%
X155905200Y-56235600D02*
X154330400Y-54660800D01*
X194310000Y-55245000D02*
X193319400Y-56235600D01*
X154330400Y-54660800D02*
X150012400Y-54660800D01*
X193319400Y-56235600D02*
X155905200Y-56235600D01*
%TO.N,/SW1*%
X213741000Y-69977000D02*
X213868000Y-69850000D01*
X132080000Y-71882000D02*
X133985000Y-69977000D01*
X132080000Y-73660000D02*
X132080000Y-71882000D01*
X133985000Y-69977000D02*
X213741000Y-69977000D01*
%TO.N,/SW2*%
X129540000Y-73660000D02*
X131572000Y-75692000D01*
X181102000Y-75692000D02*
X182499000Y-74295000D01*
X131572000Y-75692000D02*
X181102000Y-75692000D01*
X182499000Y-74295000D02*
X194310000Y-74295000D01*
%TO.N,/SW3*%
X184030800Y-75430200D02*
X193032200Y-75430200D01*
X205740000Y-75819000D02*
X207264000Y-74295000D01*
X193421000Y-75819000D02*
X205740000Y-75819000D01*
X127000000Y-73660000D02*
X129667000Y-76327000D01*
X193032200Y-75430200D02*
X193421000Y-75819000D01*
X207264000Y-74295000D02*
X213360000Y-74295000D01*
X129667000Y-76327000D02*
X183134000Y-76327000D01*
X183134000Y-76327000D02*
X184030800Y-75430200D01*
%TO.N,/ENC_SW*%
X85773000Y-64643000D02*
X83360000Y-62230000D01*
X127000000Y-66040000D02*
X125603000Y-64643000D01*
X125603000Y-64643000D02*
X85773000Y-64643000D01*
%TO.N,/ENC_A*%
X83860000Y-76730000D02*
X88308400Y-81178400D01*
X88308400Y-81178400D02*
X149707600Y-81178400D01*
%TO.N,/ENC_B*%
X92190800Y-80060800D02*
X88860000Y-76730000D01*
X147320000Y-80060800D02*
X92190800Y-80060800D01*
%TD*%
%TA.AperFunction,Conductor*%
%TO.N,VCC*%
G36*
X223339887Y-49932065D02*
G01*
X223369951Y-49984136D01*
X223359510Y-50043350D01*
X223313450Y-50081999D01*
X223309537Y-50083320D01*
X223176454Y-50124790D01*
X222872588Y-50261549D01*
X222872574Y-50261556D01*
X222587410Y-50433943D01*
X222587403Y-50433948D01*
X222325087Y-50639460D01*
X222089460Y-50875087D01*
X221883948Y-51137403D01*
X221883943Y-51137410D01*
X221711556Y-51422574D01*
X221711549Y-51422588D01*
X221574789Y-51726457D01*
X221475653Y-52044594D01*
X221475652Y-52044599D01*
X221425593Y-52317765D01*
X221415585Y-52372375D01*
X221395465Y-52705000D01*
X221415585Y-53037625D01*
X221415585Y-53037630D01*
X221415586Y-53037631D01*
X221475652Y-53365400D01*
X221475653Y-53365405D01*
X221558126Y-53630068D01*
X221574790Y-53683545D01*
X221711553Y-53987420D01*
X221711555Y-53987424D01*
X221711556Y-53987425D01*
X221867293Y-54245047D01*
X221883947Y-54272595D01*
X222089458Y-54534910D01*
X222325090Y-54770542D01*
X222587405Y-54976053D01*
X222872580Y-55148447D01*
X223176455Y-55285210D01*
X223494600Y-55384348D01*
X223822375Y-55444415D01*
X224155000Y-55464535D01*
X224487625Y-55444415D01*
X224815400Y-55384348D01*
X225133545Y-55285210D01*
X225437420Y-55148447D01*
X225722595Y-54976053D01*
X225984910Y-54770542D01*
X226220542Y-54534910D01*
X226426053Y-54272595D01*
X226598447Y-53987420D01*
X226735210Y-53683545D01*
X226776680Y-53550462D01*
X226813123Y-53502638D01*
X226871781Y-53489427D01*
X226925207Y-53517011D01*
X226948403Y-53572484D01*
X226948500Y-53576613D01*
X226948500Y-85488386D01*
X226927935Y-85544887D01*
X226875864Y-85574951D01*
X226816650Y-85564510D01*
X226778001Y-85518450D01*
X226776680Y-85514537D01*
X226764300Y-85474809D01*
X226735210Y-85381455D01*
X226598447Y-85077580D01*
X226426053Y-84792405D01*
X226220542Y-84530090D01*
X225984910Y-84294458D01*
X225722595Y-84088947D01*
X225722592Y-84088945D01*
X225722589Y-84088943D01*
X225437425Y-83916556D01*
X225437424Y-83916555D01*
X225437420Y-83916553D01*
X225133545Y-83779790D01*
X225133542Y-83779789D01*
X224815405Y-83680653D01*
X224815400Y-83680652D01*
X224487631Y-83620586D01*
X224487630Y-83620585D01*
X224487625Y-83620585D01*
X224155000Y-83600465D01*
X223822375Y-83620585D01*
X223822370Y-83620585D01*
X223822368Y-83620586D01*
X223494599Y-83680652D01*
X223494594Y-83680653D01*
X223176457Y-83779789D01*
X222872588Y-83916549D01*
X222872574Y-83916556D01*
X222587410Y-84088943D01*
X222587403Y-84088948D01*
X222325087Y-84294460D01*
X222089460Y-84530087D01*
X221883948Y-84792403D01*
X221883943Y-84792410D01*
X221711556Y-85077574D01*
X221711549Y-85077588D01*
X221574789Y-85381457D01*
X221475653Y-85699594D01*
X221475652Y-85699599D01*
X221446258Y-85860000D01*
X221415585Y-86027375D01*
X221395465Y-86360000D01*
X221415585Y-86692625D01*
X221415585Y-86692630D01*
X221415586Y-86692631D01*
X221475652Y-87020400D01*
X221475653Y-87020405D01*
X221545698Y-87245186D01*
X221574790Y-87338545D01*
X221711553Y-87642420D01*
X221883947Y-87927595D01*
X222089458Y-88189910D01*
X222325090Y-88425542D01*
X222587405Y-88631053D01*
X222872580Y-88803447D01*
X223176455Y-88940210D01*
X223309537Y-88981680D01*
X223357361Y-89018123D01*
X223370572Y-89076781D01*
X223342988Y-89130207D01*
X223287515Y-89153403D01*
X223283386Y-89153500D01*
X78976614Y-89153500D01*
X78920113Y-89132935D01*
X78890049Y-89080864D01*
X78900490Y-89021650D01*
X78946550Y-88983001D01*
X78950463Y-88981680D01*
X79083545Y-88940210D01*
X79387420Y-88803447D01*
X79672595Y-88631053D01*
X79934910Y-88425542D01*
X80170542Y-88189910D01*
X80376053Y-87927595D01*
X80548447Y-87642420D01*
X80685210Y-87338545D01*
X80784348Y-87020400D01*
X80844415Y-86692625D01*
X80864535Y-86360000D01*
X80844415Y-86027375D01*
X80784348Y-85699600D01*
X80685210Y-85381455D01*
X80548447Y-85077580D01*
X80415829Y-84858202D01*
X101076480Y-84858202D01*
X101096130Y-85120425D01*
X101096132Y-85120433D01*
X101152422Y-85367056D01*
X101154646Y-85376798D01*
X101250717Y-85621584D01*
X101382199Y-85849317D01*
X101546154Y-86054910D01*
X101655296Y-86156179D01*
X101738917Y-86233767D01*
X101738926Y-86233775D01*
X101894132Y-86339591D01*
X101956190Y-86381902D01*
X102193112Y-86495998D01*
X102444392Y-86573508D01*
X102444395Y-86573508D01*
X102444397Y-86573509D01*
X102574405Y-86593104D01*
X102704418Y-86612700D01*
X102704424Y-86612700D01*
X102967376Y-86612700D01*
X102967382Y-86612700D01*
X103220309Y-86574578D01*
X103227402Y-86573509D01*
X103227402Y-86573508D01*
X103227408Y-86573508D01*
X103478688Y-86495998D01*
X103715610Y-86381902D01*
X103747734Y-86360000D01*
X137955768Y-86360000D01*
X137974655Y-86563825D01*
X138011304Y-86692631D01*
X138030672Y-86760701D01*
X138121912Y-86943935D01*
X138121913Y-86943936D01*
X138121914Y-86943938D01*
X138179659Y-87020405D01*
X138245268Y-87107285D01*
X138300503Y-87157638D01*
X138396535Y-87245184D01*
X138396544Y-87245190D01*
X138500087Y-87309301D01*
X138570573Y-87352944D01*
X138761444Y-87426888D01*
X138761452Y-87426889D01*
X138761454Y-87426890D01*
X138883661Y-87449734D01*
X138962653Y-87464500D01*
X138962654Y-87464500D01*
X139167346Y-87464500D01*
X139167347Y-87464500D01*
X139368556Y-87426888D01*
X139559427Y-87352944D01*
X139733462Y-87245186D01*
X139884732Y-87107285D01*
X140008088Y-86943935D01*
X140099328Y-86760701D01*
X140155345Y-86563821D01*
X140174232Y-86360000D01*
X140495768Y-86360000D01*
X140514655Y-86563825D01*
X140551304Y-86692631D01*
X140570672Y-86760701D01*
X140661912Y-86943935D01*
X140661913Y-86943936D01*
X140661914Y-86943938D01*
X140719659Y-87020405D01*
X140785268Y-87107285D01*
X140840503Y-87157638D01*
X140936535Y-87245184D01*
X140936544Y-87245190D01*
X141040087Y-87309301D01*
X141110573Y-87352944D01*
X141301444Y-87426888D01*
X141301452Y-87426889D01*
X141301454Y-87426890D01*
X141423661Y-87449734D01*
X141502653Y-87464500D01*
X141502654Y-87464500D01*
X141707346Y-87464500D01*
X141707347Y-87464500D01*
X141908556Y-87426888D01*
X142099427Y-87352944D01*
X142273462Y-87245186D01*
X142424732Y-87107285D01*
X142548088Y-86943935D01*
X142639328Y-86760701D01*
X142695345Y-86563821D01*
X142705994Y-86448900D01*
X142917077Y-86448900D01*
X142928071Y-86574578D01*
X142983818Y-86782629D01*
X143074850Y-86977849D01*
X143198396Y-87154291D01*
X143198397Y-87154293D01*
X143350707Y-87306603D01*
X143527150Y-87430149D01*
X143722370Y-87521181D01*
X143930421Y-87576928D01*
X144056100Y-87587923D01*
X144056100Y-86853817D01*
X144079174Y-86860000D01*
X144210826Y-86860000D01*
X144233900Y-86853817D01*
X144233900Y-87587922D01*
X144359578Y-87576928D01*
X144567629Y-87521181D01*
X144762849Y-87430149D01*
X144939291Y-87306603D01*
X144939293Y-87306603D01*
X145091603Y-87154293D01*
X145091603Y-87154291D01*
X145215149Y-86977849D01*
X145306181Y-86782629D01*
X145361928Y-86574578D01*
X145372923Y-86448900D01*
X144638817Y-86448900D01*
X144645000Y-86425826D01*
X144645000Y-86360000D01*
X145575768Y-86360000D01*
X145594655Y-86563825D01*
X145631304Y-86692631D01*
X145650672Y-86760701D01*
X145741912Y-86943935D01*
X145741913Y-86943936D01*
X145741914Y-86943938D01*
X145799659Y-87020405D01*
X145865268Y-87107285D01*
X145920503Y-87157638D01*
X146016535Y-87245184D01*
X146016544Y-87245190D01*
X146120087Y-87309301D01*
X146190573Y-87352944D01*
X146381444Y-87426888D01*
X146381452Y-87426889D01*
X146381454Y-87426890D01*
X146503661Y-87449734D01*
X146582653Y-87464500D01*
X146582654Y-87464500D01*
X146787346Y-87464500D01*
X146787347Y-87464500D01*
X146988556Y-87426888D01*
X147179427Y-87352944D01*
X147353462Y-87245186D01*
X147504732Y-87107285D01*
X147628088Y-86943935D01*
X147719328Y-86760701D01*
X147775345Y-86563821D01*
X147794232Y-86360000D01*
X148115768Y-86360000D01*
X148134655Y-86563825D01*
X148171304Y-86692631D01*
X148190672Y-86760701D01*
X148281912Y-86943935D01*
X148281913Y-86943936D01*
X148281914Y-86943938D01*
X148339659Y-87020405D01*
X148405268Y-87107285D01*
X148460503Y-87157638D01*
X148556535Y-87245184D01*
X148556544Y-87245190D01*
X148660087Y-87309301D01*
X148730573Y-87352944D01*
X148921444Y-87426888D01*
X148921452Y-87426889D01*
X148921454Y-87426890D01*
X149043661Y-87449734D01*
X149122653Y-87464500D01*
X149122654Y-87464500D01*
X149327346Y-87464500D01*
X149327347Y-87464500D01*
X149528556Y-87426888D01*
X149719427Y-87352944D01*
X149893462Y-87245186D01*
X149904561Y-87235068D01*
X150660500Y-87235068D01*
X150673426Y-87300053D01*
X150675266Y-87309301D01*
X150731516Y-87393484D01*
X150759705Y-87412319D01*
X150815698Y-87449734D01*
X150826261Y-87451835D01*
X150889933Y-87464500D01*
X152640066Y-87464499D01*
X152640068Y-87464499D01*
X152658561Y-87460820D01*
X152714301Y-87449734D01*
X152798484Y-87393484D01*
X152854734Y-87309301D01*
X152869500Y-87235067D01*
X152869499Y-85484934D01*
X152869499Y-85484933D01*
X152869499Y-85484931D01*
X152863980Y-85457190D01*
X152854734Y-85410699D01*
X152798484Y-85326516D01*
X152748494Y-85293113D01*
X152714301Y-85270265D01*
X152661192Y-85259702D01*
X152640067Y-85255500D01*
X152640065Y-85255500D01*
X150889931Y-85255500D01*
X150815699Y-85270266D01*
X150731517Y-85326515D01*
X150731514Y-85326518D01*
X150675265Y-85410698D01*
X150662601Y-85474370D01*
X150660501Y-85484931D01*
X150660500Y-85484934D01*
X150660500Y-87235068D01*
X149904561Y-87235068D01*
X150044732Y-87107285D01*
X150168088Y-86943935D01*
X150259328Y-86760701D01*
X150315345Y-86563821D01*
X150334232Y-86360000D01*
X150315345Y-86156179D01*
X150259328Y-85959299D01*
X150168088Y-85776065D01*
X150044732Y-85612715D01*
X149969097Y-85543764D01*
X149893464Y-85474815D01*
X149893455Y-85474809D01*
X149719431Y-85367058D01*
X149719428Y-85367056D01*
X149719427Y-85367056D01*
X149614784Y-85326517D01*
X149528559Y-85293113D01*
X149528557Y-85293112D01*
X149528556Y-85293112D01*
X149528554Y-85293111D01*
X149528545Y-85293109D01*
X149327351Y-85255500D01*
X149327347Y-85255500D01*
X149122653Y-85255500D01*
X149122648Y-85255500D01*
X148921454Y-85293109D01*
X148921440Y-85293113D01*
X148730582Y-85367052D01*
X148730568Y-85367058D01*
X148556544Y-85474809D01*
X148556535Y-85474815D01*
X148405269Y-85612714D01*
X148405265Y-85612718D01*
X148281914Y-85776061D01*
X148190672Y-85959299D01*
X148190670Y-85959305D01*
X148134655Y-86156174D01*
X148115768Y-86360000D01*
X147794232Y-86360000D01*
X147775345Y-86156179D01*
X147719328Y-85959299D01*
X147628088Y-85776065D01*
X147504732Y-85612715D01*
X147429097Y-85543764D01*
X147353464Y-85474815D01*
X147353455Y-85474809D01*
X147179431Y-85367058D01*
X147179428Y-85367056D01*
X147179427Y-85367056D01*
X147074784Y-85326517D01*
X146988559Y-85293113D01*
X146988557Y-85293112D01*
X146988556Y-85293112D01*
X146988554Y-85293111D01*
X146988545Y-85293109D01*
X146787351Y-85255500D01*
X146787347Y-85255500D01*
X146582653Y-85255500D01*
X146582648Y-85255500D01*
X146381454Y-85293109D01*
X146381440Y-85293113D01*
X146190582Y-85367052D01*
X146190568Y-85367058D01*
X146016544Y-85474809D01*
X146016535Y-85474815D01*
X145865269Y-85612714D01*
X145865265Y-85612718D01*
X145741914Y-85776061D01*
X145650672Y-85959299D01*
X145650670Y-85959305D01*
X145594655Y-86156174D01*
X145575768Y-86360000D01*
X144645000Y-86360000D01*
X144645000Y-86294174D01*
X144638817Y-86271100D01*
X145372923Y-86271100D01*
X145361928Y-86145421D01*
X145306181Y-85937370D01*
X145215149Y-85742150D01*
X145091603Y-85565708D01*
X145091603Y-85565707D01*
X144939293Y-85413397D01*
X144939291Y-85413396D01*
X144762849Y-85289850D01*
X144567629Y-85198818D01*
X144359574Y-85143070D01*
X144359571Y-85143069D01*
X144233900Y-85132074D01*
X144233900Y-85866182D01*
X144210826Y-85860000D01*
X144079174Y-85860000D01*
X144056100Y-85866182D01*
X144056100Y-85132075D01*
X144056099Y-85132074D01*
X143930428Y-85143069D01*
X143930425Y-85143070D01*
X143722370Y-85198818D01*
X143527150Y-85289850D01*
X143350708Y-85413396D01*
X143198396Y-85565708D01*
X143074850Y-85742150D01*
X142983818Y-85937370D01*
X142928071Y-86145421D01*
X142917077Y-86271100D01*
X143651183Y-86271100D01*
X143645000Y-86294174D01*
X143645000Y-86425826D01*
X143651183Y-86448900D01*
X142917077Y-86448900D01*
X142705994Y-86448900D01*
X142714232Y-86360000D01*
X142695345Y-86156179D01*
X142639328Y-85959299D01*
X142548088Y-85776065D01*
X142424732Y-85612715D01*
X142349097Y-85543764D01*
X142273464Y-85474815D01*
X142273455Y-85474809D01*
X142099431Y-85367058D01*
X142099428Y-85367056D01*
X142099427Y-85367056D01*
X141994784Y-85326517D01*
X141908559Y-85293113D01*
X141908557Y-85293112D01*
X141908556Y-85293112D01*
X141908554Y-85293111D01*
X141908545Y-85293109D01*
X141707351Y-85255500D01*
X141707347Y-85255500D01*
X141502653Y-85255500D01*
X141502648Y-85255500D01*
X141301454Y-85293109D01*
X141301440Y-85293113D01*
X141110582Y-85367052D01*
X141110568Y-85367058D01*
X140936544Y-85474809D01*
X140936535Y-85474815D01*
X140785269Y-85612714D01*
X140785265Y-85612718D01*
X140661914Y-85776061D01*
X140570672Y-85959299D01*
X140570670Y-85959305D01*
X140514655Y-86156174D01*
X140495768Y-86360000D01*
X140174232Y-86360000D01*
X140155345Y-86156179D01*
X140099328Y-85959299D01*
X140008088Y-85776065D01*
X139884732Y-85612715D01*
X139809097Y-85543764D01*
X139733464Y-85474815D01*
X139733455Y-85474809D01*
X139559431Y-85367058D01*
X139559428Y-85367056D01*
X139559427Y-85367056D01*
X139454784Y-85326517D01*
X139368559Y-85293113D01*
X139368557Y-85293112D01*
X139368556Y-85293112D01*
X139368554Y-85293111D01*
X139368545Y-85293109D01*
X139167351Y-85255500D01*
X139167347Y-85255500D01*
X138962653Y-85255500D01*
X138962648Y-85255500D01*
X138761454Y-85293109D01*
X138761440Y-85293113D01*
X138570582Y-85367052D01*
X138570568Y-85367058D01*
X138396544Y-85474809D01*
X138396535Y-85474815D01*
X138245269Y-85612714D01*
X138245265Y-85612718D01*
X138121914Y-85776061D01*
X138030672Y-85959299D01*
X138030670Y-85959305D01*
X137974655Y-86156174D01*
X137955768Y-86360000D01*
X103747734Y-86360000D01*
X103932880Y-86233770D01*
X104125646Y-86054910D01*
X104289601Y-85849317D01*
X104421083Y-85621584D01*
X104517154Y-85376798D01*
X104575669Y-85120428D01*
X104595320Y-84858202D01*
X176075060Y-84858202D01*
X176094710Y-85120425D01*
X176094712Y-85120433D01*
X176151002Y-85367056D01*
X176153226Y-85376798D01*
X176249297Y-85621584D01*
X176380779Y-85849317D01*
X176544734Y-86054910D01*
X176653876Y-86156179D01*
X176737497Y-86233767D01*
X176737506Y-86233775D01*
X176892712Y-86339591D01*
X176954770Y-86381902D01*
X177191692Y-86495998D01*
X177442972Y-86573508D01*
X177442975Y-86573508D01*
X177442977Y-86573509D01*
X177572985Y-86593104D01*
X177702998Y-86612700D01*
X177703004Y-86612700D01*
X177965956Y-86612700D01*
X177965962Y-86612700D01*
X178218889Y-86574578D01*
X178225982Y-86573509D01*
X178225982Y-86573508D01*
X178225988Y-86573508D01*
X178477268Y-86495998D01*
X178714190Y-86381902D01*
X178931460Y-86233770D01*
X179124226Y-86054910D01*
X179288181Y-85849317D01*
X179419663Y-85621584D01*
X179515734Y-85376798D01*
X179574249Y-85120428D01*
X179593900Y-84858200D01*
X179588969Y-84792405D01*
X179574249Y-84595974D01*
X179574249Y-84595972D01*
X179515734Y-84339602D01*
X179419663Y-84094816D01*
X179288181Y-83867083D01*
X179124226Y-83661490D01*
X179058456Y-83600465D01*
X178931462Y-83482632D01*
X178931453Y-83482624D01*
X178714187Y-83334496D01*
X178477271Y-83220403D01*
X178225982Y-83142890D01*
X177965966Y-83103700D01*
X177965962Y-83103700D01*
X177702998Y-83103700D01*
X177702993Y-83103700D01*
X177442977Y-83142890D01*
X177191688Y-83220403D01*
X176954772Y-83334496D01*
X176737506Y-83482624D01*
X176737497Y-83482632D01*
X176544736Y-83661487D01*
X176450393Y-83779790D01*
X176380779Y-83867083D01*
X176352216Y-83916556D01*
X176249297Y-84094815D01*
X176249297Y-84094816D01*
X176153227Y-84339600D01*
X176153225Y-84339605D01*
X176094712Y-84595966D01*
X176094710Y-84595974D01*
X176075060Y-84858197D01*
X176075060Y-84858202D01*
X104595320Y-84858202D01*
X104595320Y-84858200D01*
X104590389Y-84792405D01*
X104575669Y-84595974D01*
X104575669Y-84595972D01*
X104517154Y-84339602D01*
X104421083Y-84094816D01*
X104289601Y-83867083D01*
X104125646Y-83661490D01*
X104059876Y-83600465D01*
X103932882Y-83482632D01*
X103932873Y-83482624D01*
X103715607Y-83334496D01*
X103478691Y-83220403D01*
X103227402Y-83142890D01*
X102967386Y-83103700D01*
X102967382Y-83103700D01*
X102704418Y-83103700D01*
X102704413Y-83103700D01*
X102444397Y-83142890D01*
X102193108Y-83220403D01*
X101956192Y-83334496D01*
X101738926Y-83482624D01*
X101738917Y-83482632D01*
X101546156Y-83661487D01*
X101451813Y-83779790D01*
X101382199Y-83867083D01*
X101353636Y-83916556D01*
X101250717Y-84094815D01*
X101250717Y-84094816D01*
X101154647Y-84339600D01*
X101154645Y-84339605D01*
X101096132Y-84595966D01*
X101096130Y-84595974D01*
X101076480Y-84858197D01*
X101076480Y-84858202D01*
X80415829Y-84858202D01*
X80376053Y-84792405D01*
X80170542Y-84530090D01*
X79934910Y-84294458D01*
X79672595Y-84088947D01*
X79672592Y-84088945D01*
X79672589Y-84088943D01*
X79387425Y-83916556D01*
X79387424Y-83916555D01*
X79387420Y-83916553D01*
X79083545Y-83779790D01*
X79083542Y-83779789D01*
X78765405Y-83680653D01*
X78765400Y-83680652D01*
X78437631Y-83620586D01*
X78437630Y-83620585D01*
X78437625Y-83620585D01*
X78105000Y-83600465D01*
X77772375Y-83620585D01*
X77772370Y-83620585D01*
X77772368Y-83620586D01*
X77444599Y-83680652D01*
X77444594Y-83680653D01*
X77126457Y-83779789D01*
X76822588Y-83916549D01*
X76822574Y-83916556D01*
X76537410Y-84088943D01*
X76537403Y-84088948D01*
X76275087Y-84294460D01*
X76039460Y-84530087D01*
X75833948Y-84792403D01*
X75833943Y-84792410D01*
X75661556Y-85077574D01*
X75661549Y-85077588D01*
X75524790Y-85381454D01*
X75483320Y-85514537D01*
X75446877Y-85562361D01*
X75388219Y-85575572D01*
X75334793Y-85547988D01*
X75311597Y-85492515D01*
X75311500Y-85488386D01*
X75311500Y-76730000D01*
X82775875Y-76730000D01*
X82794334Y-76929210D01*
X82794334Y-76929211D01*
X82849082Y-77121627D01*
X82849083Y-77121628D01*
X82849084Y-77121631D01*
X82853314Y-77130126D01*
X82938254Y-77300712D01*
X82938257Y-77300716D01*
X82938258Y-77300718D01*
X83058822Y-77460370D01*
X83125111Y-77520800D01*
X83206666Y-77595148D01*
X83206675Y-77595154D01*
X83343914Y-77680129D01*
X83376764Y-77700469D01*
X83563315Y-77772739D01*
X83563323Y-77772740D01*
X83563325Y-77772741D01*
X83694418Y-77797246D01*
X83759970Y-77809500D01*
X83759971Y-77809500D01*
X83960029Y-77809500D01*
X83960030Y-77809500D01*
X84156685Y-77772739D01*
X84252140Y-77735758D01*
X84312250Y-77734524D01*
X84346045Y-77755568D01*
X88074153Y-81483676D01*
X88161147Y-81533902D01*
X88258175Y-81559901D01*
X88258176Y-81559901D01*
X88364007Y-81559901D01*
X88364023Y-81559900D01*
X149121743Y-81559900D01*
X149178244Y-81580465D01*
X149194083Y-81597867D01*
X149209272Y-81619873D01*
X149209275Y-81619875D01*
X149209276Y-81619877D01*
X149329409Y-81726305D01*
X149471520Y-81800891D01*
X149627352Y-81839300D01*
X149627354Y-81839300D01*
X149787845Y-81839300D01*
X149787848Y-81839300D01*
X149943680Y-81800891D01*
X150085791Y-81726305D01*
X150205924Y-81619877D01*
X150297096Y-81487791D01*
X150354008Y-81337725D01*
X150373354Y-81178400D01*
X150354008Y-81019075D01*
X150297096Y-80869009D01*
X150297096Y-80869008D01*
X150205926Y-80736926D01*
X150205924Y-80736923D01*
X150085791Y-80630495D01*
X150085789Y-80630494D01*
X150085788Y-80630493D01*
X150043372Y-80608231D01*
X149943680Y-80555909D01*
X149943677Y-80555908D01*
X149889790Y-80542626D01*
X149787848Y-80517500D01*
X149627352Y-80517500D01*
X149550536Y-80536433D01*
X149471522Y-80555908D01*
X149471520Y-80555908D01*
X149471520Y-80555909D01*
X149424149Y-80580771D01*
X149329411Y-80630493D01*
X149329406Y-80630497D01*
X149209272Y-80736926D01*
X149194083Y-80758933D01*
X149145062Y-80793750D01*
X149121743Y-80796900D01*
X147696240Y-80796900D01*
X147639739Y-80776335D01*
X147609675Y-80724264D01*
X147620116Y-80665050D01*
X147655390Y-80631168D01*
X147698191Y-80608705D01*
X147818324Y-80502277D01*
X147909496Y-80370191D01*
X147966408Y-80220125D01*
X147985754Y-80060800D01*
X147966408Y-79901475D01*
X147909496Y-79751409D01*
X147909496Y-79751408D01*
X147818326Y-79619326D01*
X147818324Y-79619323D01*
X147698191Y-79512895D01*
X147698189Y-79512894D01*
X147698188Y-79512893D01*
X147655772Y-79490631D01*
X147600477Y-79461610D01*
X185589500Y-79461610D01*
X185616596Y-79632696D01*
X185655169Y-79751408D01*
X185670127Y-79797445D01*
X185723135Y-79901480D01*
X185748766Y-79951784D01*
X185748773Y-79951797D01*
X185850579Y-80091920D01*
X185850586Y-80091928D01*
X185973071Y-80214413D01*
X185973079Y-80214420D01*
X186113202Y-80316226D01*
X186113208Y-80316229D01*
X186113212Y-80316232D01*
X186267555Y-80394873D01*
X186432299Y-80448402D01*
X186432300Y-80448402D01*
X186432303Y-80448403D01*
X186551760Y-80467322D01*
X186603389Y-80475500D01*
X186603390Y-80475500D01*
X186776610Y-80475500D01*
X186776611Y-80475500D01*
X186856385Y-80462865D01*
X186947696Y-80448403D01*
X186947697Y-80448402D01*
X186947701Y-80448402D01*
X187112445Y-80394873D01*
X187266788Y-80316232D01*
X187266794Y-80316227D01*
X187266797Y-80316226D01*
X187406920Y-80214420D01*
X187406921Y-80214418D01*
X187406928Y-80214414D01*
X187529414Y-80091928D01*
X187552030Y-80060800D01*
X187631226Y-79951797D01*
X187631227Y-79951794D01*
X187631232Y-79951788D01*
X187709873Y-79797445D01*
X187763402Y-79632701D01*
X187765521Y-79619326D01*
X187780855Y-79522507D01*
X189519500Y-79522507D01*
X189558007Y-79814993D01*
X189558010Y-79815005D01*
X189632208Y-80091920D01*
X189634361Y-80099952D01*
X189681772Y-80214413D01*
X189747254Y-80372501D01*
X189747255Y-80372503D01*
X189747257Y-80372507D01*
X189853143Y-80555908D01*
X189883625Y-80608705D01*
X189894762Y-80627994D01*
X190074354Y-80862042D01*
X190282958Y-81070646D01*
X190517006Y-81250238D01*
X190772493Y-81397743D01*
X191045048Y-81510639D01*
X191330007Y-81586993D01*
X191554437Y-81616540D01*
X191622492Y-81625500D01*
X191622494Y-81625500D01*
X191917508Y-81625500D01*
X191978469Y-81617473D01*
X192209993Y-81586993D01*
X192494952Y-81510639D01*
X192767507Y-81397743D01*
X193022994Y-81250238D01*
X193257042Y-81070646D01*
X193465646Y-80862042D01*
X193645238Y-80627994D01*
X193792743Y-80372507D01*
X193905639Y-80099952D01*
X193981993Y-79814993D01*
X194020500Y-79522506D01*
X194020500Y-79461610D01*
X195749500Y-79461610D01*
X195776596Y-79632696D01*
X195815169Y-79751408D01*
X195830127Y-79797445D01*
X195883135Y-79901480D01*
X195908766Y-79951784D01*
X195908773Y-79951797D01*
X196010579Y-80091920D01*
X196010586Y-80091928D01*
X196133071Y-80214413D01*
X196133079Y-80214420D01*
X196273202Y-80316226D01*
X196273208Y-80316229D01*
X196273212Y-80316232D01*
X196427555Y-80394873D01*
X196592299Y-80448402D01*
X196592300Y-80448402D01*
X196592303Y-80448403D01*
X196711760Y-80467322D01*
X196763389Y-80475500D01*
X196763390Y-80475500D01*
X196936610Y-80475500D01*
X196936611Y-80475500D01*
X197016385Y-80462865D01*
X197107696Y-80448403D01*
X197107697Y-80448402D01*
X197107701Y-80448402D01*
X197272445Y-80394873D01*
X197426788Y-80316232D01*
X197426794Y-80316227D01*
X197426797Y-80316226D01*
X197566920Y-80214420D01*
X197566921Y-80214418D01*
X197566928Y-80214414D01*
X197689414Y-80091928D01*
X197712030Y-80060800D01*
X197791226Y-79951797D01*
X197791227Y-79951794D01*
X197791232Y-79951788D01*
X197869873Y-79797445D01*
X197923402Y-79632701D01*
X197925521Y-79619326D01*
X197950500Y-79461610D01*
X204639500Y-79461610D01*
X204666596Y-79632696D01*
X204705169Y-79751408D01*
X204720127Y-79797445D01*
X204773135Y-79901480D01*
X204798766Y-79951784D01*
X204798773Y-79951797D01*
X204900579Y-80091920D01*
X204900586Y-80091928D01*
X205023071Y-80214413D01*
X205023079Y-80214420D01*
X205163202Y-80316226D01*
X205163208Y-80316229D01*
X205163212Y-80316232D01*
X205317555Y-80394873D01*
X205482299Y-80448402D01*
X205482300Y-80448402D01*
X205482303Y-80448403D01*
X205601760Y-80467322D01*
X205653389Y-80475500D01*
X205653390Y-80475500D01*
X205826610Y-80475500D01*
X205826611Y-80475500D01*
X205906385Y-80462865D01*
X205997696Y-80448403D01*
X205997697Y-80448402D01*
X205997701Y-80448402D01*
X206162445Y-80394873D01*
X206316788Y-80316232D01*
X206316794Y-80316227D01*
X206316797Y-80316226D01*
X206456920Y-80214420D01*
X206456921Y-80214418D01*
X206456928Y-80214414D01*
X206579414Y-80091928D01*
X206602030Y-80060800D01*
X206681226Y-79951797D01*
X206681227Y-79951794D01*
X206681232Y-79951788D01*
X206759873Y-79797445D01*
X206813402Y-79632701D01*
X206815521Y-79619326D01*
X206830855Y-79522507D01*
X208569500Y-79522507D01*
X208608007Y-79814993D01*
X208608010Y-79815005D01*
X208682208Y-80091920D01*
X208684361Y-80099952D01*
X208731772Y-80214413D01*
X208797254Y-80372501D01*
X208797255Y-80372503D01*
X208797257Y-80372507D01*
X208903143Y-80555908D01*
X208933625Y-80608705D01*
X208944762Y-80627994D01*
X209124354Y-80862042D01*
X209332958Y-81070646D01*
X209567006Y-81250238D01*
X209822493Y-81397743D01*
X210095048Y-81510639D01*
X210380007Y-81586993D01*
X210604437Y-81616540D01*
X210672492Y-81625500D01*
X210672494Y-81625500D01*
X210967508Y-81625500D01*
X211028469Y-81617473D01*
X211259993Y-81586993D01*
X211544952Y-81510639D01*
X211817507Y-81397743D01*
X212072994Y-81250238D01*
X212307042Y-81070646D01*
X212515646Y-80862042D01*
X212695238Y-80627994D01*
X212842743Y-80372507D01*
X212955639Y-80099952D01*
X213031993Y-79814993D01*
X213070500Y-79522506D01*
X213070500Y-79461610D01*
X214799500Y-79461610D01*
X214826596Y-79632696D01*
X214865169Y-79751408D01*
X214880127Y-79797445D01*
X214933135Y-79901480D01*
X214958766Y-79951784D01*
X214958773Y-79951797D01*
X215060579Y-80091920D01*
X215060586Y-80091928D01*
X215183071Y-80214413D01*
X215183079Y-80214420D01*
X215323202Y-80316226D01*
X215323208Y-80316229D01*
X215323212Y-80316232D01*
X215477555Y-80394873D01*
X215642299Y-80448402D01*
X215642300Y-80448402D01*
X215642303Y-80448403D01*
X215761760Y-80467322D01*
X215813389Y-80475500D01*
X215813390Y-80475500D01*
X215986610Y-80475500D01*
X215986611Y-80475500D01*
X216066385Y-80462865D01*
X216157696Y-80448403D01*
X216157697Y-80448402D01*
X216157701Y-80448402D01*
X216322445Y-80394873D01*
X216476788Y-80316232D01*
X216476794Y-80316227D01*
X216476797Y-80316226D01*
X216616920Y-80214420D01*
X216616921Y-80214418D01*
X216616928Y-80214414D01*
X216739414Y-80091928D01*
X216762030Y-80060800D01*
X216841226Y-79951797D01*
X216841227Y-79951794D01*
X216841232Y-79951788D01*
X216919873Y-79797445D01*
X216973402Y-79632701D01*
X216975521Y-79619326D01*
X217000500Y-79461610D01*
X217000500Y-79288389D01*
X216973403Y-79117303D01*
X216919874Y-78952559D01*
X216919873Y-78952555D01*
X216841232Y-78798212D01*
X216841229Y-78798208D01*
X216841226Y-78798202D01*
X216739420Y-78658079D01*
X216739413Y-78658071D01*
X216616928Y-78535586D01*
X216616920Y-78535579D01*
X216476797Y-78433773D01*
X216476784Y-78433766D01*
X216470586Y-78430608D01*
X216322445Y-78355127D01*
X216322442Y-78355126D01*
X216322440Y-78355125D01*
X216157696Y-78301596D01*
X216006440Y-78277640D01*
X215986611Y-78274500D01*
X215813389Y-78274500D01*
X215795619Y-78277314D01*
X215642303Y-78301596D01*
X215477559Y-78355125D01*
X215323215Y-78433766D01*
X215323202Y-78433773D01*
X215183079Y-78535579D01*
X215183071Y-78535586D01*
X215060586Y-78658071D01*
X215060579Y-78658079D01*
X214958773Y-78798202D01*
X214958766Y-78798215D01*
X214880125Y-78952559D01*
X214826596Y-79117303D01*
X214799500Y-79288389D01*
X214799500Y-79461610D01*
X213070500Y-79461610D01*
X213070500Y-79227494D01*
X213031993Y-78935007D01*
X212955639Y-78650048D01*
X212842743Y-78377493D01*
X212695238Y-78122006D01*
X212515646Y-77887958D01*
X212307042Y-77679354D01*
X212072994Y-77499762D01*
X211817507Y-77352257D01*
X211817505Y-77352256D01*
X211817503Y-77352255D01*
X211817501Y-77352254D01*
X211634174Y-77276318D01*
X211544952Y-77239361D01*
X211544948Y-77239360D01*
X211544946Y-77239359D01*
X211260005Y-77163010D01*
X211259993Y-77163007D01*
X210967508Y-77124500D01*
X210967506Y-77124500D01*
X210672494Y-77124500D01*
X210672492Y-77124500D01*
X210380006Y-77163007D01*
X210379994Y-77163010D01*
X210095053Y-77239359D01*
X210095046Y-77239362D01*
X209822498Y-77352254D01*
X209822496Y-77352255D01*
X209567010Y-77499759D01*
X209567007Y-77499761D01*
X209332961Y-77679351D01*
X209124351Y-77887961D01*
X208944761Y-78122007D01*
X208944759Y-78122010D01*
X208797255Y-78377496D01*
X208797254Y-78377498D01*
X208684362Y-78650046D01*
X208684359Y-78650053D01*
X208608010Y-78934994D01*
X208608007Y-78935006D01*
X208569500Y-79227492D01*
X208569500Y-79522507D01*
X206830855Y-79522507D01*
X206840500Y-79461610D01*
X206840500Y-79288389D01*
X206813403Y-79117303D01*
X206759874Y-78952559D01*
X206759873Y-78952555D01*
X206681232Y-78798212D01*
X206681229Y-78798208D01*
X206681226Y-78798202D01*
X206579420Y-78658079D01*
X206579413Y-78658071D01*
X206456928Y-78535586D01*
X206456920Y-78535579D01*
X206316797Y-78433773D01*
X206316784Y-78433766D01*
X206310586Y-78430608D01*
X206162445Y-78355127D01*
X206162442Y-78355126D01*
X206162440Y-78355125D01*
X205997696Y-78301596D01*
X205846440Y-78277640D01*
X205826611Y-78274500D01*
X205653389Y-78274500D01*
X205635619Y-78277314D01*
X205482303Y-78301596D01*
X205317559Y-78355125D01*
X205163215Y-78433766D01*
X205163202Y-78433773D01*
X205023079Y-78535579D01*
X205023071Y-78535586D01*
X204900586Y-78658071D01*
X204900579Y-78658079D01*
X204798773Y-78798202D01*
X204798766Y-78798215D01*
X204720125Y-78952559D01*
X204666596Y-79117303D01*
X204639500Y-79288389D01*
X204639500Y-79461610D01*
X197950500Y-79461610D01*
X197950500Y-79288389D01*
X197923403Y-79117303D01*
X197869874Y-78952559D01*
X197869873Y-78952555D01*
X197791232Y-78798212D01*
X197791229Y-78798208D01*
X197791226Y-78798202D01*
X197689420Y-78658079D01*
X197689413Y-78658071D01*
X197566928Y-78535586D01*
X197566920Y-78535579D01*
X197426797Y-78433773D01*
X197426784Y-78433766D01*
X197420586Y-78430608D01*
X197272445Y-78355127D01*
X197272442Y-78355126D01*
X197272440Y-78355125D01*
X197107696Y-78301596D01*
X196956440Y-78277640D01*
X196936611Y-78274500D01*
X196763389Y-78274500D01*
X196745619Y-78277314D01*
X196592303Y-78301596D01*
X196427559Y-78355125D01*
X196273215Y-78433766D01*
X196273202Y-78433773D01*
X196133079Y-78535579D01*
X196133071Y-78535586D01*
X196010586Y-78658071D01*
X196010579Y-78658079D01*
X195908773Y-78798202D01*
X195908766Y-78798215D01*
X195830125Y-78952559D01*
X195776596Y-79117303D01*
X195749500Y-79288389D01*
X195749500Y-79461610D01*
X194020500Y-79461610D01*
X194020500Y-79227494D01*
X193981993Y-78935007D01*
X193905639Y-78650048D01*
X193792743Y-78377493D01*
X193645238Y-78122006D01*
X193465646Y-77887958D01*
X193257042Y-77679354D01*
X193022994Y-77499762D01*
X192767507Y-77352257D01*
X192767505Y-77352256D01*
X192767503Y-77352255D01*
X192767501Y-77352254D01*
X192584174Y-77276318D01*
X192494952Y-77239361D01*
X192494948Y-77239360D01*
X192494946Y-77239359D01*
X192210005Y-77163010D01*
X192209993Y-77163007D01*
X191917508Y-77124500D01*
X191917506Y-77124500D01*
X191622494Y-77124500D01*
X191622492Y-77124500D01*
X191330006Y-77163007D01*
X191329994Y-77163010D01*
X191045053Y-77239359D01*
X191045046Y-77239362D01*
X190772498Y-77352254D01*
X190772496Y-77352255D01*
X190517010Y-77499759D01*
X190517007Y-77499761D01*
X190282961Y-77679351D01*
X190074351Y-77887961D01*
X189894761Y-78122007D01*
X189894759Y-78122010D01*
X189747255Y-78377496D01*
X189747254Y-78377498D01*
X189634362Y-78650046D01*
X189634359Y-78650053D01*
X189558010Y-78934994D01*
X189558007Y-78935006D01*
X189519500Y-79227492D01*
X189519500Y-79522507D01*
X187780855Y-79522507D01*
X187790500Y-79461610D01*
X187790500Y-79288389D01*
X187763403Y-79117303D01*
X187709874Y-78952559D01*
X187709873Y-78952555D01*
X187631232Y-78798212D01*
X187631229Y-78798208D01*
X187631226Y-78798202D01*
X187529420Y-78658079D01*
X187529413Y-78658071D01*
X187406928Y-78535586D01*
X187406920Y-78535579D01*
X187266797Y-78433773D01*
X187266784Y-78433766D01*
X187260586Y-78430608D01*
X187112445Y-78355127D01*
X187112442Y-78355126D01*
X187112440Y-78355125D01*
X186947696Y-78301596D01*
X186796440Y-78277640D01*
X186776611Y-78274500D01*
X186603389Y-78274500D01*
X186585619Y-78277314D01*
X186432303Y-78301596D01*
X186267559Y-78355125D01*
X186113215Y-78433766D01*
X186113202Y-78433773D01*
X185973079Y-78535579D01*
X185973071Y-78535586D01*
X185850586Y-78658071D01*
X185850579Y-78658079D01*
X185748773Y-78798202D01*
X185748766Y-78798215D01*
X185670125Y-78952559D01*
X185616596Y-79117303D01*
X185589500Y-79288389D01*
X185589500Y-79461610D01*
X147600477Y-79461610D01*
X147556080Y-79438309D01*
X147556077Y-79438308D01*
X147502190Y-79425026D01*
X147400248Y-79399900D01*
X147239752Y-79399900D01*
X147162936Y-79418833D01*
X147083922Y-79438308D01*
X147083920Y-79438308D01*
X147083920Y-79438309D01*
X147039524Y-79461610D01*
X146941811Y-79512893D01*
X146941806Y-79512897D01*
X146821672Y-79619326D01*
X146806483Y-79641333D01*
X146757462Y-79676150D01*
X146734143Y-79679300D01*
X92385232Y-79679300D01*
X92328731Y-79658735D01*
X92323077Y-79653555D01*
X90190322Y-77520800D01*
X105506246Y-77520800D01*
X105524338Y-77669802D01*
X105525592Y-77680125D01*
X105544858Y-77730925D01*
X105582503Y-77830190D01*
X105582503Y-77830191D01*
X105673673Y-77962273D01*
X105673676Y-77962277D01*
X105793809Y-78068705D01*
X105935920Y-78143291D01*
X106091752Y-78181700D01*
X106091754Y-78181700D01*
X106252245Y-78181700D01*
X106252248Y-78181700D01*
X106408080Y-78143291D01*
X106550191Y-78068705D01*
X106550198Y-78068699D01*
X106655731Y-77975206D01*
X106711659Y-77953132D01*
X106714019Y-77953100D01*
X137642552Y-77953100D01*
X137699053Y-77973665D01*
X137729117Y-78025736D01*
X137718676Y-78084950D01*
X137683403Y-78118829D01*
X137636801Y-78143289D01*
X137543811Y-78192093D01*
X137543806Y-78192097D01*
X137423673Y-78298526D01*
X137332503Y-78430608D01*
X137332503Y-78430609D01*
X137292694Y-78535579D01*
X137275592Y-78580675D01*
X137275591Y-78580677D01*
X137275591Y-78580680D01*
X137267168Y-78650048D01*
X137256246Y-78740000D01*
X137275592Y-78899325D01*
X137289124Y-78935006D01*
X137332503Y-79049390D01*
X137332503Y-79049391D01*
X137423673Y-79181473D01*
X137423676Y-79181477D01*
X137543809Y-79287905D01*
X137685920Y-79362491D01*
X137841752Y-79400900D01*
X137841754Y-79400900D01*
X138002245Y-79400900D01*
X138002248Y-79400900D01*
X138158080Y-79362491D01*
X138300191Y-79287905D01*
X138420324Y-79181477D01*
X138511496Y-79049391D01*
X138568408Y-78899325D01*
X138587754Y-78740000D01*
X138568408Y-78580675D01*
X138511496Y-78430609D01*
X138511496Y-78430608D01*
X138428801Y-78310804D01*
X138420324Y-78298523D01*
X138300191Y-78192095D01*
X138300189Y-78192094D01*
X138300188Y-78192093D01*
X138224850Y-78152553D01*
X138160597Y-78118830D01*
X138120127Y-78074365D01*
X138117705Y-78014287D01*
X138154468Y-77966708D01*
X138201448Y-77953100D01*
X156894143Y-77953100D01*
X156950644Y-77973665D01*
X156966483Y-77991067D01*
X156981672Y-78013073D01*
X156981675Y-78013075D01*
X156981676Y-78013077D01*
X157101809Y-78119505D01*
X157243920Y-78194091D01*
X157399752Y-78232500D01*
X157399754Y-78232500D01*
X157560245Y-78232500D01*
X157560248Y-78232500D01*
X157716080Y-78194091D01*
X157858191Y-78119505D01*
X157978324Y-78013077D01*
X158069496Y-77880991D01*
X158126408Y-77730925D01*
X158145754Y-77571600D01*
X158126408Y-77412275D01*
X158069496Y-77262209D01*
X158069496Y-77262208D01*
X157978326Y-77130126D01*
X157978324Y-77130123D01*
X157858191Y-77023695D01*
X157858189Y-77023694D01*
X157858188Y-77023693D01*
X157815772Y-77001431D01*
X157716080Y-76949109D01*
X157716077Y-76949108D01*
X157635334Y-76929207D01*
X157560248Y-76910700D01*
X157399752Y-76910700D01*
X157324666Y-76929207D01*
X157243922Y-76949108D01*
X157243920Y-76949108D01*
X157243920Y-76949109D01*
X157198604Y-76972893D01*
X157101811Y-77023693D01*
X157101806Y-77023697D01*
X156981672Y-77130126D01*
X156966483Y-77152133D01*
X156917462Y-77186950D01*
X156894143Y-77190100D01*
X106792921Y-77190100D01*
X106736420Y-77169535D01*
X106720581Y-77152133D01*
X106697462Y-77118639D01*
X106670326Y-77079325D01*
X106607533Y-77023695D01*
X106550191Y-76972895D01*
X106550189Y-76972894D01*
X106550188Y-76972893D01*
X106504869Y-76949108D01*
X106408080Y-76898309D01*
X106408077Y-76898308D01*
X106354190Y-76885026D01*
X106252248Y-76859900D01*
X106091752Y-76859900D01*
X106014936Y-76878833D01*
X105935922Y-76898308D01*
X105935920Y-76898308D01*
X105935920Y-76898309D01*
X105888549Y-76923171D01*
X105793811Y-76972893D01*
X105793806Y-76972897D01*
X105673673Y-77079326D01*
X105582503Y-77211408D01*
X105582503Y-77211409D01*
X105557889Y-77276313D01*
X105525592Y-77361475D01*
X105525591Y-77361477D01*
X105525591Y-77361480D01*
X105506246Y-77520800D01*
X90190322Y-77520800D01*
X89889122Y-77219600D01*
X89863711Y-77165106D01*
X89871116Y-77126068D01*
X89869447Y-77125422D01*
X89870912Y-77121637D01*
X89870916Y-77121631D01*
X89925666Y-76929207D01*
X89944125Y-76730000D01*
X89925666Y-76530793D01*
X89886656Y-76393690D01*
X89870917Y-76338372D01*
X89870916Y-76338371D01*
X89870916Y-76338369D01*
X89799391Y-76194726D01*
X89781745Y-76159287D01*
X89781743Y-76159284D01*
X89781742Y-76159282D01*
X89661178Y-75999630D01*
X89587254Y-75932240D01*
X89513333Y-75864851D01*
X89513324Y-75864845D01*
X89343240Y-75759533D01*
X89343227Y-75759527D01*
X89156688Y-75687262D01*
X89156686Y-75687261D01*
X89156685Y-75687261D01*
X89156683Y-75687260D01*
X89156674Y-75687258D01*
X88960034Y-75650500D01*
X88960030Y-75650500D01*
X88759970Y-75650500D01*
X88759965Y-75650500D01*
X88563325Y-75687258D01*
X88563311Y-75687262D01*
X88376772Y-75759527D01*
X88376759Y-75759533D01*
X88206675Y-75864845D01*
X88206666Y-75864851D01*
X88058823Y-75999629D01*
X88058819Y-75999633D01*
X87938259Y-76159280D01*
X87938254Y-76159287D01*
X87849083Y-76338371D01*
X87849082Y-76338372D01*
X87794334Y-76530788D01*
X87794334Y-76530789D01*
X87775875Y-76729999D01*
X87775875Y-76730000D01*
X87794334Y-76929210D01*
X87794334Y-76929211D01*
X87849082Y-77121627D01*
X87849083Y-77121628D01*
X87849084Y-77121631D01*
X87853314Y-77130126D01*
X87938254Y-77300712D01*
X87938257Y-77300716D01*
X87938258Y-77300718D01*
X88058822Y-77460370D01*
X88125111Y-77520800D01*
X88206666Y-77595148D01*
X88206675Y-77595154D01*
X88343914Y-77680129D01*
X88376764Y-77700469D01*
X88563315Y-77772739D01*
X88563323Y-77772740D01*
X88563325Y-77772741D01*
X88694418Y-77797246D01*
X88759970Y-77809500D01*
X88759971Y-77809500D01*
X88960029Y-77809500D01*
X88960030Y-77809500D01*
X89156685Y-77772739D01*
X89252139Y-77735758D01*
X89312251Y-77734524D01*
X89346043Y-77755566D01*
X90639868Y-79049390D01*
X91885522Y-80295044D01*
X91885522Y-80295045D01*
X91956549Y-80366073D01*
X91956551Y-80366075D01*
X92006430Y-80394873D01*
X92006431Y-80394873D01*
X92043547Y-80416302D01*
X92140575Y-80442301D01*
X92140576Y-80442301D01*
X92246407Y-80442301D01*
X92246423Y-80442300D01*
X146734143Y-80442300D01*
X146790644Y-80462865D01*
X146806483Y-80480267D01*
X146821672Y-80502273D01*
X146821675Y-80502275D01*
X146821676Y-80502277D01*
X146941809Y-80608705D01*
X146984609Y-80631168D01*
X147025081Y-80675635D01*
X147027503Y-80735713D01*
X146990740Y-80783292D01*
X146943760Y-80796900D01*
X88502833Y-80796900D01*
X88446332Y-80776335D01*
X88440678Y-80771155D01*
X84889122Y-77219599D01*
X84863711Y-77165105D01*
X84871170Y-77126094D01*
X84869446Y-77125427D01*
X84870911Y-77121640D01*
X84870916Y-77121631D01*
X84925666Y-76929207D01*
X84944125Y-76730000D01*
X85275875Y-76730000D01*
X85294334Y-76929210D01*
X85294334Y-76929211D01*
X85349082Y-77121627D01*
X85349083Y-77121628D01*
X85349084Y-77121631D01*
X85353314Y-77130126D01*
X85438254Y-77300712D01*
X85438257Y-77300716D01*
X85438258Y-77300718D01*
X85558822Y-77460370D01*
X85625111Y-77520800D01*
X85706666Y-77595148D01*
X85706675Y-77595154D01*
X85843914Y-77680129D01*
X85876764Y-77700469D01*
X86063315Y-77772739D01*
X86063323Y-77772740D01*
X86063325Y-77772741D01*
X86194418Y-77797246D01*
X86259970Y-77809500D01*
X86259971Y-77809500D01*
X86460029Y-77809500D01*
X86460030Y-77809500D01*
X86656685Y-77772739D01*
X86843236Y-77700469D01*
X87013331Y-77595150D01*
X87161178Y-77460370D01*
X87281742Y-77300718D01*
X87370916Y-77121631D01*
X87425666Y-76929207D01*
X87444125Y-76730000D01*
X87425666Y-76530793D01*
X87386656Y-76393690D01*
X87370917Y-76338372D01*
X87370916Y-76338371D01*
X87370916Y-76338369D01*
X87299391Y-76194726D01*
X87281745Y-76159287D01*
X87281743Y-76159284D01*
X87281742Y-76159282D01*
X87161178Y-75999630D01*
X87087254Y-75932240D01*
X87013333Y-75864851D01*
X87013324Y-75864845D01*
X86843240Y-75759533D01*
X86843227Y-75759527D01*
X86656688Y-75687262D01*
X86656686Y-75687261D01*
X86656685Y-75687261D01*
X86656683Y-75687260D01*
X86656674Y-75687258D01*
X86460034Y-75650500D01*
X86460030Y-75650500D01*
X86259970Y-75650500D01*
X86259965Y-75650500D01*
X86063325Y-75687258D01*
X86063311Y-75687262D01*
X85876772Y-75759527D01*
X85876759Y-75759533D01*
X85706675Y-75864845D01*
X85706666Y-75864851D01*
X85558823Y-75999629D01*
X85558819Y-75999633D01*
X85438259Y-76159280D01*
X85438254Y-76159287D01*
X85349083Y-76338371D01*
X85349082Y-76338372D01*
X85294334Y-76530788D01*
X85294334Y-76530789D01*
X85275875Y-76729999D01*
X85275875Y-76730000D01*
X84944125Y-76730000D01*
X84925666Y-76530793D01*
X84886656Y-76393690D01*
X84870917Y-76338372D01*
X84870916Y-76338371D01*
X84870916Y-76338369D01*
X84799391Y-76194726D01*
X84781745Y-76159287D01*
X84781743Y-76159284D01*
X84781742Y-76159282D01*
X84661178Y-75999630D01*
X84587254Y-75932240D01*
X84513333Y-75864851D01*
X84513324Y-75864845D01*
X84343240Y-75759533D01*
X84343227Y-75759527D01*
X84156688Y-75687262D01*
X84156686Y-75687261D01*
X84156685Y-75687261D01*
X84156683Y-75687260D01*
X84156674Y-75687258D01*
X83960034Y-75650500D01*
X83960030Y-75650500D01*
X83759970Y-75650500D01*
X83759965Y-75650500D01*
X83563325Y-75687258D01*
X83563311Y-75687262D01*
X83376772Y-75759527D01*
X83376759Y-75759533D01*
X83206675Y-75864845D01*
X83206666Y-75864851D01*
X83058823Y-75999629D01*
X83058819Y-75999633D01*
X82938259Y-76159280D01*
X82938254Y-76159287D01*
X82849083Y-76338371D01*
X82849082Y-76338372D01*
X82794334Y-76530788D01*
X82794334Y-76530789D01*
X82775875Y-76729999D01*
X82775875Y-76730000D01*
X75311500Y-76730000D01*
X75311500Y-73660000D01*
X93822246Y-73660000D01*
X93841592Y-73819325D01*
X93855886Y-73857016D01*
X93898503Y-73969390D01*
X93898503Y-73969391D01*
X93980684Y-74088450D01*
X93989676Y-74101477D01*
X94109809Y-74207905D01*
X94251920Y-74282491D01*
X94407752Y-74320900D01*
X94407754Y-74320900D01*
X94568245Y-74320900D01*
X94568248Y-74320900D01*
X94724080Y-74282491D01*
X94866191Y-74207905D01*
X94986324Y-74101477D01*
X94995316Y-74088450D01*
X95001517Y-74079467D01*
X95050538Y-74044650D01*
X95073857Y-74041500D01*
X123415546Y-74041500D01*
X123472047Y-74062065D01*
X123493065Y-74087962D01*
X123578973Y-74248683D01*
X123710748Y-74409252D01*
X123871317Y-74541027D01*
X124054508Y-74638945D01*
X124054510Y-74638945D01*
X124054513Y-74638947D01*
X124246105Y-74697065D01*
X124253282Y-74699242D01*
X124460000Y-74719602D01*
X124666718Y-74699242D01*
X124768718Y-74668301D01*
X124865486Y-74638947D01*
X124865486Y-74638946D01*
X124865492Y-74638945D01*
X125048683Y-74541027D01*
X125209252Y-74409252D01*
X125341027Y-74248683D01*
X125438945Y-74065492D01*
X125499242Y-73866718D01*
X125519602Y-73660000D01*
X125499242Y-73453282D01*
X125468097Y-73350609D01*
X125438947Y-73254513D01*
X125438945Y-73254510D01*
X125438945Y-73254508D01*
X125341027Y-73071317D01*
X125212874Y-72915162D01*
X125192928Y-72858441D01*
X125214108Y-72802168D01*
X125266505Y-72772674D01*
X125280823Y-72771500D01*
X126179177Y-72771500D01*
X126235678Y-72792065D01*
X126265742Y-72844136D01*
X126255301Y-72903350D01*
X126247125Y-72915163D01*
X126118973Y-73071316D01*
X126021052Y-73254513D01*
X125960759Y-73453275D01*
X125960758Y-73453280D01*
X125960758Y-73453282D01*
X125940398Y-73660000D01*
X125959802Y-73857016D01*
X125960759Y-73866724D01*
X126021052Y-74065486D01*
X126021054Y-74065491D01*
X126021055Y-74065492D01*
X126118973Y-74248683D01*
X126250748Y-74409252D01*
X126411317Y-74541027D01*
X126594508Y-74638945D01*
X126594510Y-74638945D01*
X126594513Y-74638947D01*
X126786105Y-74697065D01*
X126793282Y-74699242D01*
X127000000Y-74719602D01*
X127206718Y-74699242D01*
X127381109Y-74646341D01*
X127441144Y-74649619D01*
X127468778Y-74668301D01*
X129361722Y-76561244D01*
X129361722Y-76561245D01*
X129432751Y-76632275D01*
X129432753Y-76632276D01*
X129482976Y-76661271D01*
X129482978Y-76661273D01*
X129519747Y-76682502D01*
X129519745Y-76682502D01*
X129616775Y-76708501D01*
X129722607Y-76708501D01*
X129722623Y-76708500D01*
X183184224Y-76708500D01*
X183184225Y-76708500D01*
X183281254Y-76682501D01*
X183368247Y-76632276D01*
X183439276Y-76561247D01*
X184163078Y-75837445D01*
X184217572Y-75812034D01*
X184225233Y-75811700D01*
X186860579Y-75811700D01*
X186917080Y-75832265D01*
X186947144Y-75884336D01*
X186936703Y-75943550D01*
X186925254Y-75959127D01*
X186887446Y-76000198D01*
X186783513Y-76159280D01*
X186764671Y-76188119D01*
X186764665Y-76188130D01*
X186674501Y-76393681D01*
X186674499Y-76393689D01*
X186619395Y-76611287D01*
X186619394Y-76611293D01*
X186600858Y-76835000D01*
X186619394Y-77058706D01*
X186619395Y-77058712D01*
X186674499Y-77276310D01*
X186674501Y-77276318D01*
X186755233Y-77460366D01*
X186764670Y-77481880D01*
X186887446Y-77669802D01*
X187039478Y-77834953D01*
X187216620Y-77972828D01*
X187414039Y-78079666D01*
X187414045Y-78079668D01*
X187626348Y-78152553D01*
X187847759Y-78189500D01*
X187847763Y-78189500D01*
X188072241Y-78189500D01*
X188293651Y-78152553D01*
X188395729Y-78117509D01*
X188505961Y-78079666D01*
X188703380Y-77972828D01*
X188880522Y-77834953D01*
X189032554Y-77669802D01*
X189155330Y-77481880D01*
X189245500Y-77276313D01*
X189295384Y-77079325D01*
X189300604Y-77058712D01*
X189300605Y-77058706D01*
X189307715Y-76972897D01*
X189319142Y-76835000D01*
X189300605Y-76611293D01*
X189300604Y-76611287D01*
X189272704Y-76501116D01*
X189245500Y-76393687D01*
X189245498Y-76393684D01*
X189245498Y-76393681D01*
X189160760Y-76200500D01*
X189155330Y-76188120D01*
X189032554Y-76000198D01*
X188994749Y-75959130D01*
X188971614Y-75903635D01*
X188989563Y-75846250D01*
X189040199Y-75813827D01*
X189059421Y-75811700D01*
X192837767Y-75811700D01*
X192894268Y-75832265D01*
X192899922Y-75837445D01*
X193115724Y-76053247D01*
X193186753Y-76124276D01*
X193273746Y-76174501D01*
X193273748Y-76174501D01*
X193273749Y-76174502D01*
X193370775Y-76200500D01*
X205674698Y-76200500D01*
X205731199Y-76221065D01*
X205761263Y-76273136D01*
X205755195Y-76323709D01*
X205724498Y-76393690D01*
X205669395Y-76611287D01*
X205669394Y-76611293D01*
X205650858Y-76835000D01*
X205669394Y-77058706D01*
X205669395Y-77058712D01*
X205724499Y-77276310D01*
X205724501Y-77276318D01*
X205805233Y-77460366D01*
X205814670Y-77481880D01*
X205937446Y-77669802D01*
X206089478Y-77834953D01*
X206266620Y-77972828D01*
X206464039Y-78079666D01*
X206464045Y-78079668D01*
X206676348Y-78152553D01*
X206897759Y-78189500D01*
X206897763Y-78189500D01*
X207122241Y-78189500D01*
X207343651Y-78152553D01*
X207445729Y-78117509D01*
X207555961Y-78079666D01*
X207753380Y-77972828D01*
X207930522Y-77834953D01*
X208082554Y-77669802D01*
X208205330Y-77481880D01*
X208295500Y-77276313D01*
X208345384Y-77079325D01*
X208350604Y-77058712D01*
X208350605Y-77058706D01*
X208357715Y-76972897D01*
X208369142Y-76835000D01*
X208350605Y-76611293D01*
X208350604Y-76611287D01*
X208322704Y-76501116D01*
X208295500Y-76393687D01*
X208295498Y-76393684D01*
X208295498Y-76393681D01*
X208210760Y-76200500D01*
X208205330Y-76188120D01*
X208082554Y-76000198D01*
X207930522Y-75835047D01*
X207753380Y-75697172D01*
X207555961Y-75590334D01*
X207555957Y-75590332D01*
X207555954Y-75590331D01*
X207343651Y-75517446D01*
X207122241Y-75480500D01*
X207122237Y-75480500D01*
X206897763Y-75480500D01*
X206897758Y-75480500D01*
X206832631Y-75491367D01*
X206773516Y-75480382D01*
X206735292Y-75433969D01*
X206735845Y-75373844D01*
X206756006Y-75342514D01*
X207396277Y-74702245D01*
X207450771Y-74676834D01*
X207458432Y-74676500D01*
X211991206Y-74676500D01*
X212047707Y-74697065D01*
X212072526Y-74733208D01*
X212073039Y-74732984D01*
X212074217Y-74735670D01*
X212074340Y-74735849D01*
X212074499Y-74736314D01*
X212157481Y-74925491D01*
X212164670Y-74941880D01*
X212287446Y-75129802D01*
X212287449Y-75129805D01*
X212434858Y-75289935D01*
X212439478Y-75294953D01*
X212616620Y-75432828D01*
X212814039Y-75539666D01*
X212814045Y-75539668D01*
X213026348Y-75612553D01*
X213247759Y-75649500D01*
X213247763Y-75649500D01*
X213472241Y-75649500D01*
X213693651Y-75612553D01*
X213825603Y-75567253D01*
X213905961Y-75539666D01*
X214103380Y-75432828D01*
X214280522Y-75294953D01*
X214432554Y-75129802D01*
X214555330Y-74941880D01*
X214645500Y-74736313D01*
X214700605Y-74518707D01*
X214719142Y-74295000D01*
X214700605Y-74071293D01*
X214700604Y-74071287D01*
X214667230Y-73939497D01*
X214645500Y-73853687D01*
X214645498Y-73853684D01*
X214645498Y-73853681D01*
X214555334Y-73648130D01*
X214555330Y-73648120D01*
X214432554Y-73460198D01*
X214280522Y-73295047D01*
X214103380Y-73157172D01*
X213905961Y-73050334D01*
X213905957Y-73050332D01*
X213905954Y-73050331D01*
X213693651Y-72977446D01*
X213472241Y-72940500D01*
X213472237Y-72940500D01*
X213247763Y-72940500D01*
X213247759Y-72940500D01*
X213026348Y-72977446D01*
X212814045Y-73050331D01*
X212616616Y-73157174D01*
X212439476Y-73295048D01*
X212287449Y-73460194D01*
X212287446Y-73460198D01*
X212164671Y-73648119D01*
X212164665Y-73648130D01*
X212074499Y-73853685D01*
X212074340Y-73854151D01*
X212074243Y-73854270D01*
X212073039Y-73857016D01*
X212072289Y-73856687D01*
X212036538Y-73900909D01*
X211991206Y-73913500D01*
X207213775Y-73913500D01*
X207116749Y-73939497D01*
X207029751Y-73989725D01*
X205607722Y-75411755D01*
X205553228Y-75437166D01*
X205545567Y-75437500D01*
X195299690Y-75437500D01*
X195243189Y-75416935D01*
X195213125Y-75364864D01*
X195223566Y-75305650D01*
X195235020Y-75290067D01*
X195248667Y-75275242D01*
X195382554Y-75129802D01*
X195505330Y-74941880D01*
X195595500Y-74736313D01*
X195650605Y-74518707D01*
X195669142Y-74295000D01*
X195650605Y-74071293D01*
X195650604Y-74071287D01*
X195617230Y-73939497D01*
X195595500Y-73853687D01*
X195595498Y-73853684D01*
X195595498Y-73853681D01*
X195505334Y-73648130D01*
X195505330Y-73648120D01*
X195382554Y-73460198D01*
X195230522Y-73295047D01*
X195053380Y-73157172D01*
X194855961Y-73050334D01*
X194855957Y-73050332D01*
X194855954Y-73050331D01*
X194643651Y-72977446D01*
X194422241Y-72940500D01*
X194422237Y-72940500D01*
X194197763Y-72940500D01*
X194197759Y-72940500D01*
X193976348Y-72977446D01*
X193764045Y-73050331D01*
X193566616Y-73157174D01*
X193389476Y-73295048D01*
X193237449Y-73460194D01*
X193237446Y-73460198D01*
X193114671Y-73648119D01*
X193114665Y-73648130D01*
X193024499Y-73853685D01*
X193024340Y-73854151D01*
X193024243Y-73854270D01*
X193023039Y-73857016D01*
X193022289Y-73856687D01*
X192986538Y-73900909D01*
X192941206Y-73913500D01*
X182448775Y-73913500D01*
X182351749Y-73939497D01*
X182264751Y-73989725D01*
X180969722Y-75284755D01*
X180915228Y-75310166D01*
X180907567Y-75310500D01*
X131766433Y-75310500D01*
X131709932Y-75289935D01*
X131704278Y-75284755D01*
X130548301Y-74128778D01*
X130522890Y-74074284D01*
X130526340Y-74041112D01*
X130579242Y-73866718D01*
X130599602Y-73660000D01*
X131020398Y-73660000D01*
X131039802Y-73857016D01*
X131040759Y-73866724D01*
X131101052Y-74065486D01*
X131101054Y-74065491D01*
X131101055Y-74065492D01*
X131198973Y-74248683D01*
X131330748Y-74409252D01*
X131491317Y-74541027D01*
X131674508Y-74638945D01*
X131674510Y-74638945D01*
X131674513Y-74638947D01*
X131866105Y-74697065D01*
X131873282Y-74699242D01*
X132080000Y-74719602D01*
X132286718Y-74699242D01*
X132388718Y-74668301D01*
X132485486Y-74638947D01*
X132485486Y-74638946D01*
X132485492Y-74638945D01*
X132668683Y-74541027D01*
X132829252Y-74409252D01*
X132961027Y-74248683D01*
X133058945Y-74065492D01*
X133119242Y-73866718D01*
X133139602Y-73660000D01*
X133560398Y-73660000D01*
X133579802Y-73857016D01*
X133580759Y-73866724D01*
X133641052Y-74065486D01*
X133641054Y-74065491D01*
X133641055Y-74065492D01*
X133738973Y-74248683D01*
X133870748Y-74409252D01*
X134031317Y-74541027D01*
X134214508Y-74638945D01*
X134214510Y-74638945D01*
X134214513Y-74638947D01*
X134406105Y-74697065D01*
X134413282Y-74699242D01*
X134620000Y-74719602D01*
X134826718Y-74699242D01*
X134928718Y-74668301D01*
X135025486Y-74638947D01*
X135025486Y-74638946D01*
X135025492Y-74638945D01*
X135208683Y-74541027D01*
X135369252Y-74409252D01*
X135501027Y-74248683D01*
X135598945Y-74065492D01*
X135659242Y-73866718D01*
X135679602Y-73660000D01*
X136100398Y-73660000D01*
X136119802Y-73857016D01*
X136120759Y-73866724D01*
X136181052Y-74065486D01*
X136181054Y-74065491D01*
X136181055Y-74065492D01*
X136278973Y-74248683D01*
X136410748Y-74409252D01*
X136571317Y-74541027D01*
X136754508Y-74638945D01*
X136754510Y-74638945D01*
X136754513Y-74638947D01*
X136946105Y-74697065D01*
X136953282Y-74699242D01*
X137160000Y-74719602D01*
X137366718Y-74699242D01*
X137468718Y-74668301D01*
X137565486Y-74638947D01*
X137565486Y-74638946D01*
X137565492Y-74638945D01*
X137748683Y-74541027D01*
X137909252Y-74409252D01*
X138041027Y-74248683D01*
X138138945Y-74065492D01*
X138199242Y-73866718D01*
X138219602Y-73660000D01*
X138640398Y-73660000D01*
X138659802Y-73857016D01*
X138660759Y-73866724D01*
X138721052Y-74065486D01*
X138721054Y-74065491D01*
X138721055Y-74065492D01*
X138818973Y-74248683D01*
X138950748Y-74409252D01*
X139111317Y-74541027D01*
X139294508Y-74638945D01*
X139294510Y-74638945D01*
X139294513Y-74638947D01*
X139486105Y-74697065D01*
X139493282Y-74699242D01*
X139700000Y-74719602D01*
X139906718Y-74699242D01*
X140008718Y-74668301D01*
X140105486Y-74638947D01*
X140105486Y-74638946D01*
X140105492Y-74638945D01*
X140288683Y-74541027D01*
X140449252Y-74409252D01*
X140581027Y-74248683D01*
X140678945Y-74065492D01*
X140739242Y-73866718D01*
X140750846Y-73748900D01*
X141062178Y-73748900D01*
X141074135Y-73877941D01*
X141074135Y-73877942D01*
X141134030Y-74088450D01*
X141231592Y-74284381D01*
X141363488Y-74459039D01*
X141363492Y-74459043D01*
X141525237Y-74606495D01*
X141525239Y-74606496D01*
X141711323Y-74721714D01*
X141711337Y-74721720D01*
X141915415Y-74800781D01*
X141915429Y-74800785D01*
X142130559Y-74840999D01*
X142130565Y-74841000D01*
X142151099Y-74841000D01*
X142151100Y-74840999D01*
X142151100Y-74050289D01*
X142187339Y-74060000D01*
X142292661Y-74060000D01*
X142328900Y-74050289D01*
X142328900Y-74840999D01*
X142328901Y-74841000D01*
X142349435Y-74841000D01*
X142349440Y-74840999D01*
X142564570Y-74800785D01*
X142564584Y-74800781D01*
X142768662Y-74721720D01*
X142768676Y-74721714D01*
X142954760Y-74606496D01*
X142954762Y-74606495D01*
X143116507Y-74459043D01*
X143116511Y-74459039D01*
X143248407Y-74284381D01*
X143345969Y-74088450D01*
X143405864Y-73877942D01*
X143405864Y-73877941D01*
X143417822Y-73748900D01*
X142630290Y-73748900D01*
X142640000Y-73712661D01*
X142640000Y-73660000D01*
X143720398Y-73660000D01*
X143739802Y-73857016D01*
X143740759Y-73866724D01*
X143801052Y-74065486D01*
X143801054Y-74065491D01*
X143801055Y-74065492D01*
X143898973Y-74248683D01*
X144030748Y-74409252D01*
X144191317Y-74541027D01*
X144374508Y-74638945D01*
X144374510Y-74638945D01*
X144374513Y-74638947D01*
X144566105Y-74697065D01*
X144573282Y-74699242D01*
X144780000Y-74719602D01*
X144986718Y-74699242D01*
X145088718Y-74668301D01*
X145185486Y-74638947D01*
X145185486Y-74638946D01*
X145185492Y-74638945D01*
X145368683Y-74541027D01*
X145529252Y-74409252D01*
X145661027Y-74248683D01*
X145758945Y-74065492D01*
X145819242Y-73866718D01*
X145839602Y-73660000D01*
X146260398Y-73660000D01*
X146279802Y-73857016D01*
X146280759Y-73866724D01*
X146341052Y-74065486D01*
X146341054Y-74065491D01*
X146341055Y-74065492D01*
X146438973Y-74248683D01*
X146570748Y-74409252D01*
X146731317Y-74541027D01*
X146914508Y-74638945D01*
X146914510Y-74638945D01*
X146914513Y-74638947D01*
X147106105Y-74697065D01*
X147113282Y-74699242D01*
X147320000Y-74719602D01*
X147526718Y-74699242D01*
X147628718Y-74668301D01*
X147725486Y-74638947D01*
X147725486Y-74638946D01*
X147725492Y-74638945D01*
X147908683Y-74541027D01*
X148069252Y-74409252D01*
X148201027Y-74248683D01*
X148298945Y-74065492D01*
X148359242Y-73866718D01*
X148379602Y-73660000D01*
X148800398Y-73660000D01*
X148819802Y-73857016D01*
X148820759Y-73866724D01*
X148881052Y-74065486D01*
X148881054Y-74065491D01*
X148881055Y-74065492D01*
X148978973Y-74248683D01*
X149110748Y-74409252D01*
X149271317Y-74541027D01*
X149454508Y-74638945D01*
X149454510Y-74638945D01*
X149454513Y-74638947D01*
X149646105Y-74697065D01*
X149653282Y-74699242D01*
X149860000Y-74719602D01*
X150066718Y-74699242D01*
X150168718Y-74668301D01*
X150265486Y-74638947D01*
X150265486Y-74638946D01*
X150265492Y-74638945D01*
X150448683Y-74541027D01*
X150609252Y-74409252D01*
X150741027Y-74248683D01*
X150838945Y-74065492D01*
X150899242Y-73866718D01*
X150919602Y-73660000D01*
X151340398Y-73660000D01*
X151359802Y-73857016D01*
X151360759Y-73866724D01*
X151421052Y-74065486D01*
X151421054Y-74065491D01*
X151421055Y-74065492D01*
X151518973Y-74248683D01*
X151650748Y-74409252D01*
X151811317Y-74541027D01*
X151994508Y-74638945D01*
X151994510Y-74638945D01*
X151994513Y-74638947D01*
X152186105Y-74697065D01*
X152193282Y-74699242D01*
X152400000Y-74719602D01*
X152606718Y-74699242D01*
X152708718Y-74668301D01*
X152805486Y-74638947D01*
X152805486Y-74638946D01*
X152805492Y-74638945D01*
X152988683Y-74541027D01*
X153149252Y-74409252D01*
X153281027Y-74248683D01*
X153378945Y-74065492D01*
X153439242Y-73866718D01*
X153459602Y-73660000D01*
X153880398Y-73660000D01*
X153899802Y-73857016D01*
X153900759Y-73866724D01*
X153961052Y-74065486D01*
X153961054Y-74065491D01*
X153961055Y-74065492D01*
X154058973Y-74248683D01*
X154190748Y-74409252D01*
X154351317Y-74541027D01*
X154534508Y-74638945D01*
X154534510Y-74638945D01*
X154534513Y-74638947D01*
X154726105Y-74697065D01*
X154733282Y-74699242D01*
X154940000Y-74719602D01*
X155146718Y-74699242D01*
X155248718Y-74668301D01*
X155345486Y-74638947D01*
X155345486Y-74638946D01*
X155345492Y-74638945D01*
X155528683Y-74541027D01*
X155596870Y-74485068D01*
X156425500Y-74485068D01*
X156436631Y-74541026D01*
X156440266Y-74559301D01*
X156496516Y-74643484D01*
X156500792Y-74646341D01*
X156580698Y-74699734D01*
X156591261Y-74701835D01*
X156654933Y-74714500D01*
X158305066Y-74714499D01*
X158305068Y-74714499D01*
X158323561Y-74710820D01*
X158379301Y-74699734D01*
X158463484Y-74643484D01*
X158519734Y-74559301D01*
X158534500Y-74485067D01*
X158534499Y-72834934D01*
X158534499Y-72834933D01*
X158534499Y-72834931D01*
X158527982Y-72802168D01*
X158519734Y-72760699D01*
X158463484Y-72676516D01*
X158456796Y-72672047D01*
X158379301Y-72620265D01*
X158326192Y-72609702D01*
X158305067Y-72605500D01*
X158305065Y-72605500D01*
X156654931Y-72605500D01*
X156580699Y-72620266D01*
X156496517Y-72676515D01*
X156496514Y-72676518D01*
X156440265Y-72760698D01*
X156432017Y-72802168D01*
X156425501Y-72834931D01*
X156425500Y-72834934D01*
X156425500Y-74485068D01*
X155596870Y-74485068D01*
X155689252Y-74409252D01*
X155821027Y-74248683D01*
X155918945Y-74065492D01*
X155979242Y-73866718D01*
X155999602Y-73660000D01*
X155979242Y-73453282D01*
X155948097Y-73350609D01*
X155918947Y-73254513D01*
X155918945Y-73254510D01*
X155918945Y-73254508D01*
X155821027Y-73071317D01*
X155689252Y-72910748D01*
X155528683Y-72778973D01*
X155345492Y-72681055D01*
X155345491Y-72681054D01*
X155345486Y-72681052D01*
X155146724Y-72620759D01*
X155146719Y-72620758D01*
X155146718Y-72620758D01*
X154940000Y-72600398D01*
X154733282Y-72620758D01*
X154733280Y-72620758D01*
X154733275Y-72620759D01*
X154534513Y-72681052D01*
X154351316Y-72778973D01*
X154190750Y-72910746D01*
X154190746Y-72910750D01*
X154058973Y-73071316D01*
X153961052Y-73254513D01*
X153900759Y-73453275D01*
X153900758Y-73453280D01*
X153900758Y-73453282D01*
X153880398Y-73660000D01*
X153459602Y-73660000D01*
X153439242Y-73453282D01*
X153408097Y-73350609D01*
X153378947Y-73254513D01*
X153378945Y-73254510D01*
X153378945Y-73254508D01*
X153281027Y-73071317D01*
X153149252Y-72910748D01*
X152988683Y-72778973D01*
X152805492Y-72681055D01*
X152805491Y-72681054D01*
X152805486Y-72681052D01*
X152606724Y-72620759D01*
X152606719Y-72620758D01*
X152606718Y-72620758D01*
X152400000Y-72600398D01*
X152193282Y-72620758D01*
X152193280Y-72620758D01*
X152193275Y-72620759D01*
X151994513Y-72681052D01*
X151811316Y-72778973D01*
X151650750Y-72910746D01*
X151650746Y-72910750D01*
X151518973Y-73071316D01*
X151421052Y-73254513D01*
X151360759Y-73453275D01*
X151360758Y-73453280D01*
X151360758Y-73453282D01*
X151340398Y-73660000D01*
X150919602Y-73660000D01*
X150899242Y-73453282D01*
X150868097Y-73350609D01*
X150838947Y-73254513D01*
X150838945Y-73254510D01*
X150838945Y-73254508D01*
X150741027Y-73071317D01*
X150609252Y-72910748D01*
X150448683Y-72778973D01*
X150265492Y-72681055D01*
X150265491Y-72681054D01*
X150265486Y-72681052D01*
X150066724Y-72620759D01*
X150066719Y-72620758D01*
X150066718Y-72620758D01*
X149860000Y-72600398D01*
X149653282Y-72620758D01*
X149653280Y-72620758D01*
X149653275Y-72620759D01*
X149454513Y-72681052D01*
X149271316Y-72778973D01*
X149110750Y-72910746D01*
X149110746Y-72910750D01*
X148978973Y-73071316D01*
X148881052Y-73254513D01*
X148820759Y-73453275D01*
X148820758Y-73453280D01*
X148820758Y-73453282D01*
X148800398Y-73660000D01*
X148379602Y-73660000D01*
X148359242Y-73453282D01*
X148328097Y-73350609D01*
X148298947Y-73254513D01*
X148298945Y-73254510D01*
X148298945Y-73254508D01*
X148201027Y-73071317D01*
X148069252Y-72910748D01*
X147908683Y-72778973D01*
X147725492Y-72681055D01*
X147725491Y-72681054D01*
X147725486Y-72681052D01*
X147526724Y-72620759D01*
X147526719Y-72620758D01*
X147526718Y-72620758D01*
X147320000Y-72600398D01*
X147113282Y-72620758D01*
X147113280Y-72620758D01*
X147113275Y-72620759D01*
X146914513Y-72681052D01*
X146731316Y-72778973D01*
X146570750Y-72910746D01*
X146570746Y-72910750D01*
X146438973Y-73071316D01*
X146341052Y-73254513D01*
X146280759Y-73453275D01*
X146280758Y-73453280D01*
X146280758Y-73453282D01*
X146260398Y-73660000D01*
X145839602Y-73660000D01*
X145819242Y-73453282D01*
X145788097Y-73350609D01*
X145758947Y-73254513D01*
X145758945Y-73254510D01*
X145758945Y-73254508D01*
X145661027Y-73071317D01*
X145529252Y-72910748D01*
X145368683Y-72778973D01*
X145185492Y-72681055D01*
X145185491Y-72681054D01*
X145185486Y-72681052D01*
X144986724Y-72620759D01*
X144986719Y-72620758D01*
X144986718Y-72620758D01*
X144780000Y-72600398D01*
X144573282Y-72620758D01*
X144573280Y-72620758D01*
X144573275Y-72620759D01*
X144374513Y-72681052D01*
X144191316Y-72778973D01*
X144030750Y-72910746D01*
X144030746Y-72910750D01*
X143898973Y-73071316D01*
X143801052Y-73254513D01*
X143740759Y-73453275D01*
X143740758Y-73453280D01*
X143740758Y-73453282D01*
X143720398Y-73660000D01*
X142640000Y-73660000D01*
X142640000Y-73607339D01*
X142630290Y-73571100D01*
X143417821Y-73571100D01*
X143405864Y-73442058D01*
X143405864Y-73442057D01*
X143345969Y-73231549D01*
X143248407Y-73035618D01*
X143116511Y-72860960D01*
X143116507Y-72860956D01*
X142954762Y-72713504D01*
X142954760Y-72713503D01*
X142768676Y-72598285D01*
X142768662Y-72598279D01*
X142564584Y-72519218D01*
X142564570Y-72519214D01*
X142349440Y-72479000D01*
X142328901Y-72479000D01*
X142328900Y-72479001D01*
X142328900Y-73269710D01*
X142292661Y-73260000D01*
X142187339Y-73260000D01*
X142151100Y-73269710D01*
X142151100Y-72479001D01*
X142151099Y-72479000D01*
X142130559Y-72479000D01*
X141915429Y-72519214D01*
X141915415Y-72519218D01*
X141711337Y-72598279D01*
X141711323Y-72598285D01*
X141525239Y-72713503D01*
X141525237Y-72713504D01*
X141363492Y-72860956D01*
X141363488Y-72860960D01*
X141231592Y-73035618D01*
X141134030Y-73231549D01*
X141074135Y-73442057D01*
X141074135Y-73442058D01*
X141062178Y-73571100D01*
X141849710Y-73571100D01*
X141840000Y-73607339D01*
X141840000Y-73712661D01*
X141849710Y-73748900D01*
X141062178Y-73748900D01*
X140750846Y-73748900D01*
X140759602Y-73660000D01*
X140739242Y-73453282D01*
X140708097Y-73350609D01*
X140678947Y-73254513D01*
X140678945Y-73254510D01*
X140678945Y-73254508D01*
X140581027Y-73071317D01*
X140449252Y-72910748D01*
X140288683Y-72778973D01*
X140105492Y-72681055D01*
X140105491Y-72681054D01*
X140105486Y-72681052D01*
X139906724Y-72620759D01*
X139906719Y-72620758D01*
X139906718Y-72620758D01*
X139700000Y-72600398D01*
X139493282Y-72620758D01*
X139493280Y-72620758D01*
X139493275Y-72620759D01*
X139294513Y-72681052D01*
X139111316Y-72778973D01*
X138950750Y-72910746D01*
X138950746Y-72910750D01*
X138818973Y-73071316D01*
X138721052Y-73254513D01*
X138660759Y-73453275D01*
X138660758Y-73453280D01*
X138660758Y-73453282D01*
X138640398Y-73660000D01*
X138219602Y-73660000D01*
X138199242Y-73453282D01*
X138168097Y-73350609D01*
X138138947Y-73254513D01*
X138138945Y-73254510D01*
X138138945Y-73254508D01*
X138041027Y-73071317D01*
X137909252Y-72910748D01*
X137748683Y-72778973D01*
X137565492Y-72681055D01*
X137565491Y-72681054D01*
X137565486Y-72681052D01*
X137366724Y-72620759D01*
X137366719Y-72620758D01*
X137366718Y-72620758D01*
X137160000Y-72600398D01*
X136953282Y-72620758D01*
X136953280Y-72620758D01*
X136953275Y-72620759D01*
X136754513Y-72681052D01*
X136571316Y-72778973D01*
X136410750Y-72910746D01*
X136410746Y-72910750D01*
X136278973Y-73071316D01*
X136181052Y-73254513D01*
X136120759Y-73453275D01*
X136120758Y-73453280D01*
X136120758Y-73453282D01*
X136100398Y-73660000D01*
X135679602Y-73660000D01*
X135659242Y-73453282D01*
X135628097Y-73350609D01*
X135598947Y-73254513D01*
X135598945Y-73254510D01*
X135598945Y-73254508D01*
X135501027Y-73071317D01*
X135369252Y-72910748D01*
X135208683Y-72778973D01*
X135025492Y-72681055D01*
X135025491Y-72681054D01*
X135025486Y-72681052D01*
X134826724Y-72620759D01*
X134826719Y-72620758D01*
X134826718Y-72620758D01*
X134620000Y-72600398D01*
X134413282Y-72620758D01*
X134413280Y-72620758D01*
X134413275Y-72620759D01*
X134214513Y-72681052D01*
X134031316Y-72778973D01*
X133870750Y-72910746D01*
X133870746Y-72910750D01*
X133738973Y-73071316D01*
X133641052Y-73254513D01*
X133580759Y-73453275D01*
X133580758Y-73453280D01*
X133580758Y-73453282D01*
X133560398Y-73660000D01*
X133139602Y-73660000D01*
X133119242Y-73453282D01*
X133088097Y-73350609D01*
X133058947Y-73254513D01*
X133058945Y-73254510D01*
X133058945Y-73254508D01*
X132961027Y-73071317D01*
X132829252Y-72910748D01*
X132668683Y-72778973D01*
X132507963Y-72693066D01*
X132467829Y-72648296D01*
X132461500Y-72615546D01*
X132461500Y-72076433D01*
X132482065Y-72019932D01*
X132487245Y-72014278D01*
X134117278Y-70384245D01*
X134171772Y-70358834D01*
X134179433Y-70358500D01*
X213411993Y-70358500D01*
X213468494Y-70379065D01*
X213470281Y-70380605D01*
X213489809Y-70397905D01*
X213631920Y-70472491D01*
X213787752Y-70510900D01*
X213787754Y-70510900D01*
X213948245Y-70510900D01*
X213948248Y-70510900D01*
X214104080Y-70472491D01*
X214246191Y-70397905D01*
X214366324Y-70291477D01*
X214457496Y-70159391D01*
X214514408Y-70009325D01*
X214533754Y-69850000D01*
X214514408Y-69690675D01*
X214457496Y-69540609D01*
X214457496Y-69540608D01*
X214366326Y-69408526D01*
X214366324Y-69408523D01*
X214246191Y-69302095D01*
X214246189Y-69302094D01*
X214246188Y-69302093D01*
X214203772Y-69279831D01*
X214104080Y-69227509D01*
X214104077Y-69227508D01*
X214050190Y-69214226D01*
X213948248Y-69189100D01*
X213787752Y-69189100D01*
X213710936Y-69208033D01*
X213631922Y-69227508D01*
X213631920Y-69227508D01*
X213631920Y-69227509D01*
X213597733Y-69245452D01*
X213489811Y-69302093D01*
X213489806Y-69302097D01*
X213369673Y-69408526D01*
X213278503Y-69540608D01*
X213276032Y-69545318D01*
X213274327Y-69544423D01*
X213239933Y-69584309D01*
X213197013Y-69595500D01*
X133934775Y-69595500D01*
X133837750Y-69621496D01*
X133750751Y-69671725D01*
X131774725Y-71647751D01*
X131724497Y-71734749D01*
X131698500Y-71831774D01*
X131698500Y-72615546D01*
X131677935Y-72672047D01*
X131652037Y-72693065D01*
X131581288Y-72730882D01*
X131491316Y-72778973D01*
X131330750Y-72910746D01*
X131330746Y-72910750D01*
X131198973Y-73071316D01*
X131101052Y-73254513D01*
X131040759Y-73453275D01*
X131040758Y-73453280D01*
X131040758Y-73453282D01*
X131020398Y-73660000D01*
X130599602Y-73660000D01*
X130579242Y-73453282D01*
X130548097Y-73350609D01*
X130518947Y-73254513D01*
X130518945Y-73254510D01*
X130518945Y-73254508D01*
X130421027Y-73071317D01*
X130289252Y-72910748D01*
X130128683Y-72778973D01*
X129945492Y-72681055D01*
X129945491Y-72681054D01*
X129945486Y-72681052D01*
X129746724Y-72620759D01*
X129746719Y-72620758D01*
X129746718Y-72620758D01*
X129540000Y-72600398D01*
X129333282Y-72620758D01*
X129333280Y-72620758D01*
X129333275Y-72620759D01*
X129134513Y-72681052D01*
X128951316Y-72778973D01*
X128790750Y-72910746D01*
X128790746Y-72910750D01*
X128658973Y-73071316D01*
X128561052Y-73254513D01*
X128500759Y-73453275D01*
X128500758Y-73453280D01*
X128500758Y-73453282D01*
X128480398Y-73660000D01*
X128499802Y-73857016D01*
X128500759Y-73866724D01*
X128561052Y-74065486D01*
X128561054Y-74065491D01*
X128561055Y-74065492D01*
X128658973Y-74248683D01*
X128790748Y-74409252D01*
X128951317Y-74541027D01*
X129134508Y-74638945D01*
X129134510Y-74638945D01*
X129134513Y-74638947D01*
X129326105Y-74697065D01*
X129333282Y-74699242D01*
X129540000Y-74719602D01*
X129746718Y-74699242D01*
X129921109Y-74646341D01*
X129981144Y-74649619D01*
X130008778Y-74668301D01*
X131135922Y-75795445D01*
X131161333Y-75849939D01*
X131145770Y-75908017D01*
X131096517Y-75942505D01*
X131073767Y-75945500D01*
X129861432Y-75945500D01*
X129804931Y-75924935D01*
X129799277Y-75919755D01*
X128008301Y-74128778D01*
X127982890Y-74074284D01*
X127986340Y-74041112D01*
X128039242Y-73866718D01*
X128059602Y-73660000D01*
X128039242Y-73453282D01*
X128008097Y-73350609D01*
X127978947Y-73254513D01*
X127978945Y-73254510D01*
X127978945Y-73254508D01*
X127881027Y-73071317D01*
X127752874Y-72915162D01*
X127732928Y-72858441D01*
X127754108Y-72802168D01*
X127806505Y-72772674D01*
X127820823Y-72771500D01*
X128320224Y-72771500D01*
X128320225Y-72771500D01*
X128417254Y-72745501D01*
X128504247Y-72695276D01*
X128575276Y-72624247D01*
X134151221Y-67048300D01*
X134205714Y-67022890D01*
X134238888Y-67026340D01*
X134413282Y-67079242D01*
X134620000Y-67099602D01*
X134826718Y-67079242D01*
X134928718Y-67048301D01*
X135025486Y-67018947D01*
X135025486Y-67018946D01*
X135025492Y-67018945D01*
X135208683Y-66921027D01*
X135369252Y-66789252D01*
X135501027Y-66628683D01*
X135598945Y-66445492D01*
X135659242Y-66246718D01*
X135679602Y-66040000D01*
X135659242Y-65833282D01*
X135628097Y-65730609D01*
X135598947Y-65634513D01*
X135598945Y-65634510D01*
X135598945Y-65634508D01*
X135501027Y-65451317D01*
X135369252Y-65290748D01*
X135208683Y-65158973D01*
X135025492Y-65061055D01*
X135025491Y-65061054D01*
X135025486Y-65061052D01*
X134826724Y-65000759D01*
X134826719Y-65000758D01*
X134826718Y-65000758D01*
X134620000Y-64980398D01*
X134413282Y-65000758D01*
X134413280Y-65000758D01*
X134413275Y-65000759D01*
X134214513Y-65061052D01*
X134031316Y-65158973D01*
X133870750Y-65290746D01*
X133870746Y-65290750D01*
X133738973Y-65451316D01*
X133641052Y-65634513D01*
X133580759Y-65833275D01*
X133560398Y-66040000D01*
X133580759Y-66246724D01*
X133633657Y-66421107D01*
X133630379Y-66481145D01*
X133611697Y-66508778D01*
X128137722Y-71982755D01*
X128083228Y-72008166D01*
X128075567Y-72008500D01*
X109541433Y-72008500D01*
X109484932Y-71987935D01*
X109479278Y-71982755D01*
X109093073Y-71596550D01*
X109067662Y-71542056D01*
X109083225Y-71483978D01*
X109108955Y-71459661D01*
X109149914Y-71434300D01*
X109253462Y-71370186D01*
X109404732Y-71232285D01*
X109528088Y-71068935D01*
X109619328Y-70885701D01*
X109675345Y-70688821D01*
X109694232Y-70485000D01*
X109675345Y-70281179D01*
X109619328Y-70084299D01*
X109528088Y-69901065D01*
X109404732Y-69737715D01*
X109291137Y-69634159D01*
X109263237Y-69580897D01*
X109276100Y-69522161D01*
X109323708Y-69485436D01*
X109350355Y-69481300D01*
X109938981Y-69481300D01*
X109995482Y-69501865D01*
X110025546Y-69553936D01*
X110025192Y-69586344D01*
X110020500Y-69609933D01*
X110020500Y-69609934D01*
X110020500Y-69609936D01*
X110020500Y-71360068D01*
X110033426Y-71425053D01*
X110035266Y-71434301D01*
X110091516Y-71518484D01*
X110096317Y-71521692D01*
X110175698Y-71574734D01*
X110185703Y-71576724D01*
X110249933Y-71589500D01*
X112000066Y-71589499D01*
X112000068Y-71589499D01*
X112018561Y-71585820D01*
X112074301Y-71574734D01*
X112158484Y-71518484D01*
X112214734Y-71434301D01*
X112229500Y-71360067D01*
X112229500Y-70954400D01*
X112250065Y-70897899D01*
X112302136Y-70867835D01*
X112317400Y-70866500D01*
X127685224Y-70866500D01*
X127685225Y-70866500D01*
X127782254Y-70840501D01*
X127869247Y-70790276D01*
X127940276Y-70719247D01*
X127940276Y-70719246D01*
X131611220Y-67048300D01*
X131665713Y-67022890D01*
X131698889Y-67026340D01*
X131793286Y-67054975D01*
X131809219Y-67059809D01*
X131873282Y-67079242D01*
X132080000Y-67099602D01*
X132286718Y-67079242D01*
X132388718Y-67048301D01*
X132485486Y-67018947D01*
X132485486Y-67018946D01*
X132485492Y-67018945D01*
X132668683Y-66921027D01*
X132829252Y-66789252D01*
X132961027Y-66628683D01*
X133058945Y-66445492D01*
X133119242Y-66246718D01*
X133139602Y-66040000D01*
X133119242Y-65833282D01*
X133088097Y-65730609D01*
X133058947Y-65634513D01*
X133058945Y-65634510D01*
X133058945Y-65634508D01*
X132961027Y-65451317D01*
X132829252Y-65290748D01*
X132668683Y-65158973D01*
X132485492Y-65061055D01*
X132485491Y-65061054D01*
X132485486Y-65061052D01*
X132286724Y-65000759D01*
X132286719Y-65000758D01*
X132286718Y-65000758D01*
X132080000Y-64980398D01*
X131873282Y-65000758D01*
X131873280Y-65000758D01*
X131873275Y-65000759D01*
X131674513Y-65061052D01*
X131491316Y-65158973D01*
X131330750Y-65290746D01*
X131330746Y-65290750D01*
X131198973Y-65451316D01*
X131101052Y-65634513D01*
X131040759Y-65833275D01*
X131020398Y-66040000D01*
X131040759Y-66246724D01*
X131093658Y-66421107D01*
X131090380Y-66481145D01*
X131071698Y-66508778D01*
X127502722Y-70077755D01*
X127448228Y-70103166D01*
X127440567Y-70103500D01*
X112317399Y-70103500D01*
X112260898Y-70082935D01*
X112230834Y-70030864D01*
X112229499Y-70015600D01*
X112229499Y-69609931D01*
X112224808Y-69586348D01*
X112233955Y-69526921D01*
X112279161Y-69487276D01*
X112311019Y-69481300D01*
X126530424Y-69481300D01*
X126530425Y-69481300D01*
X126627454Y-69455301D01*
X126714447Y-69405076D01*
X126785476Y-69334047D01*
X129071221Y-67048300D01*
X129125714Y-67022890D01*
X129158888Y-67026340D01*
X129333282Y-67079242D01*
X129540000Y-67099602D01*
X129746718Y-67079242D01*
X129848718Y-67048301D01*
X129945486Y-67018947D01*
X129945486Y-67018946D01*
X129945492Y-67018945D01*
X130128683Y-66921027D01*
X130289252Y-66789252D01*
X130421027Y-66628683D01*
X130518945Y-66445492D01*
X130579242Y-66246718D01*
X130599602Y-66040000D01*
X130579242Y-65833282D01*
X130548097Y-65730609D01*
X130518947Y-65634513D01*
X130518945Y-65634510D01*
X130518945Y-65634508D01*
X130421027Y-65451317D01*
X130289252Y-65290748D01*
X130128683Y-65158973D01*
X129945492Y-65061055D01*
X129945491Y-65061054D01*
X129945486Y-65061052D01*
X129746724Y-65000759D01*
X129746719Y-65000758D01*
X129746718Y-65000758D01*
X129540000Y-64980398D01*
X129333282Y-65000758D01*
X129333280Y-65000758D01*
X129333275Y-65000759D01*
X129134513Y-65061052D01*
X128951316Y-65158973D01*
X128790750Y-65290746D01*
X128790746Y-65290750D01*
X128658973Y-65451316D01*
X128561052Y-65634513D01*
X128500759Y-65833275D01*
X128480398Y-66040000D01*
X128500759Y-66246724D01*
X128553657Y-66421107D01*
X128550379Y-66481145D01*
X128531697Y-66508778D01*
X126347922Y-68692555D01*
X126293428Y-68717966D01*
X126285767Y-68718300D01*
X112255157Y-68718300D01*
X112198656Y-68697735D01*
X112168592Y-68645664D01*
X112179033Y-68586450D01*
X112183154Y-68579982D01*
X112195147Y-68562853D01*
X112286181Y-68367629D01*
X112341928Y-68159578D01*
X112352923Y-68033900D01*
X111618817Y-68033900D01*
X111625000Y-68010826D01*
X111625000Y-67879174D01*
X111618817Y-67856100D01*
X112352923Y-67856100D01*
X112341928Y-67730421D01*
X112286181Y-67522370D01*
X112195149Y-67327150D01*
X112071603Y-67150708D01*
X112071603Y-67150707D01*
X111919293Y-66998397D01*
X111919291Y-66998396D01*
X111742849Y-66874850D01*
X111547629Y-66783818D01*
X111339574Y-66728070D01*
X111339571Y-66728069D01*
X111213900Y-66717074D01*
X111213900Y-67451182D01*
X111190826Y-67445000D01*
X111059174Y-67445000D01*
X111036100Y-67451182D01*
X111036100Y-66717075D01*
X111036099Y-66717074D01*
X110910428Y-66728069D01*
X110910425Y-66728070D01*
X110702370Y-66783818D01*
X110507150Y-66874850D01*
X110330708Y-66998396D01*
X110178396Y-67150708D01*
X110054850Y-67327150D01*
X109963818Y-67522370D01*
X109908071Y-67730421D01*
X109897077Y-67856100D01*
X110631183Y-67856100D01*
X110625000Y-67879174D01*
X110625000Y-68010826D01*
X110631183Y-68033900D01*
X109897077Y-68033900D01*
X109908071Y-68159578D01*
X109963818Y-68367629D01*
X110054852Y-68562853D01*
X110066846Y-68579982D01*
X110082409Y-68638060D01*
X110056998Y-68692554D01*
X110002505Y-68717965D01*
X109994843Y-68718300D01*
X109561614Y-68718300D01*
X109505113Y-68697735D01*
X109475049Y-68645664D01*
X109485490Y-68586450D01*
X109491468Y-68577429D01*
X109528083Y-68528941D01*
X109528088Y-68528935D01*
X109619328Y-68345701D01*
X109675345Y-68148821D01*
X109694232Y-67945000D01*
X109675345Y-67741179D01*
X109675085Y-67740266D01*
X109619499Y-67544901D01*
X109619328Y-67544299D01*
X109528088Y-67361065D01*
X109404732Y-67197715D01*
X109299424Y-67101714D01*
X109253464Y-67059815D01*
X109253455Y-67059809D01*
X109079431Y-66952058D01*
X109079428Y-66952056D01*
X109079427Y-66952056D01*
X108888556Y-66878112D01*
X108888554Y-66878111D01*
X108888545Y-66878109D01*
X108687351Y-66840500D01*
X108687347Y-66840500D01*
X108482653Y-66840500D01*
X108482648Y-66840500D01*
X108281454Y-66878109D01*
X108281440Y-66878113D01*
X108090582Y-66952052D01*
X108090568Y-66952058D01*
X107916544Y-67059809D01*
X107916535Y-67059815D01*
X107765269Y-67197714D01*
X107765265Y-67197718D01*
X107641914Y-67361061D01*
X107550672Y-67544299D01*
X107550670Y-67544305D01*
X107494655Y-67741174D01*
X107475768Y-67945000D01*
X107494655Y-68148825D01*
X107550501Y-68345099D01*
X107550672Y-68345701D01*
X107641912Y-68528935D01*
X107641913Y-68528936D01*
X107641914Y-68528938D01*
X107756361Y-68680490D01*
X107765268Y-68692285D01*
X107849021Y-68768636D01*
X107916535Y-68830184D01*
X107916538Y-68830186D01*
X108090573Y-68937944D01*
X108281444Y-69011888D01*
X108281452Y-69011889D01*
X108281454Y-69011890D01*
X108415583Y-69036962D01*
X108482653Y-69049500D01*
X108605568Y-69049500D01*
X108662069Y-69070065D01*
X108667723Y-69075245D01*
X108837930Y-69245452D01*
X108863341Y-69299946D01*
X108847778Y-69358024D01*
X108798525Y-69392512D01*
X108759624Y-69394010D01*
X108687351Y-69380500D01*
X108687347Y-69380500D01*
X108482653Y-69380500D01*
X108482648Y-69380500D01*
X108281454Y-69418109D01*
X108281440Y-69418113D01*
X108090582Y-69492052D01*
X108090568Y-69492058D01*
X107916544Y-69599809D01*
X107916535Y-69599815D01*
X107765269Y-69737714D01*
X107765265Y-69737718D01*
X107641914Y-69901061D01*
X107550672Y-70084299D01*
X107550670Y-70084305D01*
X107494655Y-70281174D01*
X107475768Y-70485000D01*
X107494655Y-70688825D01*
X107537812Y-70840502D01*
X107550672Y-70885701D01*
X107641912Y-71068935D01*
X107765268Y-71232285D01*
X107849021Y-71308636D01*
X107916535Y-71370184D01*
X107916544Y-71370190D01*
X108020087Y-71434301D01*
X108090573Y-71477944D01*
X108147354Y-71499941D01*
X108192609Y-71539525D01*
X108203500Y-71581904D01*
X108203500Y-71678224D01*
X108218645Y-71734749D01*
X108229499Y-71775254D01*
X108262131Y-71831775D01*
X108279724Y-71862247D01*
X109112753Y-72695276D01*
X109199747Y-72745502D01*
X109296775Y-72771501D01*
X109296776Y-72771501D01*
X109402607Y-72771501D01*
X109402623Y-72771500D01*
X123639177Y-72771500D01*
X123695678Y-72792065D01*
X123725742Y-72844136D01*
X123715301Y-72903350D01*
X123707125Y-72915163D01*
X123578973Y-73071316D01*
X123533082Y-73157172D01*
X123500290Y-73218523D01*
X123493067Y-73232036D01*
X123448296Y-73272171D01*
X123415546Y-73278500D01*
X95073857Y-73278500D01*
X95017356Y-73257935D01*
X95001517Y-73240533D01*
X94986327Y-73218526D01*
X94917072Y-73157172D01*
X94866191Y-73112095D01*
X94866189Y-73112094D01*
X94866188Y-73112093D01*
X94788495Y-73071317D01*
X94724080Y-73037509D01*
X94724077Y-73037508D01*
X94670190Y-73024226D01*
X94568248Y-72999100D01*
X94407752Y-72999100D01*
X94330936Y-73018033D01*
X94251922Y-73037508D01*
X94251920Y-73037508D01*
X94251920Y-73037509D01*
X94204549Y-73062371D01*
X94109811Y-73112093D01*
X94109806Y-73112097D01*
X93989673Y-73218526D01*
X93898503Y-73350608D01*
X93898503Y-73350609D01*
X93856944Y-73460194D01*
X93841592Y-73500675D01*
X93841591Y-73500677D01*
X93841591Y-73500680D01*
X93823687Y-73648130D01*
X93822246Y-73660000D01*
X75311500Y-73660000D01*
X75311500Y-70505068D01*
X79355500Y-70505068D01*
X79368426Y-70570053D01*
X79370266Y-70579301D01*
X79426516Y-70663484D01*
X79454705Y-70682319D01*
X79510698Y-70719734D01*
X79521261Y-70721835D01*
X79584933Y-70734500D01*
X82135066Y-70734499D01*
X82135068Y-70734499D01*
X82153561Y-70730820D01*
X82209301Y-70719734D01*
X82293484Y-70663484D01*
X82349734Y-70579301D01*
X82364500Y-70505068D01*
X90355500Y-70505068D01*
X90368426Y-70570053D01*
X90370266Y-70579301D01*
X90426516Y-70663484D01*
X90454705Y-70682319D01*
X90510698Y-70719734D01*
X90521261Y-70721835D01*
X90584933Y-70734500D01*
X93135066Y-70734499D01*
X93135068Y-70734499D01*
X93153561Y-70730820D01*
X93209301Y-70719734D01*
X93293484Y-70663484D01*
X93349734Y-70579301D01*
X93364500Y-70505067D01*
X93364500Y-70485000D01*
X104935768Y-70485000D01*
X104954655Y-70688825D01*
X104997812Y-70840502D01*
X105010672Y-70885701D01*
X105101912Y-71068935D01*
X105225268Y-71232285D01*
X105309021Y-71308636D01*
X105376535Y-71370184D01*
X105376544Y-71370190D01*
X105480087Y-71434301D01*
X105550573Y-71477944D01*
X105741444Y-71551888D01*
X105741452Y-71551889D01*
X105741454Y-71551890D01*
X105863661Y-71574734D01*
X105942653Y-71589500D01*
X105942654Y-71589500D01*
X106147346Y-71589500D01*
X106147347Y-71589500D01*
X106348556Y-71551888D01*
X106539427Y-71477944D01*
X106713462Y-71370186D01*
X106864732Y-71232285D01*
X106988088Y-71068935D01*
X107079328Y-70885701D01*
X107135345Y-70688821D01*
X107154232Y-70485000D01*
X107135345Y-70281179D01*
X107079328Y-70084299D01*
X106988088Y-69901065D01*
X106864732Y-69737715D01*
X106751137Y-69634159D01*
X106713464Y-69599815D01*
X106713455Y-69599809D01*
X106539431Y-69492058D01*
X106539428Y-69492056D01*
X106539427Y-69492056D01*
X106539417Y-69492052D01*
X106348559Y-69418113D01*
X106348557Y-69418112D01*
X106348556Y-69418112D01*
X106348554Y-69418111D01*
X106348545Y-69418109D01*
X106147351Y-69380500D01*
X106147347Y-69380500D01*
X105942653Y-69380500D01*
X105942648Y-69380500D01*
X105741454Y-69418109D01*
X105741440Y-69418113D01*
X105550582Y-69492052D01*
X105550568Y-69492058D01*
X105376544Y-69599809D01*
X105376535Y-69599815D01*
X105225269Y-69737714D01*
X105225265Y-69737718D01*
X105101914Y-69901061D01*
X105010672Y-70084299D01*
X105010670Y-70084305D01*
X104954655Y-70281174D01*
X104935768Y-70485000D01*
X93364500Y-70485000D01*
X93364499Y-67954934D01*
X93364499Y-67954933D01*
X93364499Y-67954931D01*
X93362523Y-67945000D01*
X104935768Y-67945000D01*
X104954655Y-68148825D01*
X105010501Y-68345099D01*
X105010672Y-68345701D01*
X105101912Y-68528935D01*
X105101913Y-68528936D01*
X105101914Y-68528938D01*
X105216361Y-68680490D01*
X105225268Y-68692285D01*
X105309021Y-68768636D01*
X105376535Y-68830184D01*
X105376538Y-68830186D01*
X105550573Y-68937944D01*
X105741444Y-69011888D01*
X105741452Y-69011889D01*
X105741454Y-69011890D01*
X105875583Y-69036962D01*
X105942653Y-69049500D01*
X105942654Y-69049500D01*
X106147346Y-69049500D01*
X106147347Y-69049500D01*
X106348556Y-69011888D01*
X106539427Y-68937944D01*
X106713462Y-68830186D01*
X106864732Y-68692285D01*
X106988088Y-68528935D01*
X107079328Y-68345701D01*
X107135345Y-68148821D01*
X107154232Y-67945000D01*
X107135345Y-67741179D01*
X107135085Y-67740266D01*
X107079499Y-67544901D01*
X107079328Y-67544299D01*
X106988088Y-67361065D01*
X106864732Y-67197715D01*
X106759424Y-67101714D01*
X106713464Y-67059815D01*
X106713455Y-67059809D01*
X106539431Y-66952058D01*
X106539428Y-66952056D01*
X106539427Y-66952056D01*
X106348556Y-66878112D01*
X106348554Y-66878111D01*
X106348545Y-66878109D01*
X106147351Y-66840500D01*
X106147347Y-66840500D01*
X105942653Y-66840500D01*
X105942648Y-66840500D01*
X105741454Y-66878109D01*
X105741440Y-66878113D01*
X105550582Y-66952052D01*
X105550568Y-66952058D01*
X105376544Y-67059809D01*
X105376535Y-67059815D01*
X105225269Y-67197714D01*
X105225265Y-67197718D01*
X105101914Y-67361061D01*
X105010672Y-67544299D01*
X105010670Y-67544305D01*
X104954655Y-67741174D01*
X104935768Y-67945000D01*
X93362523Y-67945000D01*
X93358980Y-67927190D01*
X93349734Y-67880699D01*
X93293484Y-67796516D01*
X93293098Y-67796258D01*
X93209301Y-67740265D01*
X93156192Y-67729702D01*
X93135067Y-67725500D01*
X93135065Y-67725500D01*
X90584931Y-67725500D01*
X90510699Y-67740266D01*
X90426517Y-67796515D01*
X90426514Y-67796518D01*
X90370265Y-67880698D01*
X90357601Y-67944370D01*
X90355501Y-67954931D01*
X90355500Y-67954934D01*
X90355500Y-70505068D01*
X82364500Y-70505068D01*
X82364500Y-70505067D01*
X82364499Y-67954934D01*
X82364499Y-67954933D01*
X82364499Y-67954931D01*
X82358980Y-67927190D01*
X82349734Y-67880699D01*
X82293484Y-67796516D01*
X82293098Y-67796258D01*
X82209301Y-67740265D01*
X82156192Y-67729702D01*
X82135067Y-67725500D01*
X82135065Y-67725500D01*
X79584931Y-67725500D01*
X79510699Y-67740266D01*
X79426517Y-67796515D01*
X79426514Y-67796518D01*
X79370265Y-67880698D01*
X79357601Y-67944370D01*
X79355501Y-67954931D01*
X79355500Y-67954934D01*
X79355500Y-70505068D01*
X75311500Y-70505068D01*
X75311500Y-60579000D01*
X82265246Y-60579000D01*
X82281316Y-60711350D01*
X82284592Y-60738325D01*
X82300705Y-60780812D01*
X82341503Y-60888390D01*
X82341503Y-60888391D01*
X82418474Y-60999902D01*
X82432676Y-61020477D01*
X82552809Y-61126905D01*
X82694920Y-61201491D01*
X82721519Y-61208047D01*
X82771457Y-61241534D01*
X82788186Y-61299286D01*
X82763879Y-61354281D01*
X82756247Y-61361339D01*
X82610756Y-61480740D01*
X82610746Y-61480750D01*
X82478973Y-61641316D01*
X82381052Y-61824513D01*
X82320759Y-62023275D01*
X82320758Y-62023280D01*
X82320758Y-62023282D01*
X82300398Y-62230000D01*
X82318046Y-62409187D01*
X82320759Y-62436724D01*
X82381052Y-62635486D01*
X82381054Y-62635491D01*
X82381055Y-62635492D01*
X82478973Y-62818683D01*
X82610748Y-62979252D01*
X82771317Y-63111027D01*
X82954508Y-63208945D01*
X82954510Y-63208945D01*
X82954513Y-63208947D01*
X83153275Y-63269240D01*
X83153282Y-63269242D01*
X83360000Y-63289602D01*
X83566718Y-63269242D01*
X83741109Y-63216341D01*
X83801144Y-63219619D01*
X83828778Y-63238301D01*
X85467722Y-64877244D01*
X85467722Y-64877245D01*
X85538749Y-64948273D01*
X85538751Y-64948274D01*
X85538753Y-64948276D01*
X85625746Y-64998501D01*
X85625748Y-64998501D01*
X85625749Y-64998502D01*
X85722775Y-65024500D01*
X123789509Y-65024500D01*
X123846010Y-65045065D01*
X123876074Y-65097136D01*
X123865633Y-65156350D01*
X123845273Y-65180346D01*
X123827730Y-65194744D01*
X123710750Y-65290746D01*
X123710746Y-65290750D01*
X123578973Y-65451316D01*
X123530882Y-65541288D01*
X123500290Y-65598523D01*
X123493067Y-65612036D01*
X123448296Y-65652171D01*
X123415546Y-65658500D01*
X99772857Y-65658500D01*
X99716356Y-65637935D01*
X99700517Y-65620533D01*
X99685327Y-65598526D01*
X99565193Y-65492097D01*
X99565188Y-65492093D01*
X99487495Y-65451317D01*
X99423080Y-65417509D01*
X99423077Y-65417508D01*
X99369190Y-65404226D01*
X99267248Y-65379100D01*
X99106752Y-65379100D01*
X99029936Y-65398033D01*
X98950922Y-65417508D01*
X98950920Y-65417508D01*
X98950920Y-65417509D01*
X98903549Y-65442371D01*
X98808811Y-65492093D01*
X98808806Y-65492097D01*
X98688673Y-65598526D01*
X98597503Y-65730608D01*
X98597503Y-65730609D01*
X98545944Y-65866562D01*
X98540592Y-65880675D01*
X98540591Y-65880677D01*
X98540591Y-65880680D01*
X98527640Y-65987339D01*
X98521246Y-66040000D01*
X98540592Y-66199325D01*
X98540594Y-66199329D01*
X98597503Y-66349390D01*
X98597503Y-66349391D01*
X98679684Y-66468450D01*
X98688676Y-66481477D01*
X98808809Y-66587905D01*
X98950920Y-66662491D01*
X99106752Y-66700900D01*
X99106754Y-66700900D01*
X99267245Y-66700900D01*
X99267248Y-66700900D01*
X99423080Y-66662491D01*
X99565191Y-66587905D01*
X99685324Y-66481477D01*
X99694316Y-66468450D01*
X99700517Y-66459467D01*
X99749538Y-66424650D01*
X99772857Y-66421500D01*
X123415546Y-66421500D01*
X123472047Y-66442065D01*
X123493065Y-66467962D01*
X123578973Y-66628683D01*
X123710748Y-66789252D01*
X123871317Y-66921027D01*
X124054508Y-67018945D01*
X124054510Y-67018945D01*
X124054513Y-67018947D01*
X124189239Y-67059815D01*
X124253282Y-67079242D01*
X124460000Y-67099602D01*
X124666718Y-67079242D01*
X124768718Y-67048301D01*
X124865486Y-67018947D01*
X124865486Y-67018946D01*
X124865492Y-67018945D01*
X125048683Y-66921027D01*
X125209252Y-66789252D01*
X125341027Y-66628683D01*
X125438945Y-66445492D01*
X125499242Y-66246718D01*
X125519602Y-66040000D01*
X125499242Y-65833282D01*
X125468097Y-65730609D01*
X125438947Y-65634513D01*
X125438945Y-65634510D01*
X125438945Y-65634508D01*
X125341027Y-65451317D01*
X125209252Y-65290748D01*
X125074727Y-65180347D01*
X125044098Y-65128607D01*
X125053892Y-65069283D01*
X125099528Y-65030134D01*
X125130491Y-65024500D01*
X125408567Y-65024500D01*
X125465068Y-65045065D01*
X125470722Y-65050245D01*
X125991698Y-65571221D01*
X126017109Y-65625715D01*
X126013658Y-65658892D01*
X125960759Y-65833275D01*
X125940398Y-66040000D01*
X125960759Y-66246724D01*
X126021052Y-66445486D01*
X126021054Y-66445491D01*
X126021055Y-66445492D01*
X126118973Y-66628683D01*
X126250748Y-66789252D01*
X126411317Y-66921027D01*
X126594508Y-67018945D01*
X126594510Y-67018945D01*
X126594513Y-67018947D01*
X126729239Y-67059815D01*
X126793282Y-67079242D01*
X127000000Y-67099602D01*
X127206718Y-67079242D01*
X127308718Y-67048301D01*
X127405486Y-67018947D01*
X127405486Y-67018946D01*
X127405492Y-67018945D01*
X127588683Y-66921027D01*
X127749252Y-66789252D01*
X127881027Y-66628683D01*
X127978945Y-66445492D01*
X128039242Y-66246718D01*
X128059602Y-66040000D01*
X128039242Y-65833282D01*
X128008097Y-65730609D01*
X127978947Y-65634513D01*
X127978945Y-65634510D01*
X127978945Y-65634508D01*
X127881027Y-65451317D01*
X127749252Y-65290748D01*
X127588683Y-65158973D01*
X127405492Y-65061055D01*
X127405491Y-65061054D01*
X127405486Y-65061052D01*
X127206724Y-65000759D01*
X127206719Y-65000758D01*
X127206718Y-65000758D01*
X127000000Y-64980398D01*
X126793282Y-65000758D01*
X126793280Y-65000758D01*
X126793275Y-65000759D01*
X126618892Y-65053658D01*
X126558854Y-65050380D01*
X126531221Y-65031698D01*
X125912078Y-64412555D01*
X125886667Y-64358061D01*
X125902230Y-64299983D01*
X125951483Y-64265495D01*
X125974233Y-64262500D01*
X127685224Y-64262500D01*
X127685225Y-64262500D01*
X127782254Y-64236501D01*
X127869247Y-64186276D01*
X127940276Y-64115247D01*
X130053278Y-62002245D01*
X130107772Y-61976834D01*
X130115433Y-61976500D01*
X136285769Y-61976500D01*
X136342270Y-61997065D01*
X136372334Y-62049136D01*
X136361893Y-62108350D01*
X136358109Y-62114333D01*
X136316503Y-62174609D01*
X136273724Y-62287411D01*
X136259592Y-62324675D01*
X136259591Y-62324677D01*
X136259591Y-62324680D01*
X136240246Y-62484000D01*
X136257588Y-62626826D01*
X136259592Y-62643325D01*
X136259594Y-62643329D01*
X136316503Y-62793390D01*
X136316503Y-62793391D01*
X136407673Y-62925473D01*
X136407676Y-62925477D01*
X136527809Y-63031905D01*
X136527811Y-63031906D01*
X136555366Y-63046368D01*
X136595838Y-63090835D01*
X136598260Y-63150913D01*
X136561497Y-63198492D01*
X136514517Y-63212100D01*
X135580484Y-63212100D01*
X135523983Y-63191535D01*
X135498296Y-63155369D01*
X135463496Y-63063609D01*
X135463496Y-63063608D01*
X135372326Y-62931526D01*
X135372324Y-62931523D01*
X135252191Y-62825095D01*
X135252189Y-62825094D01*
X135252188Y-62825093D01*
X135191782Y-62793390D01*
X135110080Y-62750509D01*
X135110077Y-62750508D01*
X135051819Y-62736149D01*
X134954248Y-62712100D01*
X134793752Y-62712100D01*
X134716936Y-62731033D01*
X134637922Y-62750508D01*
X134637920Y-62750508D01*
X134637920Y-62750509D01*
X134604733Y-62767927D01*
X134495811Y-62825093D01*
X134495806Y-62825097D01*
X134375673Y-62931526D01*
X134284503Y-63063608D01*
X134284503Y-63063609D01*
X134227594Y-63213670D01*
X134227591Y-63213679D01*
X134222216Y-63257944D01*
X134194989Y-63311554D01*
X134139673Y-63335120D01*
X134094108Y-63325179D01*
X134068148Y-63311554D01*
X133967080Y-63258509D01*
X133967077Y-63258508D01*
X133913190Y-63245226D01*
X133811248Y-63220100D01*
X133650752Y-63220100D01*
X133576907Y-63238301D01*
X133494922Y-63258508D01*
X133494920Y-63258508D01*
X133494920Y-63258509D01*
X133447549Y-63283371D01*
X133352811Y-63333093D01*
X133352806Y-63333097D01*
X133307765Y-63373000D01*
X133255260Y-63419516D01*
X133232673Y-63439526D01*
X133141503Y-63571608D01*
X133141503Y-63571609D01*
X133095332Y-63693355D01*
X133084592Y-63721675D01*
X133084591Y-63721677D01*
X133084591Y-63721680D01*
X133065246Y-63881000D01*
X133084592Y-64040325D01*
X133084594Y-64040329D01*
X133141503Y-64190390D01*
X133141503Y-64190391D01*
X133232673Y-64322473D01*
X133232676Y-64322477D01*
X133352809Y-64428905D01*
X133494920Y-64503491D01*
X133650752Y-64541900D01*
X133650754Y-64541900D01*
X133815968Y-64541900D01*
X133872469Y-64562465D01*
X133878122Y-64567645D01*
X133930649Y-64620171D01*
X133930655Y-64620178D01*
X134004749Y-64694273D01*
X134004751Y-64694274D01*
X134004753Y-64694276D01*
X134091746Y-64744501D01*
X134091748Y-64744501D01*
X134091749Y-64744502D01*
X134188775Y-64770500D01*
X134289225Y-64770500D01*
X136697454Y-64770500D01*
X136753955Y-64791065D01*
X136784019Y-64843136D01*
X136773578Y-64902350D01*
X136729207Y-64940364D01*
X136631337Y-64978279D01*
X136631323Y-64978285D01*
X136445239Y-65093503D01*
X136445237Y-65093504D01*
X136283492Y-65240956D01*
X136283488Y-65240960D01*
X136151592Y-65415618D01*
X136054030Y-65611549D01*
X135994135Y-65822057D01*
X135994135Y-65822058D01*
X135982178Y-65951100D01*
X136769710Y-65951100D01*
X136760000Y-65987339D01*
X136760000Y-66092661D01*
X136769710Y-66128900D01*
X135982178Y-66128900D01*
X135994135Y-66257941D01*
X135994135Y-66257942D01*
X136054030Y-66468450D01*
X136151592Y-66664381D01*
X136283488Y-66839039D01*
X136283492Y-66839043D01*
X136445237Y-66986495D01*
X136445239Y-66986496D01*
X136631323Y-67101714D01*
X136631337Y-67101720D01*
X136835415Y-67180781D01*
X136835429Y-67180785D01*
X137050559Y-67220999D01*
X137050565Y-67221000D01*
X137071099Y-67221000D01*
X137071100Y-67220999D01*
X137071100Y-66430289D01*
X137107339Y-66440000D01*
X137212661Y-66440000D01*
X137248900Y-66430289D01*
X137248900Y-67220999D01*
X137248901Y-67221000D01*
X137269435Y-67221000D01*
X137269440Y-67220999D01*
X137484570Y-67180785D01*
X137484584Y-67180781D01*
X137688662Y-67101720D01*
X137688676Y-67101714D01*
X137874760Y-66986496D01*
X137874762Y-66986495D01*
X138036507Y-66839043D01*
X138036511Y-66839039D01*
X138168407Y-66664381D01*
X138265969Y-66468450D01*
X138325864Y-66257942D01*
X138325864Y-66257941D01*
X138337822Y-66128900D01*
X137550290Y-66128900D01*
X137560000Y-66092661D01*
X137560000Y-66040000D01*
X138640398Y-66040000D01*
X138660759Y-66246724D01*
X138721052Y-66445486D01*
X138721054Y-66445491D01*
X138721055Y-66445492D01*
X138818973Y-66628683D01*
X138950748Y-66789252D01*
X139111317Y-66921027D01*
X139294508Y-67018945D01*
X139294510Y-67018945D01*
X139294513Y-67018947D01*
X139429239Y-67059815D01*
X139493282Y-67079242D01*
X139700000Y-67099602D01*
X139906718Y-67079242D01*
X140008718Y-67048301D01*
X140105486Y-67018947D01*
X140105486Y-67018946D01*
X140105492Y-67018945D01*
X140288683Y-66921027D01*
X140449252Y-66789252D01*
X140581027Y-66628683D01*
X140678945Y-66445492D01*
X140739242Y-66246718D01*
X140759602Y-66040000D01*
X141180398Y-66040000D01*
X141200759Y-66246724D01*
X141261052Y-66445486D01*
X141261054Y-66445491D01*
X141261055Y-66445492D01*
X141358973Y-66628683D01*
X141490748Y-66789252D01*
X141651317Y-66921027D01*
X141834508Y-67018945D01*
X141834510Y-67018945D01*
X141834513Y-67018947D01*
X141969239Y-67059815D01*
X142033282Y-67079242D01*
X142240000Y-67099602D01*
X142446718Y-67079242D01*
X142548718Y-67048301D01*
X142645486Y-67018947D01*
X142645486Y-67018946D01*
X142645492Y-67018945D01*
X142828683Y-66921027D01*
X142989252Y-66789252D01*
X143121027Y-66628683D01*
X143218945Y-66445492D01*
X143279242Y-66246718D01*
X143299602Y-66040000D01*
X143279242Y-65833282D01*
X143248097Y-65730609D01*
X143218947Y-65634513D01*
X143218945Y-65634510D01*
X143218945Y-65634508D01*
X143121027Y-65451317D01*
X142989252Y-65290748D01*
X142828683Y-65158973D01*
X142645492Y-65061055D01*
X142645491Y-65061054D01*
X142645486Y-65061052D01*
X142446724Y-65000759D01*
X142446719Y-65000758D01*
X142446718Y-65000758D01*
X142240000Y-64980398D01*
X142033282Y-65000758D01*
X142033280Y-65000758D01*
X142033275Y-65000759D01*
X141834513Y-65061052D01*
X141651316Y-65158973D01*
X141490750Y-65290746D01*
X141490746Y-65290750D01*
X141358973Y-65451316D01*
X141261052Y-65634513D01*
X141200759Y-65833275D01*
X141180398Y-66040000D01*
X140759602Y-66040000D01*
X140739242Y-65833282D01*
X140708097Y-65730609D01*
X140678947Y-65634513D01*
X140678945Y-65634510D01*
X140678945Y-65634508D01*
X140581027Y-65451317D01*
X140449252Y-65290748D01*
X140288683Y-65158973D01*
X140105492Y-65061055D01*
X140105491Y-65061054D01*
X140105486Y-65061052D01*
X139906724Y-65000759D01*
X139906719Y-65000758D01*
X139906718Y-65000758D01*
X139700000Y-64980398D01*
X139493282Y-65000758D01*
X139493280Y-65000758D01*
X139493275Y-65000759D01*
X139294513Y-65061052D01*
X139111316Y-65158973D01*
X138950750Y-65290746D01*
X138950746Y-65290750D01*
X138818973Y-65451316D01*
X138721052Y-65634513D01*
X138660759Y-65833275D01*
X138640398Y-66040000D01*
X137560000Y-66040000D01*
X137560000Y-65987339D01*
X137550290Y-65951100D01*
X138337821Y-65951100D01*
X138325864Y-65822058D01*
X138325864Y-65822057D01*
X138265969Y-65611549D01*
X138168407Y-65415618D01*
X138036511Y-65240960D01*
X138036507Y-65240956D01*
X137874762Y-65093504D01*
X137874760Y-65093503D01*
X137688676Y-64978285D01*
X137688662Y-64978279D01*
X137590793Y-64940364D01*
X137545536Y-64900778D01*
X137536313Y-64841362D01*
X137567440Y-64789919D01*
X137622546Y-64770500D01*
X143823567Y-64770500D01*
X143880068Y-64791065D01*
X143885722Y-64796245D01*
X144154119Y-65064642D01*
X144179530Y-65119136D01*
X144163967Y-65177214D01*
X144147728Y-65194744D01*
X144030751Y-65290745D01*
X144030746Y-65290750D01*
X143898973Y-65451316D01*
X143801052Y-65634513D01*
X143740759Y-65833275D01*
X143720398Y-66040000D01*
X143740759Y-66246724D01*
X143801052Y-66445486D01*
X143801054Y-66445491D01*
X143801055Y-66445492D01*
X143898973Y-66628683D01*
X144030748Y-66789252D01*
X144191317Y-66921027D01*
X144374508Y-67018945D01*
X144374510Y-67018945D01*
X144374513Y-67018947D01*
X144509239Y-67059815D01*
X144573282Y-67079242D01*
X144780000Y-67099602D01*
X144986718Y-67079242D01*
X145088718Y-67048301D01*
X145185486Y-67018947D01*
X145185486Y-67018946D01*
X145185492Y-67018945D01*
X145368683Y-66921027D01*
X145529252Y-66789252D01*
X145661027Y-66628683D01*
X145758945Y-66445492D01*
X145819242Y-66246718D01*
X145839602Y-66040000D01*
X145819242Y-65833282D01*
X145788097Y-65730609D01*
X145758947Y-65634513D01*
X145758945Y-65634510D01*
X145758945Y-65634508D01*
X145661027Y-65451317D01*
X145529252Y-65290748D01*
X145368683Y-65158973D01*
X145185492Y-65061055D01*
X145185490Y-65061054D01*
X145181684Y-65059020D01*
X145182400Y-65057678D01*
X145142246Y-65020876D01*
X145136887Y-65007091D01*
X145135504Y-65003753D01*
X145135503Y-65003751D01*
X145135502Y-65003747D01*
X145085276Y-64916753D01*
X144293678Y-64125155D01*
X144268267Y-64070661D01*
X144283830Y-64012583D01*
X144333083Y-63978095D01*
X144355833Y-63975100D01*
X144679167Y-63975100D01*
X144735668Y-63995665D01*
X144741322Y-64000845D01*
X146311698Y-65571221D01*
X146337109Y-65625715D01*
X146333658Y-65658892D01*
X146280759Y-65833275D01*
X146260398Y-66040000D01*
X146280759Y-66246724D01*
X146341052Y-66445486D01*
X146341054Y-66445491D01*
X146341055Y-66445492D01*
X146438973Y-66628683D01*
X146570748Y-66789252D01*
X146731317Y-66921027D01*
X146914508Y-67018945D01*
X146914510Y-67018945D01*
X146914513Y-67018947D01*
X147049239Y-67059815D01*
X147113282Y-67079242D01*
X147320000Y-67099602D01*
X147526718Y-67079242D01*
X147628718Y-67048301D01*
X147725486Y-67018947D01*
X147725486Y-67018946D01*
X147725492Y-67018945D01*
X147908683Y-66921027D01*
X148069252Y-66789252D01*
X148201027Y-66628683D01*
X148298945Y-66445492D01*
X148359242Y-66246718D01*
X148379602Y-66040000D01*
X148359242Y-65833282D01*
X148328097Y-65730609D01*
X148298947Y-65634513D01*
X148298945Y-65634510D01*
X148298945Y-65634508D01*
X148201027Y-65451317D01*
X148069252Y-65290748D01*
X147908683Y-65158973D01*
X147725492Y-65061055D01*
X147725491Y-65061054D01*
X147725486Y-65061052D01*
X147526724Y-65000759D01*
X147526719Y-65000758D01*
X147526718Y-65000758D01*
X147320000Y-64980398D01*
X147113282Y-65000758D01*
X147113280Y-65000758D01*
X147113275Y-65000759D01*
X146938892Y-65053658D01*
X146878854Y-65050380D01*
X146851221Y-65031698D01*
X145512878Y-63693355D01*
X145487467Y-63638861D01*
X145503030Y-63580783D01*
X145552283Y-63546295D01*
X145575033Y-63543300D01*
X146787367Y-63543300D01*
X146843868Y-63563865D01*
X146849522Y-63569045D01*
X148851698Y-65571220D01*
X148877109Y-65625714D01*
X148873658Y-65658891D01*
X148820759Y-65833275D01*
X148800398Y-66040000D01*
X148820759Y-66246724D01*
X148881052Y-66445486D01*
X148881054Y-66445491D01*
X148881055Y-66445492D01*
X148978973Y-66628683D01*
X149110748Y-66789252D01*
X149271317Y-66921027D01*
X149454508Y-67018945D01*
X149454510Y-67018945D01*
X149454513Y-67018947D01*
X149589239Y-67059815D01*
X149653282Y-67079242D01*
X149860000Y-67099602D01*
X150066718Y-67079242D01*
X150168718Y-67048301D01*
X150265486Y-67018947D01*
X150265486Y-67018946D01*
X150265492Y-67018945D01*
X150448683Y-66921027D01*
X150609252Y-66789252D01*
X150741027Y-66628683D01*
X150838945Y-66445492D01*
X150899242Y-66246718D01*
X150919602Y-66040000D01*
X151340398Y-66040000D01*
X151360759Y-66246724D01*
X151421052Y-66445486D01*
X151421054Y-66445491D01*
X151421055Y-66445492D01*
X151518973Y-66628683D01*
X151650748Y-66789252D01*
X151811317Y-66921027D01*
X151994508Y-67018945D01*
X151994510Y-67018945D01*
X151994513Y-67018947D01*
X152129239Y-67059815D01*
X152193282Y-67079242D01*
X152400000Y-67099602D01*
X152606718Y-67079242D01*
X152708718Y-67048301D01*
X152805486Y-67018947D01*
X152805486Y-67018946D01*
X152805492Y-67018945D01*
X152988683Y-66921027D01*
X153149252Y-66789252D01*
X153281027Y-66628683D01*
X153378945Y-66445492D01*
X153439242Y-66246718D01*
X153459602Y-66040000D01*
X153880398Y-66040000D01*
X153900759Y-66246724D01*
X153961052Y-66445486D01*
X153961054Y-66445491D01*
X153961055Y-66445492D01*
X154058973Y-66628683D01*
X154190748Y-66789252D01*
X154351317Y-66921027D01*
X154534508Y-67018945D01*
X154534510Y-67018945D01*
X154534513Y-67018947D01*
X154669239Y-67059815D01*
X154733282Y-67079242D01*
X154940000Y-67099602D01*
X155146718Y-67079242D01*
X155248718Y-67048301D01*
X155345486Y-67018947D01*
X155345486Y-67018946D01*
X155345492Y-67018945D01*
X155528683Y-66921027D01*
X155689252Y-66789252D01*
X155821027Y-66628683D01*
X155918945Y-66445492D01*
X155979242Y-66246718D01*
X155999602Y-66040000D01*
X156420398Y-66040000D01*
X156440759Y-66246724D01*
X156501052Y-66445486D01*
X156501054Y-66445491D01*
X156501055Y-66445492D01*
X156598973Y-66628683D01*
X156730748Y-66789252D01*
X156891317Y-66921027D01*
X157074508Y-67018945D01*
X157074510Y-67018945D01*
X157074513Y-67018947D01*
X157209239Y-67059815D01*
X157273282Y-67079242D01*
X157480000Y-67099602D01*
X157686718Y-67079242D01*
X157788718Y-67048301D01*
X157885486Y-67018947D01*
X157885486Y-67018946D01*
X157885492Y-67018945D01*
X158068683Y-66921027D01*
X158229252Y-66789252D01*
X158361027Y-66628683D01*
X158458945Y-66445492D01*
X158519242Y-66246718D01*
X158539602Y-66040000D01*
X158519242Y-65833282D01*
X158488097Y-65730609D01*
X158458947Y-65634513D01*
X158458945Y-65634510D01*
X158458945Y-65634508D01*
X158361027Y-65451317D01*
X158229252Y-65290748D01*
X158068683Y-65158973D01*
X157885492Y-65061055D01*
X157885491Y-65061054D01*
X157885486Y-65061052D01*
X157686724Y-65000759D01*
X157686719Y-65000758D01*
X157686718Y-65000758D01*
X157480000Y-64980398D01*
X157273282Y-65000758D01*
X157273280Y-65000758D01*
X157273275Y-65000759D01*
X157074513Y-65061052D01*
X156891316Y-65158973D01*
X156730750Y-65290746D01*
X156730746Y-65290750D01*
X156598973Y-65451316D01*
X156501052Y-65634513D01*
X156440759Y-65833275D01*
X156420398Y-66040000D01*
X155999602Y-66040000D01*
X155979242Y-65833282D01*
X155948097Y-65730609D01*
X155918947Y-65634513D01*
X155918945Y-65634510D01*
X155918945Y-65634508D01*
X155821027Y-65451317D01*
X155689252Y-65290748D01*
X155528683Y-65158973D01*
X155345492Y-65061055D01*
X155345491Y-65061054D01*
X155345486Y-65061052D01*
X155146724Y-65000759D01*
X155146719Y-65000758D01*
X155146718Y-65000758D01*
X154940000Y-64980398D01*
X154733282Y-65000758D01*
X154733280Y-65000758D01*
X154733275Y-65000759D01*
X154534513Y-65061052D01*
X154351316Y-65158973D01*
X154190750Y-65290746D01*
X154190746Y-65290750D01*
X154058973Y-65451316D01*
X153961052Y-65634513D01*
X153900759Y-65833275D01*
X153880398Y-66040000D01*
X153459602Y-66040000D01*
X153439242Y-65833282D01*
X153408097Y-65730609D01*
X153378947Y-65634513D01*
X153378945Y-65634510D01*
X153378945Y-65634508D01*
X153281027Y-65451317D01*
X153149252Y-65290748D01*
X152988683Y-65158973D01*
X152805492Y-65061055D01*
X152805491Y-65061054D01*
X152805486Y-65061052D01*
X152606724Y-65000759D01*
X152606719Y-65000758D01*
X152606718Y-65000758D01*
X152400000Y-64980398D01*
X152193282Y-65000758D01*
X152193280Y-65000758D01*
X152193275Y-65000759D01*
X151994513Y-65061052D01*
X151811316Y-65158973D01*
X151650750Y-65290746D01*
X151650746Y-65290750D01*
X151518973Y-65451316D01*
X151421052Y-65634513D01*
X151360759Y-65833275D01*
X151340398Y-66040000D01*
X150919602Y-66040000D01*
X150899242Y-65833282D01*
X150868097Y-65730609D01*
X150838947Y-65634513D01*
X150838945Y-65634510D01*
X150838945Y-65634508D01*
X150741027Y-65451317D01*
X150609252Y-65290748D01*
X150448683Y-65158973D01*
X150265492Y-65061055D01*
X150265491Y-65061054D01*
X150265486Y-65061052D01*
X150066724Y-65000759D01*
X150066719Y-65000758D01*
X150066718Y-65000758D01*
X149860000Y-64980398D01*
X149653282Y-65000758D01*
X149653280Y-65000758D01*
X149653275Y-65000759D01*
X149478891Y-65053658D01*
X149418853Y-65050380D01*
X149391220Y-65031698D01*
X147216048Y-62856525D01*
X147216047Y-62856524D01*
X147180671Y-62836100D01*
X147180669Y-62836099D01*
X147180669Y-62836098D01*
X147129052Y-62806298D01*
X147032025Y-62780300D01*
X144673757Y-62780300D01*
X144617256Y-62759735D01*
X144587192Y-62707664D01*
X144591569Y-62661231D01*
X144610429Y-62611500D01*
X144638408Y-62537725D01*
X144657754Y-62378400D01*
X144638408Y-62219075D01*
X144591569Y-62095569D01*
X144590762Y-62035448D01*
X144628789Y-61988873D01*
X144673757Y-61976500D01*
X152628024Y-61976500D01*
X152628025Y-61976500D01*
X152725054Y-61950501D01*
X152812047Y-61900276D01*
X152883076Y-61829247D01*
X152883076Y-61829246D01*
X152964077Y-61748245D01*
X153018571Y-61722834D01*
X153026232Y-61722500D01*
X153191445Y-61722500D01*
X153191448Y-61722500D01*
X153347280Y-61684091D01*
X153489391Y-61609505D01*
X153609524Y-61503077D01*
X153700696Y-61370991D01*
X153757608Y-61220925D01*
X153776954Y-61061600D01*
X153757608Y-60902275D01*
X153700696Y-60752209D01*
X153676623Y-60717333D01*
X153661451Y-60659152D01*
X153687227Y-60604830D01*
X153741890Y-60579785D01*
X153748963Y-60579500D01*
X159434143Y-60579500D01*
X159490644Y-60600065D01*
X159506483Y-60617467D01*
X159521672Y-60639473D01*
X159521675Y-60639475D01*
X159521676Y-60639477D01*
X159641809Y-60745905D01*
X159783920Y-60820491D01*
X159939752Y-60858900D01*
X159939754Y-60858900D01*
X160100245Y-60858900D01*
X160100248Y-60858900D01*
X160256080Y-60820491D01*
X160398191Y-60745905D01*
X160518324Y-60639477D01*
X160609496Y-60507391D01*
X160645820Y-60411611D01*
X185589500Y-60411611D01*
X185590777Y-60419675D01*
X185616596Y-60582696D01*
X185669627Y-60745905D01*
X185670127Y-60747445D01*
X185741942Y-60888391D01*
X185748766Y-60901784D01*
X185748773Y-60901797D01*
X185850579Y-61041920D01*
X185850586Y-61041928D01*
X185973071Y-61164413D01*
X185973079Y-61164420D01*
X186113202Y-61266226D01*
X186113208Y-61266229D01*
X186113212Y-61266232D01*
X186267555Y-61344873D01*
X186432299Y-61398402D01*
X186432300Y-61398402D01*
X186432303Y-61398403D01*
X186551760Y-61417322D01*
X186603389Y-61425500D01*
X186603390Y-61425500D01*
X186776610Y-61425500D01*
X186776611Y-61425500D01*
X186912578Y-61403965D01*
X186947696Y-61398403D01*
X186947697Y-61398402D01*
X186947701Y-61398402D01*
X187112445Y-61344873D01*
X187266788Y-61266232D01*
X187266794Y-61266227D01*
X187266797Y-61266226D01*
X187406920Y-61164420D01*
X187406921Y-61164418D01*
X187406928Y-61164414D01*
X187529414Y-61041928D01*
X187544999Y-61020477D01*
X187631226Y-60901797D01*
X187631227Y-60901794D01*
X187631232Y-60901788D01*
X187709873Y-60747445D01*
X187763402Y-60582701D01*
X187780855Y-60472507D01*
X189519500Y-60472507D01*
X189558007Y-60764993D01*
X189558010Y-60765005D01*
X189632208Y-61041920D01*
X189634361Y-61049952D01*
X189677988Y-61155277D01*
X189747254Y-61322501D01*
X189747255Y-61322503D01*
X189747257Y-61322507D01*
X189894762Y-61577994D01*
X190074354Y-61812042D01*
X190282958Y-62020646D01*
X190517006Y-62200238D01*
X190772493Y-62347743D01*
X191045048Y-62460639D01*
X191330007Y-62536993D01*
X191550958Y-62566082D01*
X191622492Y-62575500D01*
X191622494Y-62575500D01*
X191917508Y-62575500D01*
X191989042Y-62566082D01*
X192209993Y-62536993D01*
X192494952Y-62460639D01*
X192767507Y-62347743D01*
X193022994Y-62200238D01*
X193257042Y-62020646D01*
X193465646Y-61812042D01*
X193645238Y-61577994D01*
X193792743Y-61322507D01*
X193905639Y-61049952D01*
X193981993Y-60764993D01*
X194020500Y-60472506D01*
X194020500Y-60411611D01*
X195749500Y-60411611D01*
X195750777Y-60419675D01*
X195776596Y-60582696D01*
X195829627Y-60745905D01*
X195830127Y-60747445D01*
X195901942Y-60888391D01*
X195908766Y-60901784D01*
X195908773Y-60901797D01*
X196010579Y-61041920D01*
X196010586Y-61041928D01*
X196133071Y-61164413D01*
X196133079Y-61164420D01*
X196273202Y-61266226D01*
X196273208Y-61266229D01*
X196273212Y-61266232D01*
X196427555Y-61344873D01*
X196592299Y-61398402D01*
X196592300Y-61398402D01*
X196592303Y-61398403D01*
X196711760Y-61417322D01*
X196763389Y-61425500D01*
X196763390Y-61425500D01*
X196936610Y-61425500D01*
X196936611Y-61425500D01*
X197072578Y-61403965D01*
X197107696Y-61398403D01*
X197107697Y-61398402D01*
X197107701Y-61398402D01*
X197272445Y-61344873D01*
X197426788Y-61266232D01*
X197426794Y-61266227D01*
X197426797Y-61266226D01*
X197566920Y-61164420D01*
X197566921Y-61164418D01*
X197566928Y-61164414D01*
X197689414Y-61041928D01*
X197704999Y-61020477D01*
X197791226Y-60901797D01*
X197791227Y-60901794D01*
X197791232Y-60901788D01*
X197869873Y-60747445D01*
X197923402Y-60582701D01*
X197950500Y-60411611D01*
X204639500Y-60411611D01*
X204640777Y-60419675D01*
X204666596Y-60582696D01*
X204719627Y-60745905D01*
X204720127Y-60747445D01*
X204791942Y-60888391D01*
X204798766Y-60901784D01*
X204798773Y-60901797D01*
X204900579Y-61041920D01*
X204900586Y-61041928D01*
X205023071Y-61164413D01*
X205023079Y-61164420D01*
X205163202Y-61266226D01*
X205163208Y-61266229D01*
X205163212Y-61266232D01*
X205317555Y-61344873D01*
X205482299Y-61398402D01*
X205482300Y-61398402D01*
X205482303Y-61398403D01*
X205601760Y-61417322D01*
X205653389Y-61425500D01*
X205653390Y-61425500D01*
X205826610Y-61425500D01*
X205826611Y-61425500D01*
X205962578Y-61403965D01*
X205997696Y-61398403D01*
X205997697Y-61398402D01*
X205997701Y-61398402D01*
X206162445Y-61344873D01*
X206316788Y-61266232D01*
X206316794Y-61266227D01*
X206316797Y-61266226D01*
X206456920Y-61164420D01*
X206456921Y-61164418D01*
X206456928Y-61164414D01*
X206579414Y-61041928D01*
X206594999Y-61020477D01*
X206681226Y-60901797D01*
X206681227Y-60901794D01*
X206681232Y-60901788D01*
X206759873Y-60747445D01*
X206813402Y-60582701D01*
X206830855Y-60472507D01*
X208569500Y-60472507D01*
X208608007Y-60764993D01*
X208608010Y-60765005D01*
X208682208Y-61041920D01*
X208684361Y-61049952D01*
X208727988Y-61155277D01*
X208797254Y-61322501D01*
X208797255Y-61322503D01*
X208797257Y-61322507D01*
X208944762Y-61577994D01*
X209124354Y-61812042D01*
X209332958Y-62020646D01*
X209567006Y-62200238D01*
X209822493Y-62347743D01*
X210095048Y-62460639D01*
X210380007Y-62536993D01*
X210600958Y-62566082D01*
X210672492Y-62575500D01*
X210672494Y-62575500D01*
X210967508Y-62575500D01*
X211039042Y-62566082D01*
X211259993Y-62536993D01*
X211544952Y-62460639D01*
X211817507Y-62347743D01*
X212072994Y-62200238D01*
X212307042Y-62020646D01*
X212515646Y-61812042D01*
X212695238Y-61577994D01*
X212842743Y-61322507D01*
X212955639Y-61049952D01*
X213031993Y-60764993D01*
X213070500Y-60472506D01*
X213070500Y-60411611D01*
X214799500Y-60411611D01*
X214800777Y-60419675D01*
X214826596Y-60582696D01*
X214879627Y-60745905D01*
X214880127Y-60747445D01*
X214951942Y-60888391D01*
X214958766Y-60901784D01*
X214958773Y-60901797D01*
X215060579Y-61041920D01*
X215060586Y-61041928D01*
X215183071Y-61164413D01*
X215183079Y-61164420D01*
X215323202Y-61266226D01*
X215323208Y-61266229D01*
X215323212Y-61266232D01*
X215477555Y-61344873D01*
X215642299Y-61398402D01*
X215642300Y-61398402D01*
X215642303Y-61398403D01*
X215761760Y-61417322D01*
X215813389Y-61425500D01*
X215813390Y-61425500D01*
X215986610Y-61425500D01*
X215986611Y-61425500D01*
X216122578Y-61403965D01*
X216157696Y-61398403D01*
X216157697Y-61398402D01*
X216157701Y-61398402D01*
X216322445Y-61344873D01*
X216476788Y-61266232D01*
X216476794Y-61266227D01*
X216476797Y-61266226D01*
X216616920Y-61164420D01*
X216616921Y-61164418D01*
X216616928Y-61164414D01*
X216739414Y-61041928D01*
X216754999Y-61020477D01*
X216841226Y-60901797D01*
X216841227Y-60901794D01*
X216841232Y-60901788D01*
X216919873Y-60747445D01*
X216973402Y-60582701D01*
X217000500Y-60411611D01*
X217000500Y-60238389D01*
X216984525Y-60137526D01*
X216973403Y-60067303D01*
X216967260Y-60048395D01*
X216919873Y-59902555D01*
X216841232Y-59748212D01*
X216841229Y-59748208D01*
X216841226Y-59748202D01*
X216739420Y-59608079D01*
X216739413Y-59608071D01*
X216616928Y-59485586D01*
X216616920Y-59485579D01*
X216476797Y-59383773D01*
X216476784Y-59383766D01*
X216459737Y-59375080D01*
X216322445Y-59305127D01*
X216322442Y-59305126D01*
X216322440Y-59305125D01*
X216157696Y-59251596D01*
X216006440Y-59227640D01*
X215986611Y-59224500D01*
X215813389Y-59224500D01*
X215795619Y-59227314D01*
X215642303Y-59251596D01*
X215477559Y-59305125D01*
X215323215Y-59383766D01*
X215323202Y-59383773D01*
X215183079Y-59485579D01*
X215183071Y-59485586D01*
X215060586Y-59608071D01*
X215060579Y-59608079D01*
X214958773Y-59748202D01*
X214958766Y-59748215D01*
X214934452Y-59795935D01*
X214884328Y-59894311D01*
X214880125Y-59902559D01*
X214826596Y-60067303D01*
X214805897Y-60198000D01*
X214799500Y-60238389D01*
X214799500Y-60411611D01*
X213070500Y-60411611D01*
X213070500Y-60177494D01*
X213031993Y-59885007D01*
X212955639Y-59600048D01*
X212842743Y-59327493D01*
X212695238Y-59072006D01*
X212515646Y-58837958D01*
X212307042Y-58629354D01*
X212072994Y-58449762D01*
X211817507Y-58302257D01*
X211817505Y-58302256D01*
X211817503Y-58302255D01*
X211817501Y-58302254D01*
X211690027Y-58249453D01*
X211544952Y-58189361D01*
X211544948Y-58189360D01*
X211544946Y-58189359D01*
X211260005Y-58113010D01*
X211259993Y-58113007D01*
X210967508Y-58074500D01*
X210967506Y-58074500D01*
X210672494Y-58074500D01*
X210672492Y-58074500D01*
X210380006Y-58113007D01*
X210379994Y-58113010D01*
X210095053Y-58189359D01*
X210095048Y-58189360D01*
X210095048Y-58189361D01*
X210052554Y-58206962D01*
X209822498Y-58302254D01*
X209822496Y-58302255D01*
X209567010Y-58449759D01*
X209567007Y-58449761D01*
X209332961Y-58629351D01*
X209124351Y-58837961D01*
X208944761Y-59072007D01*
X208944759Y-59072010D01*
X208797255Y-59327496D01*
X208797254Y-59327498D01*
X208684362Y-59600046D01*
X208684359Y-59600053D01*
X208608010Y-59884994D01*
X208608007Y-59885006D01*
X208569500Y-60177492D01*
X208569500Y-60472507D01*
X206830855Y-60472507D01*
X206840500Y-60411611D01*
X206840500Y-60238389D01*
X206824525Y-60137526D01*
X206813403Y-60067303D01*
X206807260Y-60048395D01*
X206759873Y-59902555D01*
X206681232Y-59748212D01*
X206681229Y-59748208D01*
X206681226Y-59748202D01*
X206579420Y-59608079D01*
X206579413Y-59608071D01*
X206456928Y-59485586D01*
X206456920Y-59485579D01*
X206316797Y-59383773D01*
X206316784Y-59383766D01*
X206299737Y-59375080D01*
X206162445Y-59305127D01*
X206162442Y-59305126D01*
X206162440Y-59305125D01*
X205997696Y-59251596D01*
X205846440Y-59227640D01*
X205826611Y-59224500D01*
X205653389Y-59224500D01*
X205635619Y-59227314D01*
X205482303Y-59251596D01*
X205317559Y-59305125D01*
X205163215Y-59383766D01*
X205163202Y-59383773D01*
X205023079Y-59485579D01*
X205023071Y-59485586D01*
X204900586Y-59608071D01*
X204900579Y-59608079D01*
X204798773Y-59748202D01*
X204798766Y-59748215D01*
X204774452Y-59795935D01*
X204724328Y-59894311D01*
X204720125Y-59902559D01*
X204666596Y-60067303D01*
X204645897Y-60198000D01*
X204639500Y-60238389D01*
X204639500Y-60411611D01*
X197950500Y-60411611D01*
X197950500Y-60238389D01*
X197934525Y-60137526D01*
X197923403Y-60067303D01*
X197917260Y-60048395D01*
X197869873Y-59902555D01*
X197791232Y-59748212D01*
X197791229Y-59748208D01*
X197791226Y-59748202D01*
X197689420Y-59608079D01*
X197689413Y-59608071D01*
X197566928Y-59485586D01*
X197566920Y-59485579D01*
X197426797Y-59383773D01*
X197426784Y-59383766D01*
X197409737Y-59375080D01*
X197272445Y-59305127D01*
X197272442Y-59305126D01*
X197272440Y-59305125D01*
X197107696Y-59251596D01*
X196956440Y-59227640D01*
X196936611Y-59224500D01*
X196763389Y-59224500D01*
X196745619Y-59227314D01*
X196592303Y-59251596D01*
X196427559Y-59305125D01*
X196273215Y-59383766D01*
X196273202Y-59383773D01*
X196133079Y-59485579D01*
X196133071Y-59485586D01*
X196010586Y-59608071D01*
X196010579Y-59608079D01*
X195908773Y-59748202D01*
X195908766Y-59748215D01*
X195884452Y-59795935D01*
X195834328Y-59894311D01*
X195830125Y-59902559D01*
X195776596Y-60067303D01*
X195755897Y-60198000D01*
X195749500Y-60238389D01*
X195749500Y-60411611D01*
X194020500Y-60411611D01*
X194020500Y-60177494D01*
X193981993Y-59885007D01*
X193905639Y-59600048D01*
X193792743Y-59327493D01*
X193645238Y-59072006D01*
X193465646Y-58837958D01*
X193257042Y-58629354D01*
X193022994Y-58449762D01*
X192767507Y-58302257D01*
X192767505Y-58302256D01*
X192767503Y-58302255D01*
X192767501Y-58302254D01*
X192640027Y-58249453D01*
X192494952Y-58189361D01*
X192494948Y-58189360D01*
X192494946Y-58189359D01*
X192210005Y-58113010D01*
X192209993Y-58113007D01*
X191917508Y-58074500D01*
X191917506Y-58074500D01*
X191622494Y-58074500D01*
X191622492Y-58074500D01*
X191330006Y-58113007D01*
X191329994Y-58113010D01*
X191045053Y-58189359D01*
X191045048Y-58189360D01*
X191045048Y-58189361D01*
X191002554Y-58206962D01*
X190772498Y-58302254D01*
X190772496Y-58302255D01*
X190517010Y-58449759D01*
X190517007Y-58449761D01*
X190282961Y-58629351D01*
X190074351Y-58837961D01*
X189894761Y-59072007D01*
X189894759Y-59072010D01*
X189747255Y-59327496D01*
X189747254Y-59327498D01*
X189634362Y-59600046D01*
X189634359Y-59600053D01*
X189558010Y-59884994D01*
X189558007Y-59885006D01*
X189519500Y-60177492D01*
X189519500Y-60472507D01*
X187780855Y-60472507D01*
X187790500Y-60411611D01*
X187790500Y-60238389D01*
X187774525Y-60137526D01*
X187763403Y-60067303D01*
X187757260Y-60048395D01*
X187709873Y-59902555D01*
X187631232Y-59748212D01*
X187631229Y-59748208D01*
X187631226Y-59748202D01*
X187529420Y-59608079D01*
X187529413Y-59608071D01*
X187406928Y-59485586D01*
X187406920Y-59485579D01*
X187266797Y-59383773D01*
X187266784Y-59383766D01*
X187249737Y-59375080D01*
X187112445Y-59305127D01*
X187112442Y-59305126D01*
X187112440Y-59305125D01*
X186947696Y-59251596D01*
X186796440Y-59227640D01*
X186776611Y-59224500D01*
X186603389Y-59224500D01*
X186585619Y-59227314D01*
X186432303Y-59251596D01*
X186267559Y-59305125D01*
X186113215Y-59383766D01*
X186113202Y-59383773D01*
X185973079Y-59485579D01*
X185973071Y-59485586D01*
X185850586Y-59608071D01*
X185850579Y-59608079D01*
X185748773Y-59748202D01*
X185748766Y-59748215D01*
X185724452Y-59795935D01*
X185674328Y-59894311D01*
X185670125Y-59902559D01*
X185616596Y-60067303D01*
X185595897Y-60198000D01*
X185589500Y-60238389D01*
X185589500Y-60411611D01*
X160645820Y-60411611D01*
X160666408Y-60357325D01*
X160685754Y-60198000D01*
X160666408Y-60038675D01*
X160609496Y-59888609D01*
X160609496Y-59888608D01*
X160518326Y-59756526D01*
X160518324Y-59756523D01*
X160398191Y-59650095D01*
X160398189Y-59650094D01*
X160398188Y-59650093D01*
X160355772Y-59627831D01*
X160256080Y-59575509D01*
X160256077Y-59575508D01*
X160202190Y-59562226D01*
X160100248Y-59537100D01*
X159939752Y-59537100D01*
X159862936Y-59556033D01*
X159783922Y-59575508D01*
X159783920Y-59575508D01*
X159783920Y-59575509D01*
X159739118Y-59599023D01*
X159641811Y-59650093D01*
X159641806Y-59650097D01*
X159521672Y-59756526D01*
X159506483Y-59778533D01*
X159457462Y-59813350D01*
X159434143Y-59816500D01*
X122106558Y-59816500D01*
X122050057Y-59795935D01*
X122019993Y-59743864D01*
X122030434Y-59684650D01*
X122038610Y-59672837D01*
X122099188Y-59599023D01*
X122189677Y-59429729D01*
X122245400Y-59246035D01*
X122264215Y-59055000D01*
X122245400Y-58863965D01*
X122189677Y-58680271D01*
X122099188Y-58510977D01*
X121977410Y-58362590D01*
X121829023Y-58240812D01*
X121659729Y-58150323D01*
X121659728Y-58150322D01*
X121659727Y-58150322D01*
X121476041Y-58094601D01*
X121476036Y-58094600D01*
X121476035Y-58094600D01*
X121285000Y-58075785D01*
X121284999Y-58075785D01*
X121108666Y-58093152D01*
X121050422Y-58078224D01*
X121015399Y-58029350D01*
X121019986Y-57969398D01*
X121041763Y-57939881D01*
X121148324Y-57845477D01*
X121149831Y-57843293D01*
X121163517Y-57823467D01*
X121212538Y-57788650D01*
X121235857Y-57785500D01*
X137590143Y-57785500D01*
X137646644Y-57806065D01*
X137662483Y-57823467D01*
X137677672Y-57845473D01*
X137677675Y-57845475D01*
X137677676Y-57845477D01*
X137797809Y-57951905D01*
X137939920Y-58026491D01*
X138095752Y-58064900D01*
X138095754Y-58064900D01*
X138256245Y-58064900D01*
X138256248Y-58064900D01*
X138412080Y-58026491D01*
X138554191Y-57951905D01*
X138674324Y-57845477D01*
X138765496Y-57713391D01*
X138822408Y-57563325D01*
X138841754Y-57404000D01*
X138822408Y-57244675D01*
X138765496Y-57094609D01*
X138765496Y-57094608D01*
X138674326Y-56962526D01*
X138674324Y-56962523D01*
X138554191Y-56856095D01*
X138554189Y-56856094D01*
X138554188Y-56856093D01*
X138503467Y-56829473D01*
X138412080Y-56781509D01*
X138412077Y-56781508D01*
X138358190Y-56768226D01*
X138256248Y-56743100D01*
X138095752Y-56743100D01*
X138018936Y-56762033D01*
X137939922Y-56781508D01*
X137939920Y-56781508D01*
X137939920Y-56781509D01*
X137892549Y-56806371D01*
X137797811Y-56856093D01*
X137797806Y-56856097D01*
X137677672Y-56962526D01*
X137662483Y-56984533D01*
X137613462Y-57019350D01*
X137590143Y-57022500D01*
X136444757Y-57022500D01*
X136388256Y-57001935D01*
X136358192Y-56949864D01*
X136362569Y-56903431D01*
X136380520Y-56856097D01*
X136409408Y-56779925D01*
X136428754Y-56620600D01*
X136409408Y-56461275D01*
X136352496Y-56311209D01*
X136352496Y-56311208D01*
X136261326Y-56179126D01*
X136261324Y-56179123D01*
X136141191Y-56072695D01*
X136141189Y-56072694D01*
X136141188Y-56072693D01*
X136092054Y-56046906D01*
X135999080Y-55998109D01*
X135999077Y-55998108D01*
X135945190Y-55984826D01*
X135843248Y-55959700D01*
X135682752Y-55959700D01*
X135605936Y-55978633D01*
X135526922Y-55998108D01*
X135526920Y-55998108D01*
X135526920Y-55998109D01*
X135479549Y-56022971D01*
X135384811Y-56072693D01*
X135384806Y-56072697D01*
X135264672Y-56179126D01*
X135249483Y-56201133D01*
X135200462Y-56235950D01*
X135177143Y-56239100D01*
X118512533Y-56239100D01*
X118456032Y-56218535D01*
X118450378Y-56213355D01*
X117040634Y-54803611D01*
X117015223Y-54749117D01*
X117023992Y-54704023D01*
X117023597Y-54703860D01*
X117024402Y-54701916D01*
X117024475Y-54701541D01*
X117024917Y-54700674D01*
X117081072Y-54527846D01*
X117109500Y-54348361D01*
X117340500Y-54348361D01*
X117341635Y-54355524D01*
X117368927Y-54527844D01*
X117413064Y-54663685D01*
X117425083Y-54700674D01*
X117454523Y-54758453D01*
X117507579Y-54862584D01*
X117507582Y-54862588D01*
X117507583Y-54862590D01*
X117614397Y-55009606D01*
X117742894Y-55138103D01*
X117889910Y-55244917D01*
X117889912Y-55244918D01*
X117889915Y-55244920D01*
X117939058Y-55269959D01*
X118051826Y-55327417D01*
X118224654Y-55383572D01*
X118404139Y-55412000D01*
X118404141Y-55412000D01*
X118585859Y-55412000D01*
X118585861Y-55412000D01*
X118765346Y-55383572D01*
X118938174Y-55327417D01*
X119100090Y-55244917D01*
X119247106Y-55138103D01*
X119375603Y-55009606D01*
X119482417Y-54862590D01*
X119564917Y-54700674D01*
X119621072Y-54527846D01*
X119649500Y-54348361D01*
X119880500Y-54348361D01*
X119881635Y-54355524D01*
X119908927Y-54527844D01*
X119953064Y-54663685D01*
X119965083Y-54700674D01*
X119994523Y-54758453D01*
X120047579Y-54862584D01*
X120047582Y-54862588D01*
X120047583Y-54862590D01*
X120154397Y-55009606D01*
X120282894Y-55138103D01*
X120429910Y-55244917D01*
X120429912Y-55244918D01*
X120429915Y-55244920D01*
X120479058Y-55269959D01*
X120591826Y-55327417D01*
X120764654Y-55383572D01*
X120944139Y-55412000D01*
X120944141Y-55412000D01*
X121125859Y-55412000D01*
X121125861Y-55412000D01*
X121305346Y-55383572D01*
X121478174Y-55327417D01*
X121640090Y-55244917D01*
X121787106Y-55138103D01*
X121915603Y-55009606D01*
X122022417Y-54862590D01*
X122104917Y-54700674D01*
X122161072Y-54527846D01*
X122189500Y-54348361D01*
X122420500Y-54348361D01*
X122421635Y-54355524D01*
X122448927Y-54527844D01*
X122493064Y-54663685D01*
X122505083Y-54700674D01*
X122534523Y-54758453D01*
X122587579Y-54862584D01*
X122587582Y-54862588D01*
X122587583Y-54862590D01*
X122694397Y-55009606D01*
X122822894Y-55138103D01*
X122969910Y-55244917D01*
X122969912Y-55244918D01*
X122969915Y-55244920D01*
X123019058Y-55269959D01*
X123131826Y-55327417D01*
X123304654Y-55383572D01*
X123484139Y-55412000D01*
X123484141Y-55412000D01*
X123665859Y-55412000D01*
X123665861Y-55412000D01*
X123845346Y-55383572D01*
X124018174Y-55327417D01*
X124180090Y-55244917D01*
X124327106Y-55138103D01*
X124455603Y-55009606D01*
X124562417Y-54862590D01*
X124644917Y-54700674D01*
X124701072Y-54527846D01*
X124729500Y-54348361D01*
X124960500Y-54348361D01*
X124961635Y-54355524D01*
X124988927Y-54527844D01*
X125033064Y-54663685D01*
X125045083Y-54700674D01*
X125074523Y-54758453D01*
X125127579Y-54862584D01*
X125127582Y-54862588D01*
X125127583Y-54862590D01*
X125234397Y-55009606D01*
X125362894Y-55138103D01*
X125509910Y-55244917D01*
X125509912Y-55244918D01*
X125509915Y-55244920D01*
X125559058Y-55269959D01*
X125671826Y-55327417D01*
X125844654Y-55383572D01*
X126024139Y-55412000D01*
X126024141Y-55412000D01*
X126205859Y-55412000D01*
X126205861Y-55412000D01*
X126385346Y-55383572D01*
X126558174Y-55327417D01*
X126720090Y-55244917D01*
X126867106Y-55138103D01*
X126995603Y-55009606D01*
X127102417Y-54862590D01*
X127184917Y-54700674D01*
X127241072Y-54527846D01*
X127269500Y-54348361D01*
X127500500Y-54348361D01*
X127501635Y-54355524D01*
X127528927Y-54527844D01*
X127573064Y-54663685D01*
X127585083Y-54700674D01*
X127614523Y-54758453D01*
X127667579Y-54862584D01*
X127667582Y-54862588D01*
X127667583Y-54862590D01*
X127774397Y-55009606D01*
X127902894Y-55138103D01*
X128049910Y-55244917D01*
X128049912Y-55244918D01*
X128049915Y-55244920D01*
X128099058Y-55269959D01*
X128211826Y-55327417D01*
X128384654Y-55383572D01*
X128564139Y-55412000D01*
X128564141Y-55412000D01*
X128745859Y-55412000D01*
X128745861Y-55412000D01*
X128925346Y-55383572D01*
X129098174Y-55327417D01*
X129260090Y-55244917D01*
X129407106Y-55138103D01*
X129535603Y-55009606D01*
X129642417Y-54862590D01*
X129724917Y-54700674D01*
X129781072Y-54527846D01*
X129809500Y-54348361D01*
X130040500Y-54348361D01*
X130041635Y-54355524D01*
X130068927Y-54527844D01*
X130113064Y-54663685D01*
X130125083Y-54700674D01*
X130154523Y-54758453D01*
X130207579Y-54862584D01*
X130207582Y-54862588D01*
X130207583Y-54862590D01*
X130314397Y-55009606D01*
X130442894Y-55138103D01*
X130589910Y-55244917D01*
X130589912Y-55244918D01*
X130589915Y-55244920D01*
X130639058Y-55269959D01*
X130751826Y-55327417D01*
X130924654Y-55383572D01*
X131104139Y-55412000D01*
X131104141Y-55412000D01*
X131285859Y-55412000D01*
X131285861Y-55412000D01*
X131465346Y-55383572D01*
X131638174Y-55327417D01*
X131800090Y-55244917D01*
X131947106Y-55138103D01*
X132075603Y-55009606D01*
X132182417Y-54862590D01*
X132264917Y-54700674D01*
X132321072Y-54527846D01*
X132349500Y-54348361D01*
X132580500Y-54348361D01*
X132581635Y-54355524D01*
X132608927Y-54527844D01*
X132653064Y-54663685D01*
X132665083Y-54700674D01*
X132694523Y-54758453D01*
X132747579Y-54862584D01*
X132747582Y-54862588D01*
X132747583Y-54862590D01*
X132854397Y-55009606D01*
X132982894Y-55138103D01*
X133129910Y-55244917D01*
X133129912Y-55244918D01*
X133129915Y-55244920D01*
X133179058Y-55269959D01*
X133291826Y-55327417D01*
X133464654Y-55383572D01*
X133644139Y-55412000D01*
X133644141Y-55412000D01*
X133825859Y-55412000D01*
X133825861Y-55412000D01*
X134005346Y-55383572D01*
X134178174Y-55327417D01*
X134340090Y-55244917D01*
X134487106Y-55138103D01*
X134615603Y-55009606D01*
X134722417Y-54862590D01*
X134804917Y-54700674D01*
X134861072Y-54527846D01*
X134889500Y-54348361D01*
X135120500Y-54348361D01*
X135121635Y-54355524D01*
X135148927Y-54527844D01*
X135193064Y-54663685D01*
X135205083Y-54700674D01*
X135234523Y-54758453D01*
X135287579Y-54862584D01*
X135287582Y-54862588D01*
X135287583Y-54862590D01*
X135394397Y-55009606D01*
X135522894Y-55138103D01*
X135669910Y-55244917D01*
X135669912Y-55244918D01*
X135669915Y-55244920D01*
X135719058Y-55269959D01*
X135831826Y-55327417D01*
X136004654Y-55383572D01*
X136184139Y-55412000D01*
X136184141Y-55412000D01*
X136365859Y-55412000D01*
X136365861Y-55412000D01*
X136545346Y-55383572D01*
X136718174Y-55327417D01*
X136880090Y-55244917D01*
X137027106Y-55138103D01*
X137155603Y-55009606D01*
X137262417Y-54862590D01*
X137344917Y-54700674D01*
X137401072Y-54527846D01*
X137429500Y-54348361D01*
X137660500Y-54348361D01*
X137661635Y-54355524D01*
X137688927Y-54527844D01*
X137733064Y-54663685D01*
X137745083Y-54700674D01*
X137774523Y-54758453D01*
X137827579Y-54862584D01*
X137827582Y-54862588D01*
X137827583Y-54862590D01*
X137934397Y-55009606D01*
X138062894Y-55138103D01*
X138209910Y-55244917D01*
X138209912Y-55244918D01*
X138209915Y-55244920D01*
X138259058Y-55269959D01*
X138371826Y-55327417D01*
X138544654Y-55383572D01*
X138724139Y-55412000D01*
X138724141Y-55412000D01*
X138905859Y-55412000D01*
X138905861Y-55412000D01*
X139085346Y-55383572D01*
X139258174Y-55327417D01*
X139420090Y-55244917D01*
X139567106Y-55138103D01*
X139695603Y-55009606D01*
X139802417Y-54862590D01*
X139884917Y-54700674D01*
X139941072Y-54527846D01*
X139969500Y-54348361D01*
X140200500Y-54348361D01*
X140201635Y-54355524D01*
X140228927Y-54527844D01*
X140273064Y-54663685D01*
X140285083Y-54700674D01*
X140314523Y-54758453D01*
X140367579Y-54862584D01*
X140367582Y-54862588D01*
X140367583Y-54862590D01*
X140474397Y-55009606D01*
X140602894Y-55138103D01*
X140749910Y-55244917D01*
X140749912Y-55244918D01*
X140749915Y-55244920D01*
X140799058Y-55269959D01*
X140911826Y-55327417D01*
X141084654Y-55383572D01*
X141264139Y-55412000D01*
X141264141Y-55412000D01*
X141445859Y-55412000D01*
X141445861Y-55412000D01*
X141625346Y-55383572D01*
X141798174Y-55327417D01*
X141960090Y-55244917D01*
X142039984Y-55186869D01*
X142097781Y-55170296D01*
X142152710Y-55194751D01*
X142153805Y-55195827D01*
X143580222Y-56622244D01*
X143580222Y-56622245D01*
X143651249Y-56693273D01*
X143651251Y-56693274D01*
X143651253Y-56693276D01*
X143738246Y-56743501D01*
X143738248Y-56743501D01*
X143738249Y-56743502D01*
X143835275Y-56769500D01*
X151814143Y-56769500D01*
X151870644Y-56790065D01*
X151886483Y-56807467D01*
X151901672Y-56829473D01*
X151901675Y-56829475D01*
X151901676Y-56829477D01*
X152021809Y-56935905D01*
X152163920Y-57010491D01*
X152319752Y-57048900D01*
X152319754Y-57048900D01*
X152480245Y-57048900D01*
X152480248Y-57048900D01*
X152636080Y-57010491D01*
X152778191Y-56935905D01*
X152898324Y-56829477D01*
X152989496Y-56697391D01*
X153046408Y-56547325D01*
X153065754Y-56388000D01*
X153046408Y-56228675D01*
X152989496Y-56078609D01*
X152989496Y-56078608D01*
X152898326Y-55946526D01*
X152898324Y-55946523D01*
X152778191Y-55840095D01*
X152778189Y-55840094D01*
X152778188Y-55840093D01*
X152717782Y-55808390D01*
X152636080Y-55765509D01*
X152636077Y-55765508D01*
X152582190Y-55752226D01*
X152480248Y-55727100D01*
X152319752Y-55727100D01*
X152242936Y-55746033D01*
X152163922Y-55765508D01*
X152163920Y-55765508D01*
X152163920Y-55765509D01*
X152116549Y-55790371D01*
X152021811Y-55840093D01*
X152021806Y-55840097D01*
X151901672Y-55946526D01*
X151886483Y-55968533D01*
X151837462Y-56003350D01*
X151814143Y-56006500D01*
X144079932Y-56006500D01*
X144023431Y-55985935D01*
X144017777Y-55980755D01*
X143725320Y-55688298D01*
X143699909Y-55633804D01*
X143715472Y-55575726D01*
X143764725Y-55541238D01*
X143790729Y-55538852D01*
X143790729Y-55538500D01*
X143806099Y-55538500D01*
X143806100Y-55538499D01*
X143806100Y-54454844D01*
X143816009Y-54457500D01*
X143973991Y-54457500D01*
X143983900Y-54454844D01*
X143983900Y-55538499D01*
X143983901Y-55538500D01*
X143995815Y-55538500D01*
X144194966Y-55506957D01*
X144386726Y-55444651D01*
X144566391Y-55353108D01*
X144729515Y-55234591D01*
X144872091Y-55092015D01*
X144990608Y-54928891D01*
X145082151Y-54749226D01*
X145144460Y-54557458D01*
X145145266Y-54554103D01*
X145146691Y-54554445D01*
X145173379Y-54506287D01*
X145229511Y-54484735D01*
X145286364Y-54504305D01*
X145314650Y-54545458D01*
X145331761Y-54598119D01*
X145353064Y-54663685D01*
X145365083Y-54700674D01*
X145394523Y-54758453D01*
X145447579Y-54862584D01*
X145447582Y-54862588D01*
X145447583Y-54862590D01*
X145554397Y-55009606D01*
X145682894Y-55138103D01*
X145829910Y-55244917D01*
X145829912Y-55244918D01*
X145829915Y-55244920D01*
X145879058Y-55269959D01*
X145991826Y-55327417D01*
X146164654Y-55383572D01*
X146344139Y-55412000D01*
X146344141Y-55412000D01*
X146525859Y-55412000D01*
X146525861Y-55412000D01*
X146705346Y-55383572D01*
X146878174Y-55327417D01*
X147040090Y-55244917D01*
X147187106Y-55138103D01*
X147315603Y-55009606D01*
X147422417Y-54862590D01*
X147504917Y-54700674D01*
X147517873Y-54660800D01*
X149346646Y-54660800D01*
X149351874Y-54703860D01*
X149365992Y-54820125D01*
X149387376Y-54876510D01*
X149422903Y-54970190D01*
X149422903Y-54970191D01*
X149514073Y-55102273D01*
X149514076Y-55102277D01*
X149634209Y-55208705D01*
X149776320Y-55283291D01*
X149932152Y-55321700D01*
X149932154Y-55321700D01*
X150092645Y-55321700D01*
X150092648Y-55321700D01*
X150248480Y-55283291D01*
X150390591Y-55208705D01*
X150510724Y-55102277D01*
X150510727Y-55102273D01*
X150525917Y-55080267D01*
X150574938Y-55045450D01*
X150598257Y-55042300D01*
X154135967Y-55042300D01*
X154192468Y-55062865D01*
X154198122Y-55068045D01*
X155599922Y-56469844D01*
X155599922Y-56469845D01*
X155670949Y-56540873D01*
X155670951Y-56540875D01*
X155708498Y-56562553D01*
X155708499Y-56562553D01*
X155757947Y-56591102D01*
X155854975Y-56617101D01*
X155854976Y-56617101D01*
X155960807Y-56617101D01*
X155960823Y-56617100D01*
X186999213Y-56617100D01*
X187055714Y-56637665D01*
X187085778Y-56689736D01*
X187075337Y-56748950D01*
X187053204Y-56774363D01*
X187047766Y-56778595D01*
X187039473Y-56785050D01*
X186887449Y-56950194D01*
X186887446Y-56950198D01*
X186793098Y-57094609D01*
X186764671Y-57138119D01*
X186764665Y-57138130D01*
X186674501Y-57343681D01*
X186674499Y-57343689D01*
X186619395Y-57561287D01*
X186619394Y-57561293D01*
X186600858Y-57785000D01*
X186619394Y-58008706D01*
X186619395Y-58008712D01*
X186674499Y-58226310D01*
X186674501Y-58226318D01*
X186734277Y-58362592D01*
X186764670Y-58431880D01*
X186887446Y-58619802D01*
X187039478Y-58784953D01*
X187216620Y-58922828D01*
X187414039Y-59029666D01*
X187414045Y-59029668D01*
X187626348Y-59102553D01*
X187847759Y-59139500D01*
X187847763Y-59139500D01*
X188072241Y-59139500D01*
X188293651Y-59102553D01*
X188432169Y-59054999D01*
X188505961Y-59029666D01*
X188703380Y-58922828D01*
X188880522Y-58784953D01*
X189032554Y-58619802D01*
X189155330Y-58431880D01*
X189245500Y-58226313D01*
X189300605Y-58008707D01*
X189319142Y-57785000D01*
X205650858Y-57785000D01*
X205669394Y-58008706D01*
X205669395Y-58008712D01*
X205724499Y-58226310D01*
X205724501Y-58226318D01*
X205784277Y-58362592D01*
X205814670Y-58431880D01*
X205937446Y-58619802D01*
X206089478Y-58784953D01*
X206266620Y-58922828D01*
X206464039Y-59029666D01*
X206464045Y-59029668D01*
X206676348Y-59102553D01*
X206897759Y-59139500D01*
X206897763Y-59139500D01*
X207122241Y-59139500D01*
X207343651Y-59102553D01*
X207482169Y-59054999D01*
X207555961Y-59029666D01*
X207753380Y-58922828D01*
X207930522Y-58784953D01*
X208082554Y-58619802D01*
X208205330Y-58431880D01*
X208295500Y-58226313D01*
X208350605Y-58008707D01*
X208369142Y-57785000D01*
X208350605Y-57561293D01*
X208350604Y-57561287D01*
X208310773Y-57404000D01*
X208295500Y-57343687D01*
X208295498Y-57343684D01*
X208295498Y-57343681D01*
X208205334Y-57138130D01*
X208205330Y-57138120D01*
X208082554Y-56950198D01*
X207930522Y-56785047D01*
X207851360Y-56723433D01*
X207753383Y-56647174D01*
X207753381Y-56647173D01*
X207753380Y-56647172D01*
X207555961Y-56540334D01*
X207555957Y-56540332D01*
X207555954Y-56540331D01*
X207343651Y-56467446D01*
X207122241Y-56430500D01*
X207122237Y-56430500D01*
X206897763Y-56430500D01*
X206897759Y-56430500D01*
X206676348Y-56467446D01*
X206464045Y-56540331D01*
X206464040Y-56540333D01*
X206464039Y-56540334D01*
X206422982Y-56562553D01*
X206266616Y-56647174D01*
X206089476Y-56785048D01*
X205937449Y-56950194D01*
X205937446Y-56950198D01*
X205843098Y-57094609D01*
X205814671Y-57138119D01*
X205814665Y-57138130D01*
X205724501Y-57343681D01*
X205724499Y-57343689D01*
X205669395Y-57561287D01*
X205669394Y-57561293D01*
X205650858Y-57785000D01*
X189319142Y-57785000D01*
X189300605Y-57561293D01*
X189300604Y-57561287D01*
X189260773Y-57404000D01*
X189245500Y-57343687D01*
X189245498Y-57343684D01*
X189245498Y-57343681D01*
X189155334Y-57138130D01*
X189155330Y-57138120D01*
X189032554Y-56950198D01*
X188989502Y-56903431D01*
X188880526Y-56785050D01*
X188873941Y-56779925D01*
X188866796Y-56774363D01*
X188834841Y-56723433D01*
X188843100Y-56663876D01*
X188887710Y-56623561D01*
X188920787Y-56617100D01*
X193369624Y-56617100D01*
X193369625Y-56617100D01*
X193466654Y-56591101D01*
X193553647Y-56540876D01*
X193614407Y-56480115D01*
X193668898Y-56454706D01*
X193718395Y-56464965D01*
X193731099Y-56471840D01*
X193764039Y-56489666D01*
X193764042Y-56489667D01*
X193976348Y-56562553D01*
X194197759Y-56599500D01*
X194197763Y-56599500D01*
X194422241Y-56599500D01*
X194643651Y-56562553D01*
X194741295Y-56529030D01*
X194855961Y-56489666D01*
X195053380Y-56382828D01*
X195230522Y-56244953D01*
X195382554Y-56079802D01*
X195505330Y-55891880D01*
X195594629Y-55688298D01*
X195595498Y-55686318D01*
X195595498Y-55686316D01*
X195595500Y-55686313D01*
X195650605Y-55468707D01*
X195669142Y-55245000D01*
X212000858Y-55245000D01*
X212019394Y-55468706D01*
X212019395Y-55468712D01*
X212074499Y-55686310D01*
X212074501Y-55686318D01*
X212164665Y-55891869D01*
X212164670Y-55891880D01*
X212287446Y-56079802D01*
X212361181Y-56159900D01*
X212415158Y-56218535D01*
X212439478Y-56244953D01*
X212616620Y-56382828D01*
X212814039Y-56489666D01*
X212814045Y-56489668D01*
X213026348Y-56562553D01*
X213247759Y-56599500D01*
X213247763Y-56599500D01*
X213472241Y-56599500D01*
X213693651Y-56562553D01*
X213791295Y-56529030D01*
X213905961Y-56489666D01*
X214103380Y-56382828D01*
X214280522Y-56244953D01*
X214432554Y-56079802D01*
X214555330Y-55891880D01*
X214644629Y-55688298D01*
X214645498Y-55686318D01*
X214645498Y-55686316D01*
X214645500Y-55686313D01*
X214700605Y-55468707D01*
X214719142Y-55245000D01*
X214700605Y-55021293D01*
X214700604Y-55021287D01*
X214660416Y-54862590D01*
X214645500Y-54803687D01*
X214645498Y-54803684D01*
X214645498Y-54803681D01*
X214565315Y-54620884D01*
X214555330Y-54598120D01*
X214432554Y-54410198D01*
X214280522Y-54245047D01*
X214209983Y-54190144D01*
X214103383Y-54107174D01*
X214103381Y-54107173D01*
X214103380Y-54107172D01*
X213905961Y-54000334D01*
X213905957Y-54000332D01*
X213905954Y-54000331D01*
X213693651Y-53927446D01*
X213472241Y-53890500D01*
X213472237Y-53890500D01*
X213247763Y-53890500D01*
X213247759Y-53890500D01*
X213026348Y-53927446D01*
X212814045Y-54000331D01*
X212814040Y-54000333D01*
X212814039Y-54000334D01*
X212743866Y-54038310D01*
X212616616Y-54107174D01*
X212439476Y-54245048D01*
X212287449Y-54410194D01*
X212287446Y-54410198D01*
X212193205Y-54554445D01*
X212164671Y-54598119D01*
X212164665Y-54598130D01*
X212074501Y-54803681D01*
X212074499Y-54803689D01*
X212019395Y-55021287D01*
X212019394Y-55021293D01*
X212000858Y-55245000D01*
X195669142Y-55245000D01*
X195650605Y-55021293D01*
X195650604Y-55021287D01*
X195610416Y-54862590D01*
X195595500Y-54803687D01*
X195595498Y-54803684D01*
X195595498Y-54803681D01*
X195515315Y-54620884D01*
X195505330Y-54598120D01*
X195382554Y-54410198D01*
X195230522Y-54245047D01*
X195159983Y-54190144D01*
X195053383Y-54107174D01*
X195053381Y-54107173D01*
X195053380Y-54107172D01*
X194855961Y-54000334D01*
X194855957Y-54000332D01*
X194855954Y-54000331D01*
X194643651Y-53927446D01*
X194422241Y-53890500D01*
X194422237Y-53890500D01*
X194197763Y-53890500D01*
X194197759Y-53890500D01*
X193976348Y-53927446D01*
X193764045Y-54000331D01*
X193764040Y-54000333D01*
X193764039Y-54000334D01*
X193693866Y-54038310D01*
X193566616Y-54107174D01*
X193389476Y-54245048D01*
X193237449Y-54410194D01*
X193237446Y-54410198D01*
X193143205Y-54554445D01*
X193114671Y-54598119D01*
X193114665Y-54598130D01*
X193024501Y-54803681D01*
X193024499Y-54803689D01*
X192969395Y-55021287D01*
X192969394Y-55021293D01*
X192950858Y-55245000D01*
X192969394Y-55468706D01*
X192969395Y-55468712D01*
X193024499Y-55686310D01*
X193024501Y-55686319D01*
X193044053Y-55730891D01*
X193047917Y-55790894D01*
X193012308Y-55839342D01*
X192963557Y-55854100D01*
X156099632Y-55854100D01*
X156043131Y-55833535D01*
X156037477Y-55828355D01*
X155323472Y-55114350D01*
X154564647Y-54355524D01*
X154563435Y-54354824D01*
X154563431Y-54354821D01*
X154477652Y-54305298D01*
X154380625Y-54279300D01*
X150598257Y-54279300D01*
X150541756Y-54258735D01*
X150525917Y-54241333D01*
X150510727Y-54219326D01*
X150398309Y-54119733D01*
X150390591Y-54112895D01*
X150390589Y-54112894D01*
X150390588Y-54112893D01*
X150348172Y-54090631D01*
X150248480Y-54038309D01*
X150248477Y-54038308D01*
X150194590Y-54025026D01*
X150092648Y-53999900D01*
X149932152Y-53999900D01*
X149855336Y-54018833D01*
X149776322Y-54038308D01*
X149776320Y-54038308D01*
X149776320Y-54038309D01*
X149728949Y-54063171D01*
X149634211Y-54112893D01*
X149634206Y-54112897D01*
X149514073Y-54219326D01*
X149422903Y-54351408D01*
X149422903Y-54351409D01*
X149382669Y-54457500D01*
X149365992Y-54501475D01*
X149365991Y-54501477D01*
X149365991Y-54501480D01*
X149346646Y-54660800D01*
X147517873Y-54660800D01*
X147561072Y-54527846D01*
X147589500Y-54348361D01*
X147589500Y-53857502D01*
X176075580Y-53857502D01*
X176095230Y-54119725D01*
X176095232Y-54119733D01*
X176144963Y-54337619D01*
X176153746Y-54376098D01*
X176249817Y-54620884D01*
X176381299Y-54848617D01*
X176538269Y-55045450D01*
X176545256Y-55054212D01*
X176548828Y-55057526D01*
X176711757Y-55208702D01*
X176738017Y-55233067D01*
X176738026Y-55233075D01*
X176868016Y-55321700D01*
X176955290Y-55381202D01*
X176955291Y-55381202D01*
X176955292Y-55381203D01*
X176961821Y-55384347D01*
X177192212Y-55495298D01*
X177443492Y-55572808D01*
X177443495Y-55572808D01*
X177443497Y-55572809D01*
X177573505Y-55592404D01*
X177703518Y-55612000D01*
X177703524Y-55612000D01*
X177966476Y-55612000D01*
X177966482Y-55612000D01*
X178207148Y-55575726D01*
X178226502Y-55572809D01*
X178226502Y-55572808D01*
X178226508Y-55572808D01*
X178477788Y-55495298D01*
X178714710Y-55381202D01*
X178931980Y-55233070D01*
X179124746Y-55054210D01*
X179288701Y-54848617D01*
X179420183Y-54620884D01*
X179516254Y-54376098D01*
X179574769Y-54119728D01*
X179594420Y-53857500D01*
X179593463Y-53844734D01*
X179577391Y-53630256D01*
X179574769Y-53595272D01*
X179516254Y-53338902D01*
X179420183Y-53094116D01*
X179288701Y-52866383D01*
X179124746Y-52660790D01*
X179034330Y-52576897D01*
X178986411Y-52532434D01*
X178931980Y-52481930D01*
X178931978Y-52481929D01*
X178931973Y-52481924D01*
X178714707Y-52333796D01*
X178477791Y-52219703D01*
X178226502Y-52142190D01*
X177966486Y-52103000D01*
X177966482Y-52103000D01*
X177703518Y-52103000D01*
X177703513Y-52103000D01*
X177443497Y-52142190D01*
X177192208Y-52219703D01*
X176955292Y-52333796D01*
X176738026Y-52481924D01*
X176738017Y-52481932D01*
X176545256Y-52660787D01*
X176381301Y-52866380D01*
X176249817Y-53094115D01*
X176249817Y-53094116D01*
X176213303Y-53187154D01*
X176153747Y-53338900D01*
X176153745Y-53338905D01*
X176095232Y-53595266D01*
X176095230Y-53595274D01*
X176075580Y-53857497D01*
X176075580Y-53857502D01*
X147589500Y-53857502D01*
X147589500Y-53366639D01*
X147561072Y-53187154D01*
X147504917Y-53014326D01*
X147422417Y-52852410D01*
X147315603Y-52705394D01*
X147187106Y-52576897D01*
X147040090Y-52470083D01*
X147040088Y-52470082D01*
X147040084Y-52470079D01*
X146937658Y-52417891D01*
X146878174Y-52387583D01*
X146878171Y-52387582D01*
X146878169Y-52387581D01*
X146878166Y-52387580D01*
X146705344Y-52331427D01*
X146582715Y-52312004D01*
X146525861Y-52303000D01*
X146344139Y-52303000D01*
X146295058Y-52310773D01*
X146164655Y-52331427D01*
X145991833Y-52387580D01*
X145991830Y-52387581D01*
X145829915Y-52470079D01*
X145682893Y-52576897D01*
X145554397Y-52705393D01*
X145447579Y-52852415D01*
X145365081Y-53014330D01*
X145365080Y-53014333D01*
X145314651Y-53169540D01*
X145277633Y-53216921D01*
X145218820Y-53229423D01*
X145165731Y-53201195D01*
X145146382Y-53160628D01*
X145145266Y-53160897D01*
X145144460Y-53157541D01*
X145082151Y-52965773D01*
X144990608Y-52786108D01*
X144872091Y-52622984D01*
X144729515Y-52480408D01*
X144566391Y-52361891D01*
X144386726Y-52270348D01*
X144194966Y-52208042D01*
X143995815Y-52176500D01*
X143983901Y-52176500D01*
X143983900Y-52176501D01*
X143983900Y-53260155D01*
X143973991Y-53257500D01*
X143816009Y-53257500D01*
X143806100Y-53260155D01*
X143806100Y-52176501D01*
X143806099Y-52176500D01*
X143794185Y-52176500D01*
X143595033Y-52208042D01*
X143403273Y-52270348D01*
X143223608Y-52361891D01*
X143060484Y-52480408D01*
X142917908Y-52622984D01*
X142799391Y-52786108D01*
X142707848Y-52965773D01*
X142645539Y-53157541D01*
X142644734Y-53160897D01*
X142643321Y-53160557D01*
X142616583Y-53208744D01*
X142560439Y-53230265D01*
X142503597Y-53210663D01*
X142475349Y-53169542D01*
X142424917Y-53014326D01*
X142342417Y-52852410D01*
X142235603Y-52705394D01*
X142107106Y-52576897D01*
X141960090Y-52470083D01*
X141960088Y-52470082D01*
X141960084Y-52470079D01*
X141857658Y-52417891D01*
X141798174Y-52387583D01*
X141798171Y-52387582D01*
X141798169Y-52387581D01*
X141798166Y-52387580D01*
X141625344Y-52331427D01*
X141502715Y-52312004D01*
X141445861Y-52303000D01*
X141264139Y-52303000D01*
X141215058Y-52310773D01*
X141084655Y-52331427D01*
X140911833Y-52387580D01*
X140911830Y-52387581D01*
X140749915Y-52470079D01*
X140602893Y-52576897D01*
X140474397Y-52705393D01*
X140367579Y-52852415D01*
X140285081Y-53014330D01*
X140285080Y-53014333D01*
X140228927Y-53187155D01*
X140212444Y-53291227D01*
X140200500Y-53366639D01*
X140200500Y-54348361D01*
X139969500Y-54348361D01*
X139969500Y-53366639D01*
X139941072Y-53187154D01*
X139884917Y-53014326D01*
X139802417Y-52852410D01*
X139695603Y-52705394D01*
X139567106Y-52576897D01*
X139420090Y-52470083D01*
X139420088Y-52470082D01*
X139420084Y-52470079D01*
X139317658Y-52417891D01*
X139258174Y-52387583D01*
X139258171Y-52387582D01*
X139258169Y-52387581D01*
X139258166Y-52387580D01*
X139085344Y-52331427D01*
X138962715Y-52312004D01*
X138905861Y-52303000D01*
X138724139Y-52303000D01*
X138675058Y-52310773D01*
X138544655Y-52331427D01*
X138371833Y-52387580D01*
X138371830Y-52387581D01*
X138209915Y-52470079D01*
X138062893Y-52576897D01*
X137934397Y-52705393D01*
X137827579Y-52852415D01*
X137745081Y-53014330D01*
X137745080Y-53014333D01*
X137688927Y-53187155D01*
X137672444Y-53291227D01*
X137660500Y-53366639D01*
X137660500Y-54348361D01*
X137429500Y-54348361D01*
X137429500Y-53366639D01*
X137401072Y-53187154D01*
X137344917Y-53014326D01*
X137262417Y-52852410D01*
X137155603Y-52705394D01*
X137027106Y-52576897D01*
X136880090Y-52470083D01*
X136880088Y-52470082D01*
X136880084Y-52470079D01*
X136777658Y-52417891D01*
X136718174Y-52387583D01*
X136718171Y-52387582D01*
X136718169Y-52387581D01*
X136718166Y-52387580D01*
X136545344Y-52331427D01*
X136422715Y-52312004D01*
X136365861Y-52303000D01*
X136184139Y-52303000D01*
X136135058Y-52310773D01*
X136004655Y-52331427D01*
X135831833Y-52387580D01*
X135831830Y-52387581D01*
X135669915Y-52470079D01*
X135522893Y-52576897D01*
X135394397Y-52705393D01*
X135287579Y-52852415D01*
X135205081Y-53014330D01*
X135205080Y-53014333D01*
X135148927Y-53187155D01*
X135132444Y-53291227D01*
X135120500Y-53366639D01*
X135120500Y-54348361D01*
X134889500Y-54348361D01*
X134889500Y-53366639D01*
X134861072Y-53187154D01*
X134804917Y-53014326D01*
X134722417Y-52852410D01*
X134615603Y-52705394D01*
X134487106Y-52576897D01*
X134340090Y-52470083D01*
X134340088Y-52470082D01*
X134340084Y-52470079D01*
X134237658Y-52417891D01*
X134178174Y-52387583D01*
X134178171Y-52387582D01*
X134178169Y-52387581D01*
X134178166Y-52387580D01*
X134005344Y-52331427D01*
X133882715Y-52312004D01*
X133825861Y-52303000D01*
X133644139Y-52303000D01*
X133595058Y-52310773D01*
X133464655Y-52331427D01*
X133291833Y-52387580D01*
X133291830Y-52387581D01*
X133129915Y-52470079D01*
X132982893Y-52576897D01*
X132854397Y-52705393D01*
X132747579Y-52852415D01*
X132665081Y-53014330D01*
X132665080Y-53014333D01*
X132608927Y-53187155D01*
X132592444Y-53291227D01*
X132580500Y-53366639D01*
X132580500Y-54348361D01*
X132349500Y-54348361D01*
X132349500Y-53366639D01*
X132321072Y-53187154D01*
X132264917Y-53014326D01*
X132182417Y-52852410D01*
X132075603Y-52705394D01*
X131947106Y-52576897D01*
X131800090Y-52470083D01*
X131800088Y-52470082D01*
X131800084Y-52470079D01*
X131697658Y-52417891D01*
X131638174Y-52387583D01*
X131638171Y-52387582D01*
X131638169Y-52387581D01*
X131638166Y-52387580D01*
X131465344Y-52331427D01*
X131342715Y-52312004D01*
X131285861Y-52303000D01*
X131104139Y-52303000D01*
X131055058Y-52310773D01*
X130924655Y-52331427D01*
X130751833Y-52387580D01*
X130751830Y-52387581D01*
X130589915Y-52470079D01*
X130442893Y-52576897D01*
X130314397Y-52705393D01*
X130207579Y-52852415D01*
X130125081Y-53014330D01*
X130125080Y-53014333D01*
X130068927Y-53187155D01*
X130052444Y-53291227D01*
X130040500Y-53366639D01*
X130040500Y-54348361D01*
X129809500Y-54348361D01*
X129809500Y-53366639D01*
X129781072Y-53187154D01*
X129724917Y-53014326D01*
X129642417Y-52852410D01*
X129535603Y-52705394D01*
X129407106Y-52576897D01*
X129260090Y-52470083D01*
X129260088Y-52470082D01*
X129260084Y-52470079D01*
X129157658Y-52417891D01*
X129098174Y-52387583D01*
X129098171Y-52387582D01*
X129098169Y-52387581D01*
X129098166Y-52387580D01*
X128925344Y-52331427D01*
X128802715Y-52312004D01*
X128745861Y-52303000D01*
X128564139Y-52303000D01*
X128515058Y-52310773D01*
X128384655Y-52331427D01*
X128211833Y-52387580D01*
X128211830Y-52387581D01*
X128049915Y-52470079D01*
X127902893Y-52576897D01*
X127774397Y-52705393D01*
X127667579Y-52852415D01*
X127585081Y-53014330D01*
X127585080Y-53014333D01*
X127528927Y-53187155D01*
X127512444Y-53291227D01*
X127500500Y-53366639D01*
X127500500Y-54348361D01*
X127269500Y-54348361D01*
X127269500Y-53366639D01*
X127241072Y-53187154D01*
X127184917Y-53014326D01*
X127102417Y-52852410D01*
X126995603Y-52705394D01*
X126867106Y-52576897D01*
X126720090Y-52470083D01*
X126720088Y-52470082D01*
X126720084Y-52470079D01*
X126617658Y-52417891D01*
X126558174Y-52387583D01*
X126558171Y-52387582D01*
X126558169Y-52387581D01*
X126558166Y-52387580D01*
X126385344Y-52331427D01*
X126262715Y-52312004D01*
X126205861Y-52303000D01*
X126024139Y-52303000D01*
X125975058Y-52310773D01*
X125844655Y-52331427D01*
X125671833Y-52387580D01*
X125671830Y-52387581D01*
X125509915Y-52470079D01*
X125362893Y-52576897D01*
X125234397Y-52705393D01*
X125127579Y-52852415D01*
X125045081Y-53014330D01*
X125045080Y-53014333D01*
X124988927Y-53187155D01*
X124972444Y-53291227D01*
X124960500Y-53366639D01*
X124960500Y-54348361D01*
X124729500Y-54348361D01*
X124729500Y-53366639D01*
X124701072Y-53187154D01*
X124644917Y-53014326D01*
X124562417Y-52852410D01*
X124455603Y-52705394D01*
X124327106Y-52576897D01*
X124180090Y-52470083D01*
X124180088Y-52470082D01*
X124180084Y-52470079D01*
X124077658Y-52417891D01*
X124018174Y-52387583D01*
X124018171Y-52387582D01*
X124018169Y-52387581D01*
X124018166Y-52387580D01*
X123845344Y-52331427D01*
X123722715Y-52312004D01*
X123665861Y-52303000D01*
X123484139Y-52303000D01*
X123435058Y-52310773D01*
X123304655Y-52331427D01*
X123131833Y-52387580D01*
X123131830Y-52387581D01*
X122969915Y-52470079D01*
X122822893Y-52576897D01*
X122694397Y-52705393D01*
X122587579Y-52852415D01*
X122505081Y-53014330D01*
X122505080Y-53014333D01*
X122448927Y-53187155D01*
X122432444Y-53291227D01*
X122420500Y-53366639D01*
X122420500Y-54348361D01*
X122189500Y-54348361D01*
X122189500Y-53366639D01*
X122161072Y-53187154D01*
X122104917Y-53014326D01*
X122022417Y-52852410D01*
X121915603Y-52705394D01*
X121787106Y-52576897D01*
X121640090Y-52470083D01*
X121640088Y-52470082D01*
X121640084Y-52470079D01*
X121537658Y-52417891D01*
X121478174Y-52387583D01*
X121478171Y-52387582D01*
X121478169Y-52387581D01*
X121478166Y-52387580D01*
X121305344Y-52331427D01*
X121182715Y-52312004D01*
X121125861Y-52303000D01*
X120944139Y-52303000D01*
X120895058Y-52310773D01*
X120764655Y-52331427D01*
X120591833Y-52387580D01*
X120591830Y-52387581D01*
X120429915Y-52470079D01*
X120282893Y-52576897D01*
X120154397Y-52705393D01*
X120047579Y-52852415D01*
X119965081Y-53014330D01*
X119965080Y-53014333D01*
X119908927Y-53187155D01*
X119892444Y-53291227D01*
X119880500Y-53366639D01*
X119880500Y-54348361D01*
X119649500Y-54348361D01*
X119649500Y-53366639D01*
X119621072Y-53187154D01*
X119564917Y-53014326D01*
X119482417Y-52852410D01*
X119375603Y-52705394D01*
X119247106Y-52576897D01*
X119100090Y-52470083D01*
X119100088Y-52470082D01*
X119100084Y-52470079D01*
X118997658Y-52417891D01*
X118938174Y-52387583D01*
X118938171Y-52387582D01*
X118938169Y-52387581D01*
X118938166Y-52387580D01*
X118765344Y-52331427D01*
X118642715Y-52312004D01*
X118585861Y-52303000D01*
X118404139Y-52303000D01*
X118355058Y-52310773D01*
X118224655Y-52331427D01*
X118051833Y-52387580D01*
X118051830Y-52387581D01*
X117889915Y-52470079D01*
X117742893Y-52576897D01*
X117614397Y-52705393D01*
X117507579Y-52852415D01*
X117425081Y-53014330D01*
X117425080Y-53014333D01*
X117368927Y-53187155D01*
X117352444Y-53291227D01*
X117340500Y-53366639D01*
X117340500Y-54348361D01*
X117109500Y-54348361D01*
X117109500Y-53366639D01*
X117081072Y-53187154D01*
X117024917Y-53014326D01*
X116942417Y-52852410D01*
X116835603Y-52705394D01*
X116707106Y-52576897D01*
X116560090Y-52470083D01*
X116560088Y-52470082D01*
X116560084Y-52470079D01*
X116457658Y-52417891D01*
X116398174Y-52387583D01*
X116398171Y-52387582D01*
X116398169Y-52387581D01*
X116398166Y-52387580D01*
X116225344Y-52331427D01*
X116102715Y-52312004D01*
X116045861Y-52303000D01*
X115864139Y-52303000D01*
X115815058Y-52310773D01*
X115684655Y-52331427D01*
X115511833Y-52387580D01*
X115511830Y-52387581D01*
X115349915Y-52470079D01*
X115202893Y-52576897D01*
X115074397Y-52705393D01*
X114967579Y-52852415D01*
X114885081Y-53014330D01*
X114885080Y-53014333D01*
X114828927Y-53187155D01*
X114812444Y-53291227D01*
X114800500Y-53366639D01*
X114800500Y-54348361D01*
X114801635Y-54355524D01*
X114828927Y-54527844D01*
X114873064Y-54663685D01*
X114885083Y-54700674D01*
X114914523Y-54758453D01*
X114967579Y-54862584D01*
X114967582Y-54862588D01*
X114967583Y-54862590D01*
X115074397Y-55009606D01*
X115202894Y-55138103D01*
X115349910Y-55244917D01*
X115349912Y-55244918D01*
X115349915Y-55244920D01*
X115399058Y-55269959D01*
X115511826Y-55327417D01*
X115684654Y-55383572D01*
X115864139Y-55412000D01*
X115864141Y-55412000D01*
X116045859Y-55412000D01*
X116045861Y-55412000D01*
X116225346Y-55383572D01*
X116398174Y-55327417D01*
X116399040Y-55326975D01*
X116399323Y-55326940D01*
X116401360Y-55326097D01*
X116401593Y-55326661D01*
X116458715Y-55319639D01*
X116501111Y-55343134D01*
X118012824Y-56854847D01*
X118083853Y-56925876D01*
X118170846Y-56976101D01*
X118170848Y-56976101D01*
X118170849Y-56976102D01*
X118267875Y-57002100D01*
X118368325Y-57002100D01*
X119968243Y-57002100D01*
X120024744Y-57022665D01*
X120054808Y-57074736D01*
X120050431Y-57121169D01*
X120043999Y-57138130D01*
X120003592Y-57244675D01*
X120003591Y-57244677D01*
X120003591Y-57244680D01*
X119984246Y-57404000D01*
X120003344Y-57561287D01*
X120003592Y-57563325D01*
X120003594Y-57563329D01*
X120060503Y-57713390D01*
X120060503Y-57713391D01*
X120151673Y-57845473D01*
X120151676Y-57845477D01*
X120271809Y-57951905D01*
X120413920Y-58026491D01*
X120569752Y-58064900D01*
X120569754Y-58064900D01*
X120719169Y-58064900D01*
X120775670Y-58085465D01*
X120805734Y-58137536D01*
X120795293Y-58196750D01*
X120760605Y-58230320D01*
X120753206Y-58234275D01*
X120740976Y-58240812D01*
X120592592Y-58362588D01*
X120592588Y-58362592D01*
X120470812Y-58510976D01*
X120380322Y-58680272D01*
X120324601Y-58863958D01*
X120324600Y-58863963D01*
X120324600Y-58863965D01*
X120305785Y-59055000D01*
X120320991Y-59209394D01*
X120324601Y-59246041D01*
X120366382Y-59383773D01*
X120380323Y-59429729D01*
X120470812Y-59599023D01*
X120512727Y-59650097D01*
X120531390Y-59672837D01*
X120551337Y-59729559D01*
X120530157Y-59785832D01*
X120477761Y-59815326D01*
X120463442Y-59816500D01*
X117678775Y-59816500D01*
X117581749Y-59842497D01*
X117494751Y-59892725D01*
X115564722Y-61822755D01*
X115510228Y-61848166D01*
X115502567Y-61848500D01*
X91116857Y-61848500D01*
X91060356Y-61827935D01*
X91054702Y-61822755D01*
X90215502Y-60983555D01*
X90190091Y-60929061D01*
X90205654Y-60870983D01*
X90254907Y-60836495D01*
X90277657Y-60833500D01*
X93902143Y-60833500D01*
X93958644Y-60854065D01*
X93974483Y-60871467D01*
X93989672Y-60893473D01*
X93989675Y-60893475D01*
X93989676Y-60893477D01*
X94109809Y-60999905D01*
X94251920Y-61074491D01*
X94407752Y-61112900D01*
X94407754Y-61112900D01*
X94568245Y-61112900D01*
X94568248Y-61112900D01*
X94724080Y-61074491D01*
X94866191Y-60999905D01*
X94986324Y-60893477D01*
X95077496Y-60761391D01*
X95134408Y-60611325D01*
X95153754Y-60452000D01*
X95134408Y-60292675D01*
X95077496Y-60142609D01*
X95077496Y-60142608D01*
X94986326Y-60010526D01*
X94986324Y-60010523D01*
X94866191Y-59904095D01*
X94866189Y-59904094D01*
X94866188Y-59904093D01*
X94823772Y-59881831D01*
X94724080Y-59829509D01*
X94724077Y-59829508D01*
X94658520Y-59813350D01*
X94568248Y-59791100D01*
X94407752Y-59791100D01*
X94330936Y-59810033D01*
X94251922Y-59829508D01*
X94251920Y-59829508D01*
X94251920Y-59829509D01*
X94227174Y-59842497D01*
X94109811Y-59904093D01*
X94109806Y-59904097D01*
X93989672Y-60010526D01*
X93974483Y-60032533D01*
X93925462Y-60067350D01*
X93902143Y-60070500D01*
X83387007Y-60070500D01*
X83330506Y-60049935D01*
X83328719Y-60048395D01*
X83309193Y-60031097D01*
X83309188Y-60031093D01*
X83266772Y-60008831D01*
X83167080Y-59956509D01*
X83167077Y-59956508D01*
X83113190Y-59943226D01*
X83011248Y-59918100D01*
X82850752Y-59918100D01*
X82773936Y-59937033D01*
X82694922Y-59956508D01*
X82694920Y-59956508D01*
X82694920Y-59956509D01*
X82647549Y-59981371D01*
X82552811Y-60031093D01*
X82552806Y-60031097D01*
X82473788Y-60101101D01*
X82454139Y-60118509D01*
X82432673Y-60137526D01*
X82341503Y-60269608D01*
X82341503Y-60269609D01*
X82289944Y-60405562D01*
X82284592Y-60419675D01*
X82284591Y-60419677D01*
X82284591Y-60419680D01*
X82265246Y-60579000D01*
X75311500Y-60579000D01*
X75311500Y-59055000D01*
X115099283Y-59055000D01*
X115118110Y-59258178D01*
X115118110Y-59258179D01*
X115173948Y-59454427D01*
X115173949Y-59454428D01*
X115264897Y-59637081D01*
X115264899Y-59637085D01*
X115364842Y-59769431D01*
X115866160Y-59268112D01*
X115884920Y-59300606D01*
X115959394Y-59375080D01*
X115991885Y-59393838D01*
X115491412Y-59894311D01*
X115538654Y-59937379D01*
X115538663Y-59937385D01*
X115712135Y-60044794D01*
X115712149Y-60044800D01*
X115902402Y-60118505D01*
X115902416Y-60118509D01*
X116102972Y-60155999D01*
X116102978Y-60156000D01*
X116307022Y-60156000D01*
X116307027Y-60155999D01*
X116507583Y-60118509D01*
X116507597Y-60118505D01*
X116697850Y-60044800D01*
X116697864Y-60044794D01*
X116871336Y-59937385D01*
X116871339Y-59937383D01*
X116918586Y-59894311D01*
X116918586Y-59894310D01*
X116418114Y-59393838D01*
X116450606Y-59375080D01*
X116525080Y-59300606D01*
X116543839Y-59268114D01*
X117045156Y-59769431D01*
X117145098Y-59637086D01*
X117145103Y-59637079D01*
X117236050Y-59454428D01*
X117236051Y-59454427D01*
X117291889Y-59258179D01*
X117291889Y-59258178D01*
X117310717Y-59055000D01*
X117310717Y-59054999D01*
X117291889Y-58851821D01*
X117291889Y-58851820D01*
X117236051Y-58655572D01*
X117236050Y-58655571D01*
X117145102Y-58472918D01*
X117145100Y-58472915D01*
X117045156Y-58340567D01*
X116543838Y-58841884D01*
X116525080Y-58809394D01*
X116450606Y-58734920D01*
X116418112Y-58716160D01*
X116918586Y-58215687D01*
X116871345Y-58172620D01*
X116871336Y-58172614D01*
X116697864Y-58065205D01*
X116697850Y-58065199D01*
X116507597Y-57991494D01*
X116507583Y-57991490D01*
X116307027Y-57954000D01*
X116102972Y-57954000D01*
X115902416Y-57991490D01*
X115902402Y-57991494D01*
X115712149Y-58065199D01*
X115712135Y-58065205D01*
X115538664Y-58172614D01*
X115538649Y-58172625D01*
X115491412Y-58215687D01*
X115991885Y-58716160D01*
X115959394Y-58734920D01*
X115884920Y-58809394D01*
X115866160Y-58841885D01*
X115364842Y-58340567D01*
X115264900Y-58472914D01*
X115264897Y-58472918D01*
X115173949Y-58655571D01*
X115173948Y-58655572D01*
X115118110Y-58851820D01*
X115118110Y-58851821D01*
X115099283Y-59054999D01*
X115099283Y-59055000D01*
X75311500Y-59055000D01*
X75311500Y-53576613D01*
X75332065Y-53520112D01*
X75384136Y-53490048D01*
X75443350Y-53500489D01*
X75481999Y-53546549D01*
X75483319Y-53550461D01*
X75524790Y-53683545D01*
X75661553Y-53987420D01*
X75661555Y-53987424D01*
X75661556Y-53987425D01*
X75817293Y-54245047D01*
X75833947Y-54272595D01*
X76039458Y-54534910D01*
X76275090Y-54770542D01*
X76537405Y-54976053D01*
X76822580Y-55148447D01*
X77126455Y-55285210D01*
X77444600Y-55384348D01*
X77772375Y-55444415D01*
X78105000Y-55464535D01*
X78437625Y-55444415D01*
X78765400Y-55384348D01*
X79083545Y-55285210D01*
X79387420Y-55148447D01*
X79672595Y-54976053D01*
X79934910Y-54770542D01*
X80170542Y-54534910D01*
X80376053Y-54272595D01*
X80548447Y-53987420D01*
X80685210Y-53683545D01*
X80701874Y-53630068D01*
X84925500Y-53630068D01*
X84938426Y-53695053D01*
X84940266Y-53704301D01*
X84996516Y-53788484D01*
X85024705Y-53807319D01*
X85080698Y-53844734D01*
X85091261Y-53846835D01*
X85154933Y-53859500D01*
X87005066Y-53859499D01*
X87005068Y-53859499D01*
X87023561Y-53855820D01*
X87079301Y-53844734D01*
X87163484Y-53788484D01*
X87219734Y-53704301D01*
X87234500Y-53630067D01*
X87234499Y-52705000D01*
X87460554Y-52705000D01*
X87480296Y-52918051D01*
X87480296Y-52918052D01*
X87538847Y-53123836D01*
X87538848Y-53123837D01*
X87634215Y-53315364D01*
X87634218Y-53315368D01*
X87634219Y-53315370D01*
X87763159Y-53486114D01*
X87921070Y-53630068D01*
X87921276Y-53630256D01*
X87921278Y-53630258D01*
X88007339Y-53683545D01*
X88103190Y-53742893D01*
X88302703Y-53820185D01*
X88302711Y-53820186D01*
X88302713Y-53820187D01*
X88434023Y-53844733D01*
X88513020Y-53859500D01*
X88513021Y-53859500D01*
X88726979Y-53859500D01*
X88726980Y-53859500D01*
X88937297Y-53820185D01*
X89136810Y-53742893D01*
X89318722Y-53630258D01*
X89318930Y-53630068D01*
X91915500Y-53630068D01*
X91928426Y-53695053D01*
X91930266Y-53704301D01*
X91986516Y-53788484D01*
X92014705Y-53807319D01*
X92070698Y-53844734D01*
X92081261Y-53846835D01*
X92144933Y-53859500D01*
X93648566Y-53859499D01*
X93705067Y-53880064D01*
X93710721Y-53885244D01*
X95629753Y-55804276D01*
X95716747Y-55854502D01*
X95813775Y-55880501D01*
X95813776Y-55880501D01*
X95919607Y-55880501D01*
X95919623Y-55880500D01*
X98601143Y-55880500D01*
X98657644Y-55901065D01*
X98673483Y-55918467D01*
X98688672Y-55940473D01*
X98688675Y-55940475D01*
X98688676Y-55940477D01*
X98808809Y-56046905D01*
X98950920Y-56121491D01*
X99106752Y-56159900D01*
X99106754Y-56159900D01*
X99267245Y-56159900D01*
X99267248Y-56159900D01*
X99423080Y-56121491D01*
X99565191Y-56046905D01*
X99685324Y-55940477D01*
X99776496Y-55808391D01*
X99833408Y-55658325D01*
X99852754Y-55499000D01*
X99833408Y-55339675D01*
X99776496Y-55189609D01*
X99776496Y-55189608D01*
X99685326Y-55057526D01*
X99685324Y-55057523D01*
X99565191Y-54951095D01*
X99565189Y-54951094D01*
X99565188Y-54951093D01*
X99522772Y-54928831D01*
X99423080Y-54876509D01*
X99423077Y-54876508D01*
X99366584Y-54862584D01*
X99267248Y-54838100D01*
X99106752Y-54838100D01*
X99064075Y-54848619D01*
X98950922Y-54876508D01*
X98950920Y-54876508D01*
X98950920Y-54876509D01*
X98903549Y-54901371D01*
X98808811Y-54951093D01*
X98808806Y-54951097D01*
X98688672Y-55057526D01*
X98673483Y-55079533D01*
X98624462Y-55114350D01*
X98601143Y-55117500D01*
X96058433Y-55117500D01*
X96001932Y-55096935D01*
X95996278Y-55091755D01*
X94250244Y-53345721D01*
X94224833Y-53291227D01*
X94224499Y-53283566D01*
X94224499Y-52705000D01*
X94450554Y-52705000D01*
X94470296Y-52918051D01*
X94470296Y-52918052D01*
X94528847Y-53123836D01*
X94528848Y-53123837D01*
X94624215Y-53315364D01*
X94624218Y-53315368D01*
X94624219Y-53315370D01*
X94753159Y-53486114D01*
X94911070Y-53630068D01*
X94911276Y-53630256D01*
X94911278Y-53630258D01*
X94997339Y-53683545D01*
X95093190Y-53742893D01*
X95292703Y-53820185D01*
X95292711Y-53820186D01*
X95292713Y-53820187D01*
X95424023Y-53844733D01*
X95503020Y-53859500D01*
X95503021Y-53859500D01*
X95716979Y-53859500D01*
X95716980Y-53859500D01*
X95727668Y-53857502D01*
X101076480Y-53857502D01*
X101096130Y-54119725D01*
X101096132Y-54119733D01*
X101145863Y-54337619D01*
X101154646Y-54376098D01*
X101250717Y-54620884D01*
X101382199Y-54848617D01*
X101539169Y-55045450D01*
X101546156Y-55054212D01*
X101549728Y-55057526D01*
X101712657Y-55208702D01*
X101738917Y-55233067D01*
X101738926Y-55233075D01*
X101868916Y-55321700D01*
X101956190Y-55381202D01*
X101956191Y-55381202D01*
X101956192Y-55381203D01*
X101962721Y-55384347D01*
X102193112Y-55495298D01*
X102444392Y-55572808D01*
X102444395Y-55572808D01*
X102444397Y-55572809D01*
X102574405Y-55592404D01*
X102704418Y-55612000D01*
X102704424Y-55612000D01*
X102967376Y-55612000D01*
X102967382Y-55612000D01*
X103208048Y-55575726D01*
X103227402Y-55572809D01*
X103227402Y-55572808D01*
X103227408Y-55572808D01*
X103478688Y-55495298D01*
X103715610Y-55381202D01*
X103932880Y-55233070D01*
X103987308Y-55182568D01*
X107180500Y-55182568D01*
X107192902Y-55244916D01*
X107195266Y-55256801D01*
X107251516Y-55340984D01*
X107254734Y-55343134D01*
X107335698Y-55397234D01*
X107346261Y-55399335D01*
X107409933Y-55412000D01*
X109260066Y-55411999D01*
X109260068Y-55411999D01*
X109278561Y-55408320D01*
X109334301Y-55397234D01*
X109418484Y-55340984D01*
X109474734Y-55256801D01*
X109489500Y-55182567D01*
X109489499Y-54693746D01*
X109510064Y-54637248D01*
X109562135Y-54607184D01*
X109621349Y-54617625D01*
X109659998Y-54663685D01*
X109660997Y-54666586D01*
X109687849Y-54749228D01*
X109779391Y-54928891D01*
X109897908Y-55092015D01*
X110040484Y-55234591D01*
X110203608Y-55353108D01*
X110383273Y-55444651D01*
X110575033Y-55506957D01*
X110774185Y-55538500D01*
X110786099Y-55538500D01*
X110786100Y-55538499D01*
X110786100Y-54454844D01*
X110796009Y-54457500D01*
X110953991Y-54457500D01*
X110963900Y-54454844D01*
X110963900Y-55538499D01*
X110963901Y-55538500D01*
X110975815Y-55538500D01*
X111174966Y-55506957D01*
X111366726Y-55444651D01*
X111546391Y-55353108D01*
X111709515Y-55234591D01*
X111852091Y-55092015D01*
X111970608Y-54928891D01*
X112062151Y-54749226D01*
X112124460Y-54557458D01*
X112125266Y-54554103D01*
X112126691Y-54554445D01*
X112153379Y-54506287D01*
X112209511Y-54484735D01*
X112266364Y-54504305D01*
X112294650Y-54545458D01*
X112311761Y-54598119D01*
X112333064Y-54663685D01*
X112345083Y-54700674D01*
X112374523Y-54758453D01*
X112427579Y-54862584D01*
X112427582Y-54862588D01*
X112427583Y-54862590D01*
X112534397Y-55009606D01*
X112662894Y-55138103D01*
X112809910Y-55244917D01*
X112809912Y-55244918D01*
X112809915Y-55244920D01*
X112859058Y-55269959D01*
X112971826Y-55327417D01*
X113144654Y-55383572D01*
X113324139Y-55412000D01*
X113324141Y-55412000D01*
X113505859Y-55412000D01*
X113505861Y-55412000D01*
X113685346Y-55383572D01*
X113858174Y-55327417D01*
X114020090Y-55244917D01*
X114167106Y-55138103D01*
X114295603Y-55009606D01*
X114402417Y-54862590D01*
X114484917Y-54700674D01*
X114541072Y-54527846D01*
X114569500Y-54348361D01*
X114569500Y-53366639D01*
X114541072Y-53187154D01*
X114484917Y-53014326D01*
X114402417Y-52852410D01*
X114295603Y-52705394D01*
X114167106Y-52576897D01*
X114020090Y-52470083D01*
X114020088Y-52470082D01*
X114020084Y-52470079D01*
X113917658Y-52417891D01*
X113858174Y-52387583D01*
X113858171Y-52387582D01*
X113858169Y-52387581D01*
X113858166Y-52387580D01*
X113685344Y-52331427D01*
X113562715Y-52312004D01*
X113505861Y-52303000D01*
X113324139Y-52303000D01*
X113275058Y-52310773D01*
X113144655Y-52331427D01*
X112971833Y-52387580D01*
X112971830Y-52387581D01*
X112809915Y-52470079D01*
X112662893Y-52576897D01*
X112534397Y-52705393D01*
X112427579Y-52852415D01*
X112345081Y-53014330D01*
X112345080Y-53014333D01*
X112294651Y-53169540D01*
X112257633Y-53216921D01*
X112198820Y-53229423D01*
X112145731Y-53201195D01*
X112126382Y-53160628D01*
X112125266Y-53160897D01*
X112124460Y-53157541D01*
X112062151Y-52965773D01*
X111970608Y-52786108D01*
X111852091Y-52622984D01*
X111709515Y-52480408D01*
X111546391Y-52361891D01*
X111366726Y-52270348D01*
X111174966Y-52208042D01*
X110975815Y-52176500D01*
X110963901Y-52176500D01*
X110963900Y-52176501D01*
X110963900Y-53260155D01*
X110953991Y-53257500D01*
X110796009Y-53257500D01*
X110786100Y-53260155D01*
X110786100Y-52176501D01*
X110786099Y-52176500D01*
X110774185Y-52176500D01*
X110575033Y-52208042D01*
X110383273Y-52270348D01*
X110203608Y-52361891D01*
X110040484Y-52480408D01*
X109897908Y-52622984D01*
X109779391Y-52786108D01*
X109687849Y-52965771D01*
X109660997Y-53048415D01*
X109623979Y-53095795D01*
X109565166Y-53108297D01*
X109512077Y-53080069D01*
X109489553Y-53024320D01*
X109489499Y-53021252D01*
X109489499Y-52532431D01*
X109481447Y-52491952D01*
X109474734Y-52458199D01*
X109418484Y-52374016D01*
X109400338Y-52361891D01*
X109334301Y-52317765D01*
X109281192Y-52307202D01*
X109260067Y-52303000D01*
X109260065Y-52303000D01*
X107409931Y-52303000D01*
X107335699Y-52317766D01*
X107251517Y-52374015D01*
X107251514Y-52374018D01*
X107195265Y-52458198D01*
X107188552Y-52491952D01*
X107180501Y-52532431D01*
X107180500Y-52532434D01*
X107180500Y-55182568D01*
X103987308Y-55182568D01*
X104125646Y-55054210D01*
X104289601Y-54848617D01*
X104421083Y-54620884D01*
X104517154Y-54376098D01*
X104575669Y-54119728D01*
X104595320Y-53857500D01*
X104594363Y-53844734D01*
X104578291Y-53630256D01*
X104575669Y-53595272D01*
X104517154Y-53338902D01*
X104421083Y-53094116D01*
X104289601Y-52866383D01*
X104125646Y-52660790D01*
X104035230Y-52576897D01*
X103987311Y-52532434D01*
X103932880Y-52481930D01*
X103932878Y-52481929D01*
X103932873Y-52481924D01*
X103715607Y-52333796D01*
X103478691Y-52219703D01*
X103227402Y-52142190D01*
X102967386Y-52103000D01*
X102967382Y-52103000D01*
X102704418Y-52103000D01*
X102704413Y-52103000D01*
X102444397Y-52142190D01*
X102193108Y-52219703D01*
X101956192Y-52333796D01*
X101738926Y-52481924D01*
X101738917Y-52481932D01*
X101546156Y-52660787D01*
X101382201Y-52866380D01*
X101250717Y-53094115D01*
X101250717Y-53094116D01*
X101214203Y-53187154D01*
X101154647Y-53338900D01*
X101154645Y-53338905D01*
X101096132Y-53595266D01*
X101096130Y-53595274D01*
X101076480Y-53857497D01*
X101076480Y-53857502D01*
X95727668Y-53857502D01*
X95927297Y-53820185D01*
X96126810Y-53742893D01*
X96308722Y-53630258D01*
X96466841Y-53486114D01*
X96595781Y-53315370D01*
X96691151Y-53123840D01*
X96720427Y-53020944D01*
X96749703Y-52918052D01*
X96749703Y-52918051D01*
X96749702Y-52918051D01*
X96749704Y-52918048D01*
X96769446Y-52705000D01*
X96749704Y-52491952D01*
X96746852Y-52481930D01*
X96691152Y-52286163D01*
X96691151Y-52286162D01*
X96691151Y-52286160D01*
X96599949Y-52103000D01*
X96595784Y-52094635D01*
X96595782Y-52094632D01*
X96595781Y-52094630D01*
X96466841Y-51923886D01*
X96308722Y-51779742D01*
X96308721Y-51779741D01*
X96126814Y-51667109D01*
X96126811Y-51667107D01*
X96126810Y-51667107D01*
X96009129Y-51621517D01*
X95927300Y-51589816D01*
X95927298Y-51589815D01*
X95927297Y-51589815D01*
X95927295Y-51589814D01*
X95927286Y-51589812D01*
X95716984Y-51550500D01*
X95716980Y-51550500D01*
X95503020Y-51550500D01*
X95503015Y-51550500D01*
X95292713Y-51589812D01*
X95292699Y-51589816D01*
X95093199Y-51667103D01*
X95093185Y-51667109D01*
X94911278Y-51779741D01*
X94911276Y-51779743D01*
X94753160Y-51923885D01*
X94753156Y-51923889D01*
X94624220Y-52094628D01*
X94624215Y-52094635D01*
X94528848Y-52286162D01*
X94528847Y-52286163D01*
X94470296Y-52491947D01*
X94470296Y-52491948D01*
X94450554Y-52704999D01*
X94450554Y-52705000D01*
X94224499Y-52705000D01*
X94224499Y-51779931D01*
X94218980Y-51752190D01*
X94209734Y-51705699D01*
X94153484Y-51621516D01*
X94153098Y-51621258D01*
X94069301Y-51565265D01*
X94016192Y-51554702D01*
X93995067Y-51550500D01*
X93995065Y-51550500D01*
X92144931Y-51550500D01*
X92070699Y-51565266D01*
X91986517Y-51621515D01*
X91986514Y-51621518D01*
X91930265Y-51705698D01*
X91917601Y-51769370D01*
X91915501Y-51779931D01*
X91915500Y-51779934D01*
X91915500Y-53630068D01*
X89318930Y-53630068D01*
X89476841Y-53486114D01*
X89605781Y-53315370D01*
X89701151Y-53123840D01*
X89730427Y-53020944D01*
X89759703Y-52918052D01*
X89759703Y-52918051D01*
X89759702Y-52918051D01*
X89759704Y-52918048D01*
X89779446Y-52705000D01*
X89759704Y-52491952D01*
X89756852Y-52481930D01*
X89701152Y-52286163D01*
X89701151Y-52286162D01*
X89701151Y-52286160D01*
X89609949Y-52103000D01*
X89605784Y-52094635D01*
X89605782Y-52094632D01*
X89605781Y-52094630D01*
X89476841Y-51923886D01*
X89318722Y-51779742D01*
X89318721Y-51779741D01*
X89136814Y-51667109D01*
X89136811Y-51667107D01*
X89136810Y-51667107D01*
X89019129Y-51621517D01*
X88937300Y-51589816D01*
X88937298Y-51589815D01*
X88937297Y-51589815D01*
X88937295Y-51589814D01*
X88937286Y-51589812D01*
X88726984Y-51550500D01*
X88726980Y-51550500D01*
X88513020Y-51550500D01*
X88513015Y-51550500D01*
X88302713Y-51589812D01*
X88302699Y-51589816D01*
X88103199Y-51667103D01*
X88103185Y-51667109D01*
X87921278Y-51779741D01*
X87921276Y-51779743D01*
X87763160Y-51923885D01*
X87763156Y-51923889D01*
X87634220Y-52094628D01*
X87634215Y-52094635D01*
X87538848Y-52286162D01*
X87538847Y-52286163D01*
X87480296Y-52491947D01*
X87480296Y-52491948D01*
X87460554Y-52704999D01*
X87460554Y-52705000D01*
X87234499Y-52705000D01*
X87234499Y-51779934D01*
X87234499Y-51779933D01*
X87234499Y-51779931D01*
X87228980Y-51752190D01*
X87219734Y-51705699D01*
X87163484Y-51621516D01*
X87163098Y-51621258D01*
X87079301Y-51565265D01*
X87026192Y-51554702D01*
X87005067Y-51550500D01*
X87005065Y-51550500D01*
X85154931Y-51550500D01*
X85080699Y-51565266D01*
X84996517Y-51621515D01*
X84996514Y-51621518D01*
X84940265Y-51705698D01*
X84927601Y-51769370D01*
X84925501Y-51779931D01*
X84925500Y-51779934D01*
X84925500Y-53630068D01*
X80701874Y-53630068D01*
X80784348Y-53365400D01*
X80844415Y-53037625D01*
X80864535Y-52705000D01*
X80844415Y-52372375D01*
X80784348Y-52044600D01*
X80685210Y-51726455D01*
X80548447Y-51422580D01*
X80376053Y-51137405D01*
X80170542Y-50875090D01*
X79934910Y-50639458D01*
X79672595Y-50433947D01*
X79672592Y-50433945D01*
X79672589Y-50433943D01*
X79387425Y-50261556D01*
X79387424Y-50261555D01*
X79387420Y-50261553D01*
X79083545Y-50124790D01*
X78950462Y-50083319D01*
X78902639Y-50046877D01*
X78889428Y-49988219D01*
X78917012Y-49934793D01*
X78972485Y-49911597D01*
X78976614Y-49911500D01*
X223283386Y-49911500D01*
X223339887Y-49932065D01*
G37*
%TD.AperFunction*%
%TD*%
M02*
