M48
; DRILL file {KiCad 8.0.1-8.0.1-1~ubuntu22.04.1} date 2024-04-28T12:17:06-0400
; FORMAT={-:-/ absolute / inch / decimal}
; #@! TF.CreationDate,2024-04-28T12:17:06-04:00
; #@! TF.GenerationSoftware,Kicad,Pcbnew,8.0.1-8.0.1-1~ubuntu22.04.1
; #@! TF.FileFunction,Plated,1,2,PTH
FMAT,2
INCH
; #@! TA.AperFunction,Plated,PTH,ViaDrill
T1C0.0160
; #@! TA.AperFunction,Plated,PTH,ComponentDrill
T2C0.0315
; #@! TA.AperFunction,Plated,PTH,ComponentDrill
T3C0.0354
; #@! TA.AperFunction,Plated,PTH,ComponentDrill
T4C0.0394
; #@! TA.AperFunction,Plated,PTH,ComponentDrill
T5C0.0433
; #@! TA.AperFunction,Plated,PTH,ComponentDrill
T6C0.0472
; #@! TA.AperFunction,Plated,PTH,ComponentDrill
T7C0.0591
; #@! TA.AperFunction,Plated,PTH,ComponentDrill
T8C0.0866
; #@! TA.AperFunction,Plated,PTH,ComponentDrill
T9C0.0984
%
G90
G05
T1
X3.265Y-2.385
X3.325Y-2.27
X3.595Y-2.27
X3.72Y-2.38
X3.72Y-2.9
X3.905Y-2.185
X3.905Y-2.6
X4.18Y-3.052
X4.75Y-2.26
X5.265Y-2.515
X5.31Y-2.495
X5.345Y-2.2292
X5.39Y-2.46
X5.43Y-3.1
X5.44Y-2.26
X5.669Y-2.4558
X5.67Y-3.095
X5.8Y-3.152
X5.894Y-3.196
X5.906Y-2.152
X6.0Y-2.22
X6.028Y-2.404
X6.2Y-3.054
X6.3Y-2.37
X8.42Y-2.75
T2
X4.575Y-2.325
X4.675Y-2.425
X4.775Y-2.325
X4.9Y-2.6
X4.9Y-2.9
X5.0Y-2.6
X5.0Y-2.9
X5.1Y-2.6
X5.1Y-2.9
X5.2Y-2.6
X5.2Y-2.9
X5.3Y-2.6
X5.3Y-2.9
X5.4Y-2.6
X5.4Y-2.9
X5.5Y-2.6
X5.5Y-2.9
X5.6Y-2.6
X5.6Y-2.9
X5.7Y-2.6
X5.7Y-2.9
X5.8Y-2.6
X5.8Y-2.9
X5.9Y-2.6
X5.9Y-2.9
X6.0Y-2.6
X6.0Y-2.9
X6.1Y-2.6
X6.1Y-2.9
X6.2Y-2.6
X6.2Y-2.9
T3
X3.389Y-2.075
X3.489Y-2.075
X3.6642Y-2.075
X3.7642Y-2.075
T4
X3.2819Y-2.45
X3.3606Y-2.45
X3.4394Y-2.45
X3.5181Y-2.45
X4.175Y-2.675
X4.175Y-2.775
X4.275Y-2.675
X4.275Y-2.775
X4.375Y-2.675
X4.375Y-2.775
X5.475Y-3.4
X5.575Y-3.4
X5.675Y-3.4
X5.775Y-3.4
X5.875Y-3.4
X5.975Y-3.4
T5
X3.3016Y-3.0209
X3.4Y-3.0209
X3.4984Y-3.0209
T6
X4.2652Y-2.1204
X4.3652Y-2.1204
X4.4652Y-2.1204
X4.5652Y-2.1204
X4.6652Y-2.1204
X4.7652Y-2.1204
X4.8652Y-2.1204
X4.9652Y-2.1204
X5.0652Y-2.1204
X5.1652Y-2.1204
X5.2652Y-2.1204
X5.3652Y-2.1204
X5.4652Y-2.1204
X5.5652Y-2.1204
X5.6652Y-2.1204
X5.7652Y-2.1204
T7
X7.4Y-2.275
X7.4Y-3.025
X7.65Y-2.175
X7.65Y-2.925
X8.15Y-2.275
X8.15Y-3.025
X8.4Y-2.175
X8.4Y-2.925
T8
X3.1835Y-2.7256
X3.6165Y-2.7256
T9
X3.075Y-2.075
X3.075Y-3.4
X4.0487Y-2.1204
X4.0487Y-3.3409
X7.0014Y-3.3409
X7.0014Y-2.1204
X8.825Y-2.075
X8.825Y-3.4
M30
