%TF.GenerationSoftware,KiCad,Pcbnew,8.0.1-8.0.1-1~ubuntu22.04.1*%
%TF.CreationDate,2024-04-28T12:17:03-04:00*%
%TF.ProjectId,control-panel,636f6e74-726f-46c2-9d70-616e656c2e6b,rev?*%
%TF.SameCoordinates,Original*%
%TF.FileFunction,Soldermask,Bot*%
%TF.FilePolarity,Negative*%
%FSLAX46Y46*%
G04 Gerber Fmt 4.6, Leading zero omitted, Abs format (unit mm)*
G04 Created by KiCad (PCBNEW 8.0.1-8.0.1-1~ubuntu22.04.1) date 2024-04-28 12:17:03*
%MOMM*%
%LPD*%
G01*
G04 APERTURE LIST*
G04 Aperture macros list*
%AMRoundRect*
0 Rectangle with rounded corners*
0 $1 Rounding radius*
0 $2 $3 $4 $5 $6 $7 $8 $9 X,Y pos of 4 corners*
0 Add a 4 corners polygon primitive as box body*
4,1,4,$2,$3,$4,$5,$6,$7,$8,$9,$2,$3,0*
0 Add four circle primitives for the rounded corners*
1,1,$1+$1,$2,$3*
1,1,$1+$1,$4,$5*
1,1,$1+$1,$6,$7*
1,1,$1+$1,$8,$9*
0 Add four rect primitives between the rounded corners*
20,1,$1+$1,$2,$3,$4,$5,0*
20,1,$1+$1,$4,$5,$6,$7,0*
20,1,$1+$1,$6,$7,$8,$9,0*
20,1,$1+$1,$8,$9,$2,$3,0*%
G04 Aperture macros list end*
%ADD10C,5.000000*%
%ADD11C,1.700000*%
%ADD12C,4.000000*%
%ADD13C,2.200000*%
%ADD14C,1.600000*%
%ADD15C,1.650000*%
%ADD16R,2.500000X2.500000*%
%ADD17R,1.800000X1.800000*%
%ADD18C,1.800000*%
%ADD19C,3.000000*%
%ADD20R,1.800000X2.600000*%
%ADD21O,1.800000X2.600000*%
%ADD22C,1.440000*%
%ADD23RoundRect,0.250000X0.400000X0.625000X-0.400000X0.625000X-0.400000X-0.625000X0.400000X-0.625000X0*%
%ADD24R,1.700000X1.700000*%
%ADD25O,1.700000X1.700000*%
%ADD26RoundRect,0.250000X-0.400000X-0.625000X0.400000X-0.625000X0.400000X0.625000X-0.400000X0.625000X0*%
%ADD27RoundRect,0.250000X-0.625000X0.400000X-0.625000X-0.400000X0.625000X-0.400000X0.625000X0.400000X0*%
%ADD28RoundRect,0.250000X0.412500X0.650000X-0.412500X0.650000X-0.412500X-0.650000X0.412500X-0.650000X0*%
%ADD29R,1.600000X1.600000*%
%ADD30O,1.600000X1.600000*%
G04 APERTURE END LIST*
D10*
%TO.C,H2*%
X78105000Y-86360000D03*
%TD*%
%TO.C,H4*%
X224155000Y-86360000D03*
%TD*%
D11*
%TO.C,SW2*%
X205740000Y-60325000D03*
D12*
X210820000Y-60325000D03*
D11*
X215900000Y-60325000D03*
D13*
X213360000Y-55245000D03*
X207010000Y-57785000D03*
%TD*%
D14*
%TO.C,SW5*%
X89360000Y-62230000D03*
X87360000Y-62230000D03*
X85360000Y-62230000D03*
X83360000Y-62230000D03*
D15*
X83860000Y-76730000D03*
X88860000Y-76730000D03*
X86360000Y-76730000D03*
D16*
X80860000Y-69230000D03*
X91860000Y-69230000D03*
%TD*%
D11*
%TO.C,SW1*%
X186690000Y-60325000D03*
D12*
X191770000Y-60325000D03*
D11*
X196850000Y-60325000D03*
D13*
X194310000Y-55245000D03*
X187960000Y-57785000D03*
%TD*%
D11*
%TO.C,SW3*%
X186690000Y-79375000D03*
D12*
X191770000Y-79375000D03*
D11*
X196850000Y-79375000D03*
D13*
X194310000Y-74295000D03*
X187960000Y-76835000D03*
%TD*%
D10*
%TO.C,H3*%
X224155000Y-52705000D03*
%TD*%
D17*
%TO.C,D1*%
X86080000Y-52705000D03*
D18*
X88620000Y-52705000D03*
%TD*%
D10*
%TO.C,H1*%
X78105000Y-52705000D03*
%TD*%
D11*
%TO.C,SW4*%
X205740000Y-79375000D03*
D12*
X210820000Y-79375000D03*
D11*
X215900000Y-79375000D03*
D13*
X213360000Y-74295000D03*
X207010000Y-76835000D03*
%TD*%
D19*
%TO.C,DS1*%
X102835900Y-53857500D03*
X102835900Y-84858200D03*
X177834480Y-84858200D03*
X177835000Y-53857500D03*
D20*
X108335000Y-53857500D03*
D21*
X110875000Y-53857500D03*
X113415000Y-53857500D03*
X115955000Y-53857500D03*
X118495000Y-53857500D03*
X121035000Y-53857500D03*
X123575000Y-53857500D03*
X126115000Y-53857500D03*
X128655000Y-53857500D03*
X131195000Y-53857500D03*
X133735000Y-53857500D03*
X136275000Y-53857500D03*
X138815000Y-53857500D03*
X141355000Y-53857500D03*
X143895000Y-53857500D03*
X146435000Y-53857500D03*
%TD*%
D17*
%TO.C,D2*%
X93070000Y-52705000D03*
D18*
X95610000Y-52705000D03*
%TD*%
D22*
%TO.C,RV1*%
X116205000Y-59055000D03*
X118745000Y-61595000D03*
X121285000Y-59055000D03*
%TD*%
D23*
%TO.C,R1*%
X109855000Y-63500000D03*
X106755000Y-63500000D03*
%TD*%
D24*
%TO.C,J2*%
X151765000Y-86360000D03*
D25*
X149225000Y-86360000D03*
X146685000Y-86360000D03*
X144145000Y-86360000D03*
X141605000Y-86360000D03*
X139065000Y-86360000D03*
%TD*%
D26*
%TO.C,R4*%
X92785000Y-57785000D03*
X95885000Y-57785000D03*
%TD*%
%TO.C,R3*%
X85800000Y-57785000D03*
X88900000Y-57785000D03*
%TD*%
D24*
%TO.C,J1*%
X111125000Y-70485000D03*
D25*
X111125000Y-67945000D03*
X108585000Y-70485000D03*
X108585000Y-67945000D03*
X106045000Y-70485000D03*
X106045000Y-67945000D03*
%TD*%
D27*
%TO.C,R6*%
X158750000Y-58775000D03*
X158750000Y-61875000D03*
%TD*%
D28*
%TO.C,C1*%
X142532500Y-78740000D03*
X139407500Y-78740000D03*
%TD*%
D27*
%TO.C,R5*%
X154940000Y-58775000D03*
X154940000Y-61875000D03*
%TD*%
%TO.C,R2*%
X142240000Y-58775000D03*
X142240000Y-61875000D03*
%TD*%
D29*
%TO.C,U3*%
X157480000Y-73660000D03*
D30*
X154940000Y-73660000D03*
X152400000Y-73660000D03*
X149860000Y-73660000D03*
X147320000Y-73660000D03*
X144780000Y-73660000D03*
X142240000Y-73660000D03*
X139700000Y-73660000D03*
X137160000Y-73660000D03*
X134620000Y-73660000D03*
X132080000Y-73660000D03*
X129540000Y-73660000D03*
X127000000Y-73660000D03*
X124460000Y-73660000D03*
X124460000Y-66040000D03*
X127000000Y-66040000D03*
X129540000Y-66040000D03*
X132080000Y-66040000D03*
X134620000Y-66040000D03*
X137160000Y-66040000D03*
X139700000Y-66040000D03*
X142240000Y-66040000D03*
X144780000Y-66040000D03*
X147320000Y-66040000D03*
X149860000Y-66040000D03*
X152400000Y-66040000D03*
X154940000Y-66040000D03*
X157480000Y-66040000D03*
%TD*%
M02*
