%TF.GenerationSoftware,KiCad,Pcbnew,8.0.1-8.0.1-1~ubuntu22.04.1*%
%TF.CreationDate,2024-04-28T12:17:03-04:00*%
%TF.ProjectId,control-panel,636f6e74-726f-46c2-9d70-616e656c2e6b,rev?*%
%TF.SameCoordinates,Original*%
%TF.FileFunction,Legend,Top*%
%TF.FilePolarity,Positive*%
%FSLAX46Y46*%
G04 Gerber Fmt 4.6, Leading zero omitted, Abs format (unit mm)*
G04 Created by KiCad (PCBNEW 8.0.1-8.0.1-1~ubuntu22.04.1) date 2024-04-28 12:17:03*
%MOMM*%
%LPD*%
G01*
G04 APERTURE LIST*
%ADD10C,0.203200*%
%ADD11C,0.120000*%
G04 APERTURE END LIST*
D10*
X208914999Y-52691893D02*
X209132714Y-52764464D01*
X209132714Y-52764464D02*
X209495571Y-52764464D01*
X209495571Y-52764464D02*
X209640714Y-52691893D01*
X209640714Y-52691893D02*
X209713285Y-52619321D01*
X209713285Y-52619321D02*
X209785856Y-52474178D01*
X209785856Y-52474178D02*
X209785856Y-52329035D01*
X209785856Y-52329035D02*
X209713285Y-52183893D01*
X209713285Y-52183893D02*
X209640714Y-52111321D01*
X209640714Y-52111321D02*
X209495571Y-52038750D01*
X209495571Y-52038750D02*
X209205285Y-51966178D01*
X209205285Y-51966178D02*
X209060142Y-51893607D01*
X209060142Y-51893607D02*
X208987571Y-51821035D01*
X208987571Y-51821035D02*
X208914999Y-51675893D01*
X208914999Y-51675893D02*
X208914999Y-51530750D01*
X208914999Y-51530750D02*
X208987571Y-51385607D01*
X208987571Y-51385607D02*
X209060142Y-51313035D01*
X209060142Y-51313035D02*
X209205285Y-51240464D01*
X209205285Y-51240464D02*
X209568142Y-51240464D01*
X209568142Y-51240464D02*
X209785856Y-51313035D01*
X210293857Y-51240464D02*
X210656714Y-52764464D01*
X210656714Y-52764464D02*
X210947000Y-51675893D01*
X210947000Y-51675893D02*
X211237285Y-52764464D01*
X211237285Y-52764464D02*
X211600143Y-51240464D01*
X212108142Y-51385607D02*
X212180714Y-51313035D01*
X212180714Y-51313035D02*
X212325857Y-51240464D01*
X212325857Y-51240464D02*
X212688714Y-51240464D01*
X212688714Y-51240464D02*
X212833857Y-51313035D01*
X212833857Y-51313035D02*
X212906428Y-51385607D01*
X212906428Y-51385607D02*
X212978999Y-51530750D01*
X212978999Y-51530750D02*
X212978999Y-51675893D01*
X212978999Y-51675893D02*
X212906428Y-51893607D01*
X212906428Y-51893607D02*
X212035571Y-52764464D01*
X212035571Y-52764464D02*
X212978999Y-52764464D01*
X76580999Y-62470893D02*
X76798714Y-62543464D01*
X76798714Y-62543464D02*
X77161571Y-62543464D01*
X77161571Y-62543464D02*
X77306714Y-62470893D01*
X77306714Y-62470893D02*
X77379285Y-62398321D01*
X77379285Y-62398321D02*
X77451856Y-62253178D01*
X77451856Y-62253178D02*
X77451856Y-62108035D01*
X77451856Y-62108035D02*
X77379285Y-61962893D01*
X77379285Y-61962893D02*
X77306714Y-61890321D01*
X77306714Y-61890321D02*
X77161571Y-61817750D01*
X77161571Y-61817750D02*
X76871285Y-61745178D01*
X76871285Y-61745178D02*
X76726142Y-61672607D01*
X76726142Y-61672607D02*
X76653571Y-61600035D01*
X76653571Y-61600035D02*
X76580999Y-61454893D01*
X76580999Y-61454893D02*
X76580999Y-61309750D01*
X76580999Y-61309750D02*
X76653571Y-61164607D01*
X76653571Y-61164607D02*
X76726142Y-61092035D01*
X76726142Y-61092035D02*
X76871285Y-61019464D01*
X76871285Y-61019464D02*
X77234142Y-61019464D01*
X77234142Y-61019464D02*
X77451856Y-61092035D01*
X77959857Y-61019464D02*
X78322714Y-62543464D01*
X78322714Y-62543464D02*
X78613000Y-61454893D01*
X78613000Y-61454893D02*
X78903285Y-62543464D01*
X78903285Y-62543464D02*
X79266143Y-61019464D01*
X80572428Y-61019464D02*
X79846714Y-61019464D01*
X79846714Y-61019464D02*
X79774142Y-61745178D01*
X79774142Y-61745178D02*
X79846714Y-61672607D01*
X79846714Y-61672607D02*
X79991857Y-61600035D01*
X79991857Y-61600035D02*
X80354714Y-61600035D01*
X80354714Y-61600035D02*
X80499857Y-61672607D01*
X80499857Y-61672607D02*
X80572428Y-61745178D01*
X80572428Y-61745178D02*
X80644999Y-61890321D01*
X80644999Y-61890321D02*
X80644999Y-62253178D01*
X80644999Y-62253178D02*
X80572428Y-62398321D01*
X80572428Y-62398321D02*
X80499857Y-62470893D01*
X80499857Y-62470893D02*
X80354714Y-62543464D01*
X80354714Y-62543464D02*
X79991857Y-62543464D01*
X79991857Y-62543464D02*
X79846714Y-62470893D01*
X79846714Y-62470893D02*
X79774142Y-62398321D01*
X189610999Y-52564893D02*
X189828714Y-52637464D01*
X189828714Y-52637464D02*
X190191571Y-52637464D01*
X190191571Y-52637464D02*
X190336714Y-52564893D01*
X190336714Y-52564893D02*
X190409285Y-52492321D01*
X190409285Y-52492321D02*
X190481856Y-52347178D01*
X190481856Y-52347178D02*
X190481856Y-52202035D01*
X190481856Y-52202035D02*
X190409285Y-52056893D01*
X190409285Y-52056893D02*
X190336714Y-51984321D01*
X190336714Y-51984321D02*
X190191571Y-51911750D01*
X190191571Y-51911750D02*
X189901285Y-51839178D01*
X189901285Y-51839178D02*
X189756142Y-51766607D01*
X189756142Y-51766607D02*
X189683571Y-51694035D01*
X189683571Y-51694035D02*
X189610999Y-51548893D01*
X189610999Y-51548893D02*
X189610999Y-51403750D01*
X189610999Y-51403750D02*
X189683571Y-51258607D01*
X189683571Y-51258607D02*
X189756142Y-51186035D01*
X189756142Y-51186035D02*
X189901285Y-51113464D01*
X189901285Y-51113464D02*
X190264142Y-51113464D01*
X190264142Y-51113464D02*
X190481856Y-51186035D01*
X190989857Y-51113464D02*
X191352714Y-52637464D01*
X191352714Y-52637464D02*
X191643000Y-51548893D01*
X191643000Y-51548893D02*
X191933285Y-52637464D01*
X191933285Y-52637464D02*
X192296143Y-51113464D01*
X193674999Y-52637464D02*
X192804142Y-52637464D01*
X193239571Y-52637464D02*
X193239571Y-51113464D01*
X193239571Y-51113464D02*
X193094428Y-51331178D01*
X193094428Y-51331178D02*
X192949285Y-51476321D01*
X192949285Y-51476321D02*
X192804142Y-51548893D01*
X189737999Y-71614893D02*
X189955714Y-71687464D01*
X189955714Y-71687464D02*
X190318571Y-71687464D01*
X190318571Y-71687464D02*
X190463714Y-71614893D01*
X190463714Y-71614893D02*
X190536285Y-71542321D01*
X190536285Y-71542321D02*
X190608856Y-71397178D01*
X190608856Y-71397178D02*
X190608856Y-71252035D01*
X190608856Y-71252035D02*
X190536285Y-71106893D01*
X190536285Y-71106893D02*
X190463714Y-71034321D01*
X190463714Y-71034321D02*
X190318571Y-70961750D01*
X190318571Y-70961750D02*
X190028285Y-70889178D01*
X190028285Y-70889178D02*
X189883142Y-70816607D01*
X189883142Y-70816607D02*
X189810571Y-70744035D01*
X189810571Y-70744035D02*
X189737999Y-70598893D01*
X189737999Y-70598893D02*
X189737999Y-70453750D01*
X189737999Y-70453750D02*
X189810571Y-70308607D01*
X189810571Y-70308607D02*
X189883142Y-70236035D01*
X189883142Y-70236035D02*
X190028285Y-70163464D01*
X190028285Y-70163464D02*
X190391142Y-70163464D01*
X190391142Y-70163464D02*
X190608856Y-70236035D01*
X191116857Y-70163464D02*
X191479714Y-71687464D01*
X191479714Y-71687464D02*
X191770000Y-70598893D01*
X191770000Y-70598893D02*
X192060285Y-71687464D01*
X192060285Y-71687464D02*
X192423143Y-70163464D01*
X192858571Y-70163464D02*
X193801999Y-70163464D01*
X193801999Y-70163464D02*
X193293999Y-70744035D01*
X193293999Y-70744035D02*
X193511714Y-70744035D01*
X193511714Y-70744035D02*
X193656857Y-70816607D01*
X193656857Y-70816607D02*
X193729428Y-70889178D01*
X193729428Y-70889178D02*
X193801999Y-71034321D01*
X193801999Y-71034321D02*
X193801999Y-71397178D01*
X193801999Y-71397178D02*
X193729428Y-71542321D01*
X193729428Y-71542321D02*
X193656857Y-71614893D01*
X193656857Y-71614893D02*
X193511714Y-71687464D01*
X193511714Y-71687464D02*
X193076285Y-71687464D01*
X193076285Y-71687464D02*
X192931142Y-71614893D01*
X192931142Y-71614893D02*
X192858571Y-71542321D01*
X81933143Y-53272464D02*
X81933143Y-51748464D01*
X81933143Y-51748464D02*
X82296000Y-51748464D01*
X82296000Y-51748464D02*
X82513714Y-51821035D01*
X82513714Y-51821035D02*
X82658857Y-51966178D01*
X82658857Y-51966178D02*
X82731428Y-52111321D01*
X82731428Y-52111321D02*
X82804000Y-52401607D01*
X82804000Y-52401607D02*
X82804000Y-52619321D01*
X82804000Y-52619321D02*
X82731428Y-52909607D01*
X82731428Y-52909607D02*
X82658857Y-53054750D01*
X82658857Y-53054750D02*
X82513714Y-53199893D01*
X82513714Y-53199893D02*
X82296000Y-53272464D01*
X82296000Y-53272464D02*
X81933143Y-53272464D01*
X84255428Y-53272464D02*
X83384571Y-53272464D01*
X83820000Y-53272464D02*
X83820000Y-51748464D01*
X83820000Y-51748464D02*
X83674857Y-51966178D01*
X83674857Y-51966178D02*
X83529714Y-52111321D01*
X83529714Y-52111321D02*
X83384571Y-52183893D01*
X208152999Y-71614893D02*
X208370714Y-71687464D01*
X208370714Y-71687464D02*
X208733571Y-71687464D01*
X208733571Y-71687464D02*
X208878714Y-71614893D01*
X208878714Y-71614893D02*
X208951285Y-71542321D01*
X208951285Y-71542321D02*
X209023856Y-71397178D01*
X209023856Y-71397178D02*
X209023856Y-71252035D01*
X209023856Y-71252035D02*
X208951285Y-71106893D01*
X208951285Y-71106893D02*
X208878714Y-71034321D01*
X208878714Y-71034321D02*
X208733571Y-70961750D01*
X208733571Y-70961750D02*
X208443285Y-70889178D01*
X208443285Y-70889178D02*
X208298142Y-70816607D01*
X208298142Y-70816607D02*
X208225571Y-70744035D01*
X208225571Y-70744035D02*
X208152999Y-70598893D01*
X208152999Y-70598893D02*
X208152999Y-70453750D01*
X208152999Y-70453750D02*
X208225571Y-70308607D01*
X208225571Y-70308607D02*
X208298142Y-70236035D01*
X208298142Y-70236035D02*
X208443285Y-70163464D01*
X208443285Y-70163464D02*
X208806142Y-70163464D01*
X208806142Y-70163464D02*
X209023856Y-70236035D01*
X209531857Y-70163464D02*
X209894714Y-71687464D01*
X209894714Y-71687464D02*
X210185000Y-70598893D01*
X210185000Y-70598893D02*
X210475285Y-71687464D01*
X210475285Y-71687464D02*
X210838143Y-70163464D01*
X212071857Y-70671464D02*
X212071857Y-71687464D01*
X211708999Y-70090893D02*
X211346142Y-71179464D01*
X211346142Y-71179464D02*
X212289571Y-71179464D01*
X96066428Y-59241464D02*
X96066428Y-57717464D01*
X96066428Y-57717464D02*
X96429285Y-57717464D01*
X96429285Y-57717464D02*
X96646999Y-57790035D01*
X96646999Y-57790035D02*
X96792142Y-57935178D01*
X96792142Y-57935178D02*
X96864713Y-58080321D01*
X96864713Y-58080321D02*
X96937285Y-58370607D01*
X96937285Y-58370607D02*
X96937285Y-58588321D01*
X96937285Y-58588321D02*
X96864713Y-58878607D01*
X96864713Y-58878607D02*
X96792142Y-59023750D01*
X96792142Y-59023750D02*
X96646999Y-59168893D01*
X96646999Y-59168893D02*
X96429285Y-59241464D01*
X96429285Y-59241464D02*
X96066428Y-59241464D01*
X97517856Y-59168893D02*
X97735571Y-59241464D01*
X97735571Y-59241464D02*
X98098428Y-59241464D01*
X98098428Y-59241464D02*
X98243571Y-59168893D01*
X98243571Y-59168893D02*
X98316142Y-59096321D01*
X98316142Y-59096321D02*
X98388713Y-58951178D01*
X98388713Y-58951178D02*
X98388713Y-58806035D01*
X98388713Y-58806035D02*
X98316142Y-58660893D01*
X98316142Y-58660893D02*
X98243571Y-58588321D01*
X98243571Y-58588321D02*
X98098428Y-58515750D01*
X98098428Y-58515750D02*
X97808142Y-58443178D01*
X97808142Y-58443178D02*
X97662999Y-58370607D01*
X97662999Y-58370607D02*
X97590428Y-58298035D01*
X97590428Y-58298035D02*
X97517856Y-58152893D01*
X97517856Y-58152893D02*
X97517856Y-58007750D01*
X97517856Y-58007750D02*
X97590428Y-57862607D01*
X97590428Y-57862607D02*
X97662999Y-57790035D01*
X97662999Y-57790035D02*
X97808142Y-57717464D01*
X97808142Y-57717464D02*
X98170999Y-57717464D01*
X98170999Y-57717464D02*
X98388713Y-57790035D01*
X99840142Y-59241464D02*
X98969285Y-59241464D01*
X99404714Y-59241464D02*
X99404714Y-57717464D01*
X99404714Y-57717464D02*
X99259571Y-57935178D01*
X99259571Y-57935178D02*
X99114428Y-58080321D01*
X99114428Y-58080321D02*
X98969285Y-58152893D01*
X97046143Y-53272464D02*
X97046143Y-51748464D01*
X97046143Y-51748464D02*
X97409000Y-51748464D01*
X97409000Y-51748464D02*
X97626714Y-51821035D01*
X97626714Y-51821035D02*
X97771857Y-51966178D01*
X97771857Y-51966178D02*
X97844428Y-52111321D01*
X97844428Y-52111321D02*
X97917000Y-52401607D01*
X97917000Y-52401607D02*
X97917000Y-52619321D01*
X97917000Y-52619321D02*
X97844428Y-52909607D01*
X97844428Y-52909607D02*
X97771857Y-53054750D01*
X97771857Y-53054750D02*
X97626714Y-53199893D01*
X97626714Y-53199893D02*
X97409000Y-53272464D01*
X97409000Y-53272464D02*
X97046143Y-53272464D01*
X98497571Y-51893607D02*
X98570143Y-51821035D01*
X98570143Y-51821035D02*
X98715286Y-51748464D01*
X98715286Y-51748464D02*
X99078143Y-51748464D01*
X99078143Y-51748464D02*
X99223286Y-51821035D01*
X99223286Y-51821035D02*
X99295857Y-51893607D01*
X99295857Y-51893607D02*
X99368428Y-52038750D01*
X99368428Y-52038750D02*
X99368428Y-52183893D01*
X99368428Y-52183893D02*
X99295857Y-52401607D01*
X99295857Y-52401607D02*
X98425000Y-53272464D01*
X98425000Y-53272464D02*
X99368428Y-53272464D01*
D11*
%TO.C,SW2*%
X203835000Y-53340000D02*
X217805000Y-53340000D01*
X203835000Y-67310000D02*
X203835000Y-53340000D01*
X217805000Y-53340000D02*
X217805000Y-67310000D01*
X217805000Y-67310000D02*
X203835000Y-67310000D01*
%TO.C,SW5*%
X79860000Y-63230000D02*
X92860000Y-63230000D01*
X79860000Y-75730000D02*
X79860000Y-63230000D01*
X92860000Y-63230000D02*
X92860000Y-75730000D01*
X92860000Y-75730000D02*
X79860000Y-75730000D01*
%TO.C,SW1*%
X184785000Y-53340000D02*
X198755000Y-53340000D01*
X184785000Y-67310000D02*
X184785000Y-53340000D01*
X198755000Y-53340000D02*
X198755000Y-67310000D01*
X198755000Y-67310000D02*
X184785000Y-67310000D01*
%TO.C,SW3*%
X184785000Y-72390000D02*
X198755000Y-72390000D01*
X184785000Y-86360000D02*
X184785000Y-72390000D01*
X198755000Y-72390000D02*
X198755000Y-86360000D01*
X198755000Y-86360000D02*
X184785000Y-86360000D01*
%TO.C,D1*%
X85790000Y-51469000D02*
X85790000Y-51625000D01*
X85790000Y-53785000D02*
X85790000Y-53941000D01*
X85790001Y-51469485D02*
G75*
G02*
X89022334Y-51626392I1559999J-1235515D01*
G01*
X86309040Y-51625001D02*
G75*
G02*
X88391129Y-51625164I1040960J-1079999D01*
G01*
X88391129Y-53784836D02*
G75*
G02*
X86309040Y-53784999I-1041129J1079836D01*
G01*
X89022334Y-53783608D02*
G75*
G02*
X85790001Y-53940515I-1672334J1078608D01*
G01*
%TO.C,SW4*%
X203835000Y-72390000D02*
X217805000Y-72390000D01*
X203835000Y-86360000D02*
X203835000Y-72390000D01*
X217805000Y-72390000D02*
X217805000Y-86360000D01*
X217805000Y-86360000D02*
X203835000Y-86360000D01*
%TO.C,DS1*%
X100195000Y-51217500D02*
X100195000Y-87497500D01*
X100195000Y-87497500D02*
X180475000Y-87497500D01*
X100205000Y-51217500D02*
X100995000Y-51217500D01*
X103335000Y-56857500D02*
X176335000Y-56857500D01*
X103335000Y-81857500D02*
X103335000Y-56857500D01*
X106835000Y-50857500D02*
X109835000Y-50857500D01*
X108035280Y-76356820D02*
X108035280Y-62357500D01*
X108535000Y-61857500D02*
X172035000Y-61857500D01*
X172035660Y-76857500D02*
X108535000Y-76857500D01*
X172535000Y-62357500D02*
X172535000Y-76357500D01*
X176335000Y-56857500D02*
X176335000Y-81857500D01*
X176335000Y-81857500D02*
X103335000Y-81857500D01*
X180475000Y-51217500D02*
X100995000Y-51217500D01*
X180475000Y-87497500D02*
X180475000Y-51217500D01*
X108035280Y-62356340D02*
G75*
G02*
X108535660Y-61855960I500380J0D01*
G01*
X108535660Y-76857200D02*
G75*
G02*
X108035280Y-76356820I0J500380D01*
G01*
X172035000Y-61857500D02*
G75*
G02*
X172535000Y-62357500I0J-500000D01*
G01*
X172536040Y-76356820D02*
G75*
G02*
X172035660Y-76857240I-500440J20D01*
G01*
%TO.C,D2*%
X92780000Y-51469000D02*
X92780000Y-51625000D01*
X92780000Y-53785000D02*
X92780000Y-53941000D01*
X92780001Y-51469485D02*
G75*
G02*
X96012334Y-51626392I1559999J-1235515D01*
G01*
X93299040Y-51625001D02*
G75*
G02*
X95381129Y-51625164I1040960J-1079999D01*
G01*
X95381129Y-53784836D02*
G75*
G02*
X93299040Y-53784999I-1041129J1079836D01*
G01*
X96012334Y-53783608D02*
G75*
G02*
X92780001Y-53940515I-1672334J1078608D01*
G01*
%TD*%
M02*
