%TF.GenerationSoftware,KiCad,Pcbnew,8.0.1-8.0.1-1~ubuntu22.04.1*%
%TF.CreationDate,2024-04-28T12:17:03-04:00*%
%TF.ProjectId,control-panel,636f6e74-726f-46c2-9d70-616e656c2e6b,rev?*%
%TF.SameCoordinates,Original*%
%TF.FileFunction,Legend,Bot*%
%TF.FilePolarity,Positive*%
%FSLAX46Y46*%
G04 Gerber Fmt 4.6, Leading zero omitted, Abs format (unit mm)*
G04 Created by KiCad (PCBNEW 8.0.1-8.0.1-1~ubuntu22.04.1) date 2024-04-28 12:17:03*
%MOMM*%
%LPD*%
G01*
G04 APERTURE LIST*
%ADD10C,0.254000*%
%ADD11C,0.203200*%
%ADD12C,0.120000*%
G04 APERTURE END LIST*
D10*
X220486323Y-67443856D02*
X219851323Y-67443856D01*
X219579180Y-68441713D02*
X220486323Y-68441713D01*
X220486323Y-68441713D02*
X220486323Y-66536713D01*
X220486323Y-66536713D02*
X219579180Y-66536713D01*
X218762752Y-68260284D02*
X218672038Y-68350999D01*
X218672038Y-68350999D02*
X218762752Y-68441713D01*
X218762752Y-68441713D02*
X218853466Y-68350999D01*
X218853466Y-68350999D02*
X218762752Y-68260284D01*
X218762752Y-68260284D02*
X218762752Y-68441713D01*
X216404180Y-68441713D02*
X216404180Y-66536713D01*
X216404180Y-67443856D02*
X215315609Y-67443856D01*
X215315609Y-68441713D02*
X215315609Y-66536713D01*
X213592038Y-68441713D02*
X213592038Y-67443856D01*
X213592038Y-67443856D02*
X213682752Y-67262427D01*
X213682752Y-67262427D02*
X213864180Y-67171713D01*
X213864180Y-67171713D02*
X214227038Y-67171713D01*
X214227038Y-67171713D02*
X214408466Y-67262427D01*
X213592038Y-68350999D02*
X213773466Y-68441713D01*
X213773466Y-68441713D02*
X214227038Y-68441713D01*
X214227038Y-68441713D02*
X214408466Y-68350999D01*
X214408466Y-68350999D02*
X214499180Y-68169570D01*
X214499180Y-68169570D02*
X214499180Y-67988141D01*
X214499180Y-67988141D02*
X214408466Y-67806713D01*
X214408466Y-67806713D02*
X214227038Y-67715999D01*
X214227038Y-67715999D02*
X213773466Y-67715999D01*
X213773466Y-67715999D02*
X213592038Y-67625284D01*
X212866324Y-67171713D02*
X211868467Y-67171713D01*
X211868467Y-67171713D02*
X212866324Y-68441713D01*
X212866324Y-68441713D02*
X211868467Y-68441713D01*
X210417038Y-68350999D02*
X210598466Y-68441713D01*
X210598466Y-68441713D02*
X210961324Y-68441713D01*
X210961324Y-68441713D02*
X211142752Y-68350999D01*
X211142752Y-68350999D02*
X211233466Y-68169570D01*
X211233466Y-68169570D02*
X211233466Y-67443856D01*
X211233466Y-67443856D02*
X211142752Y-67262427D01*
X211142752Y-67262427D02*
X210961324Y-67171713D01*
X210961324Y-67171713D02*
X210598466Y-67171713D01*
X210598466Y-67171713D02*
X210417038Y-67262427D01*
X210417038Y-67262427D02*
X210326324Y-67443856D01*
X210326324Y-67443856D02*
X210326324Y-67625284D01*
X210326324Y-67625284D02*
X211233466Y-67806713D01*
X209509895Y-67171713D02*
X209509895Y-68441713D01*
X209509895Y-67353141D02*
X209419181Y-67262427D01*
X209419181Y-67262427D02*
X209237752Y-67171713D01*
X209237752Y-67171713D02*
X208965609Y-67171713D01*
X208965609Y-67171713D02*
X208784181Y-67262427D01*
X208784181Y-67262427D02*
X208693467Y-67443856D01*
X208693467Y-67443856D02*
X208693467Y-68441713D01*
X219397752Y-71508656D02*
X220032752Y-70601513D01*
X220486323Y-71508656D02*
X220486323Y-69603656D01*
X220486323Y-69603656D02*
X219760609Y-69603656D01*
X219760609Y-69603656D02*
X219579180Y-69694370D01*
X219579180Y-69694370D02*
X219488466Y-69785084D01*
X219488466Y-69785084D02*
X219397752Y-69966513D01*
X219397752Y-69966513D02*
X219397752Y-70238656D01*
X219397752Y-70238656D02*
X219488466Y-70420084D01*
X219488466Y-70420084D02*
X219579180Y-70510799D01*
X219579180Y-70510799D02*
X219760609Y-70601513D01*
X219760609Y-70601513D02*
X220486323Y-70601513D01*
X217855609Y-71417942D02*
X218037037Y-71508656D01*
X218037037Y-71508656D02*
X218399895Y-71508656D01*
X218399895Y-71508656D02*
X218581323Y-71417942D01*
X218581323Y-71417942D02*
X218672037Y-71236513D01*
X218672037Y-71236513D02*
X218672037Y-70510799D01*
X218672037Y-70510799D02*
X218581323Y-70329370D01*
X218581323Y-70329370D02*
X218399895Y-70238656D01*
X218399895Y-70238656D02*
X218037037Y-70238656D01*
X218037037Y-70238656D02*
X217855609Y-70329370D01*
X217855609Y-70329370D02*
X217764895Y-70510799D01*
X217764895Y-70510799D02*
X217764895Y-70692227D01*
X217764895Y-70692227D02*
X218672037Y-70873656D01*
X217129895Y-70238656D02*
X216676323Y-71508656D01*
X216676323Y-71508656D02*
X216222752Y-70238656D01*
X213047751Y-71508656D02*
X214136322Y-71508656D01*
X213592037Y-71508656D02*
X213592037Y-69603656D01*
X213592037Y-69603656D02*
X213773465Y-69875799D01*
X213773465Y-69875799D02*
X213954894Y-70057227D01*
X213954894Y-70057227D02*
X214136322Y-70147942D01*
X212231322Y-71327227D02*
X212140608Y-71417942D01*
X212140608Y-71417942D02*
X212231322Y-71508656D01*
X212231322Y-71508656D02*
X212322036Y-71417942D01*
X212322036Y-71417942D02*
X212231322Y-71327227D01*
X212231322Y-71327227D02*
X212231322Y-71508656D01*
X210961322Y-69603656D02*
X210779893Y-69603656D01*
X210779893Y-69603656D02*
X210598465Y-69694370D01*
X210598465Y-69694370D02*
X210507751Y-69785084D01*
X210507751Y-69785084D02*
X210417036Y-69966513D01*
X210417036Y-69966513D02*
X210326322Y-70329370D01*
X210326322Y-70329370D02*
X210326322Y-70782942D01*
X210326322Y-70782942D02*
X210417036Y-71145799D01*
X210417036Y-71145799D02*
X210507751Y-71327227D01*
X210507751Y-71327227D02*
X210598465Y-71417942D01*
X210598465Y-71417942D02*
X210779893Y-71508656D01*
X210779893Y-71508656D02*
X210961322Y-71508656D01*
X210961322Y-71508656D02*
X211142751Y-71417942D01*
X211142751Y-71417942D02*
X211233465Y-71327227D01*
X211233465Y-71327227D02*
X211324179Y-71145799D01*
X211324179Y-71145799D02*
X211414893Y-70782942D01*
X211414893Y-70782942D02*
X211414893Y-70329370D01*
X211414893Y-70329370D02*
X211324179Y-69966513D01*
X211324179Y-69966513D02*
X211233465Y-69785084D01*
X211233465Y-69785084D02*
X211142751Y-69694370D01*
X211142751Y-69694370D02*
X210961322Y-69603656D01*
X208058464Y-70782942D02*
X206607036Y-70782942D01*
X204339178Y-69785084D02*
X204248464Y-69694370D01*
X204248464Y-69694370D02*
X204067036Y-69603656D01*
X204067036Y-69603656D02*
X203613464Y-69603656D01*
X203613464Y-69603656D02*
X203432036Y-69694370D01*
X203432036Y-69694370D02*
X203341321Y-69785084D01*
X203341321Y-69785084D02*
X203250607Y-69966513D01*
X203250607Y-69966513D02*
X203250607Y-70147942D01*
X203250607Y-70147942D02*
X203341321Y-70420084D01*
X203341321Y-70420084D02*
X204429893Y-71508656D01*
X204429893Y-71508656D02*
X203250607Y-71508656D01*
X202071321Y-69603656D02*
X201889892Y-69603656D01*
X201889892Y-69603656D02*
X201708464Y-69694370D01*
X201708464Y-69694370D02*
X201617750Y-69785084D01*
X201617750Y-69785084D02*
X201527035Y-69966513D01*
X201527035Y-69966513D02*
X201436321Y-70329370D01*
X201436321Y-70329370D02*
X201436321Y-70782942D01*
X201436321Y-70782942D02*
X201527035Y-71145799D01*
X201527035Y-71145799D02*
X201617750Y-71327227D01*
X201617750Y-71327227D02*
X201708464Y-71417942D01*
X201708464Y-71417942D02*
X201889892Y-71508656D01*
X201889892Y-71508656D02*
X202071321Y-71508656D01*
X202071321Y-71508656D02*
X202252750Y-71417942D01*
X202252750Y-71417942D02*
X202343464Y-71327227D01*
X202343464Y-71327227D02*
X202434178Y-71145799D01*
X202434178Y-71145799D02*
X202524892Y-70782942D01*
X202524892Y-70782942D02*
X202524892Y-70329370D01*
X202524892Y-70329370D02*
X202434178Y-69966513D01*
X202434178Y-69966513D02*
X202343464Y-69785084D01*
X202343464Y-69785084D02*
X202252750Y-69694370D01*
X202252750Y-69694370D02*
X202071321Y-69603656D01*
X200710606Y-69785084D02*
X200619892Y-69694370D01*
X200619892Y-69694370D02*
X200438464Y-69603656D01*
X200438464Y-69603656D02*
X199984892Y-69603656D01*
X199984892Y-69603656D02*
X199803464Y-69694370D01*
X199803464Y-69694370D02*
X199712749Y-69785084D01*
X199712749Y-69785084D02*
X199622035Y-69966513D01*
X199622035Y-69966513D02*
X199622035Y-70147942D01*
X199622035Y-70147942D02*
X199712749Y-70420084D01*
X199712749Y-70420084D02*
X200801321Y-71508656D01*
X200801321Y-71508656D02*
X199622035Y-71508656D01*
X197989178Y-70238656D02*
X197989178Y-71508656D01*
X198442749Y-69512942D02*
X198896320Y-70873656D01*
X198896320Y-70873656D02*
X197717035Y-70873656D01*
X196991320Y-70782942D02*
X195539892Y-70782942D01*
X194269892Y-69603656D02*
X194088463Y-69603656D01*
X194088463Y-69603656D02*
X193907035Y-69694370D01*
X193907035Y-69694370D02*
X193816321Y-69785084D01*
X193816321Y-69785084D02*
X193725606Y-69966513D01*
X193725606Y-69966513D02*
X193634892Y-70329370D01*
X193634892Y-70329370D02*
X193634892Y-70782942D01*
X193634892Y-70782942D02*
X193725606Y-71145799D01*
X193725606Y-71145799D02*
X193816321Y-71327227D01*
X193816321Y-71327227D02*
X193907035Y-71417942D01*
X193907035Y-71417942D02*
X194088463Y-71508656D01*
X194088463Y-71508656D02*
X194269892Y-71508656D01*
X194269892Y-71508656D02*
X194451321Y-71417942D01*
X194451321Y-71417942D02*
X194542035Y-71327227D01*
X194542035Y-71327227D02*
X194632749Y-71145799D01*
X194632749Y-71145799D02*
X194723463Y-70782942D01*
X194723463Y-70782942D02*
X194723463Y-70329370D01*
X194723463Y-70329370D02*
X194632749Y-69966513D01*
X194632749Y-69966513D02*
X194542035Y-69785084D01*
X194542035Y-69785084D02*
X194451321Y-69694370D01*
X194451321Y-69694370D02*
X194269892Y-69603656D01*
X191911320Y-69603656D02*
X192818463Y-69603656D01*
X192818463Y-69603656D02*
X192909177Y-70510799D01*
X192909177Y-70510799D02*
X192818463Y-70420084D01*
X192818463Y-70420084D02*
X192637035Y-70329370D01*
X192637035Y-70329370D02*
X192183463Y-70329370D01*
X192183463Y-70329370D02*
X192002035Y-70420084D01*
X192002035Y-70420084D02*
X191911320Y-70510799D01*
X191911320Y-70510799D02*
X191820606Y-70692227D01*
X191820606Y-70692227D02*
X191820606Y-71145799D01*
X191820606Y-71145799D02*
X191911320Y-71327227D01*
X191911320Y-71327227D02*
X192002035Y-71417942D01*
X192002035Y-71417942D02*
X192183463Y-71508656D01*
X192183463Y-71508656D02*
X192637035Y-71508656D01*
X192637035Y-71508656D02*
X192818463Y-71417942D01*
X192818463Y-71417942D02*
X192909177Y-71327227D01*
X219397752Y-65358227D02*
X219488466Y-65448942D01*
X219488466Y-65448942D02*
X219760609Y-65539656D01*
X219760609Y-65539656D02*
X219942037Y-65539656D01*
X219942037Y-65539656D02*
X220214180Y-65448942D01*
X220214180Y-65448942D02*
X220395609Y-65267513D01*
X220395609Y-65267513D02*
X220486323Y-65086084D01*
X220486323Y-65086084D02*
X220577037Y-64723227D01*
X220577037Y-64723227D02*
X220577037Y-64451084D01*
X220577037Y-64451084D02*
X220486323Y-64088227D01*
X220486323Y-64088227D02*
X220395609Y-63906799D01*
X220395609Y-63906799D02*
X220214180Y-63725370D01*
X220214180Y-63725370D02*
X219942037Y-63634656D01*
X219942037Y-63634656D02*
X219760609Y-63634656D01*
X219760609Y-63634656D02*
X219488466Y-63725370D01*
X219488466Y-63725370D02*
X219397752Y-63816084D01*
X218309180Y-65539656D02*
X218490609Y-65448942D01*
X218490609Y-65448942D02*
X218581323Y-65358227D01*
X218581323Y-65358227D02*
X218672037Y-65176799D01*
X218672037Y-65176799D02*
X218672037Y-64632513D01*
X218672037Y-64632513D02*
X218581323Y-64451084D01*
X218581323Y-64451084D02*
X218490609Y-64360370D01*
X218490609Y-64360370D02*
X218309180Y-64269656D01*
X218309180Y-64269656D02*
X218037037Y-64269656D01*
X218037037Y-64269656D02*
X217855609Y-64360370D01*
X217855609Y-64360370D02*
X217764895Y-64451084D01*
X217764895Y-64451084D02*
X217674180Y-64632513D01*
X217674180Y-64632513D02*
X217674180Y-65176799D01*
X217674180Y-65176799D02*
X217764895Y-65358227D01*
X217764895Y-65358227D02*
X217855609Y-65448942D01*
X217855609Y-65448942D02*
X218037037Y-65539656D01*
X218037037Y-65539656D02*
X218309180Y-65539656D01*
X216857752Y-64269656D02*
X216857752Y-65539656D01*
X216857752Y-64451084D02*
X216767038Y-64360370D01*
X216767038Y-64360370D02*
X216585609Y-64269656D01*
X216585609Y-64269656D02*
X216313466Y-64269656D01*
X216313466Y-64269656D02*
X216132038Y-64360370D01*
X216132038Y-64360370D02*
X216041324Y-64541799D01*
X216041324Y-64541799D02*
X216041324Y-65539656D01*
X215406324Y-64269656D02*
X214680610Y-64269656D01*
X215134181Y-63634656D02*
X215134181Y-65267513D01*
X215134181Y-65267513D02*
X215043467Y-65448942D01*
X215043467Y-65448942D02*
X214862038Y-65539656D01*
X214862038Y-65539656D02*
X214680610Y-65539656D01*
X214045610Y-65539656D02*
X214045610Y-64269656D01*
X214045610Y-64632513D02*
X213954896Y-64451084D01*
X213954896Y-64451084D02*
X213864182Y-64360370D01*
X213864182Y-64360370D02*
X213682753Y-64269656D01*
X213682753Y-64269656D02*
X213501324Y-64269656D01*
X212594181Y-65539656D02*
X212775610Y-65448942D01*
X212775610Y-65448942D02*
X212866324Y-65358227D01*
X212866324Y-65358227D02*
X212957038Y-65176799D01*
X212957038Y-65176799D02*
X212957038Y-64632513D01*
X212957038Y-64632513D02*
X212866324Y-64451084D01*
X212866324Y-64451084D02*
X212775610Y-64360370D01*
X212775610Y-64360370D02*
X212594181Y-64269656D01*
X212594181Y-64269656D02*
X212322038Y-64269656D01*
X212322038Y-64269656D02*
X212140610Y-64360370D01*
X212140610Y-64360370D02*
X212049896Y-64451084D01*
X212049896Y-64451084D02*
X211959181Y-64632513D01*
X211959181Y-64632513D02*
X211959181Y-65176799D01*
X211959181Y-65176799D02*
X212049896Y-65358227D01*
X212049896Y-65358227D02*
X212140610Y-65448942D01*
X212140610Y-65448942D02*
X212322038Y-65539656D01*
X212322038Y-65539656D02*
X212594181Y-65539656D01*
X210870610Y-65539656D02*
X211052039Y-65448942D01*
X211052039Y-65448942D02*
X211142753Y-65267513D01*
X211142753Y-65267513D02*
X211142753Y-63634656D01*
X208693467Y-65539656D02*
X208693467Y-63634656D01*
X208693467Y-63634656D02*
X207967753Y-63634656D01*
X207967753Y-63634656D02*
X207786324Y-63725370D01*
X207786324Y-63725370D02*
X207695610Y-63816084D01*
X207695610Y-63816084D02*
X207604896Y-63997513D01*
X207604896Y-63997513D02*
X207604896Y-64269656D01*
X207604896Y-64269656D02*
X207695610Y-64451084D01*
X207695610Y-64451084D02*
X207786324Y-64541799D01*
X207786324Y-64541799D02*
X207967753Y-64632513D01*
X207967753Y-64632513D02*
X208693467Y-64632513D01*
X205972039Y-65539656D02*
X205972039Y-64541799D01*
X205972039Y-64541799D02*
X206062753Y-64360370D01*
X206062753Y-64360370D02*
X206244181Y-64269656D01*
X206244181Y-64269656D02*
X206607039Y-64269656D01*
X206607039Y-64269656D02*
X206788467Y-64360370D01*
X205972039Y-65448942D02*
X206153467Y-65539656D01*
X206153467Y-65539656D02*
X206607039Y-65539656D01*
X206607039Y-65539656D02*
X206788467Y-65448942D01*
X206788467Y-65448942D02*
X206879181Y-65267513D01*
X206879181Y-65267513D02*
X206879181Y-65086084D01*
X206879181Y-65086084D02*
X206788467Y-64904656D01*
X206788467Y-64904656D02*
X206607039Y-64813942D01*
X206607039Y-64813942D02*
X206153467Y-64813942D01*
X206153467Y-64813942D02*
X205972039Y-64723227D01*
X205064896Y-64269656D02*
X205064896Y-65539656D01*
X205064896Y-64451084D02*
X204974182Y-64360370D01*
X204974182Y-64360370D02*
X204792753Y-64269656D01*
X204792753Y-64269656D02*
X204520610Y-64269656D01*
X204520610Y-64269656D02*
X204339182Y-64360370D01*
X204339182Y-64360370D02*
X204248468Y-64541799D01*
X204248468Y-64541799D02*
X204248468Y-65539656D01*
X202615611Y-65448942D02*
X202797039Y-65539656D01*
X202797039Y-65539656D02*
X203159897Y-65539656D01*
X203159897Y-65539656D02*
X203341325Y-65448942D01*
X203341325Y-65448942D02*
X203432039Y-65267513D01*
X203432039Y-65267513D02*
X203432039Y-64541799D01*
X203432039Y-64541799D02*
X203341325Y-64360370D01*
X203341325Y-64360370D02*
X203159897Y-64269656D01*
X203159897Y-64269656D02*
X202797039Y-64269656D01*
X202797039Y-64269656D02*
X202615611Y-64360370D01*
X202615611Y-64360370D02*
X202524897Y-64541799D01*
X202524897Y-64541799D02*
X202524897Y-64723227D01*
X202524897Y-64723227D02*
X203432039Y-64904656D01*
X201436325Y-65539656D02*
X201617754Y-65448942D01*
X201617754Y-65448942D02*
X201708468Y-65267513D01*
X201708468Y-65267513D02*
X201708468Y-63634656D01*
X199259182Y-65539656D02*
X199259182Y-63634656D01*
X199259182Y-63634656D02*
X198533468Y-63634656D01*
X198533468Y-63634656D02*
X198352039Y-63725370D01*
X198352039Y-63725370D02*
X198261325Y-63816084D01*
X198261325Y-63816084D02*
X198170611Y-63997513D01*
X198170611Y-63997513D02*
X198170611Y-64269656D01*
X198170611Y-64269656D02*
X198261325Y-64451084D01*
X198261325Y-64451084D02*
X198352039Y-64541799D01*
X198352039Y-64541799D02*
X198533468Y-64632513D01*
X198533468Y-64632513D02*
X199259182Y-64632513D01*
X196265611Y-65358227D02*
X196356325Y-65448942D01*
X196356325Y-65448942D02*
X196628468Y-65539656D01*
X196628468Y-65539656D02*
X196809896Y-65539656D01*
X196809896Y-65539656D02*
X197082039Y-65448942D01*
X197082039Y-65448942D02*
X197263468Y-65267513D01*
X197263468Y-65267513D02*
X197354182Y-65086084D01*
X197354182Y-65086084D02*
X197444896Y-64723227D01*
X197444896Y-64723227D02*
X197444896Y-64451084D01*
X197444896Y-64451084D02*
X197354182Y-64088227D01*
X197354182Y-64088227D02*
X197263468Y-63906799D01*
X197263468Y-63906799D02*
X197082039Y-63725370D01*
X197082039Y-63725370D02*
X196809896Y-63634656D01*
X196809896Y-63634656D02*
X196628468Y-63634656D01*
X196628468Y-63634656D02*
X196356325Y-63725370D01*
X196356325Y-63725370D02*
X196265611Y-63816084D01*
X194814182Y-64541799D02*
X194542039Y-64632513D01*
X194542039Y-64632513D02*
X194451325Y-64723227D01*
X194451325Y-64723227D02*
X194360611Y-64904656D01*
X194360611Y-64904656D02*
X194360611Y-65176799D01*
X194360611Y-65176799D02*
X194451325Y-65358227D01*
X194451325Y-65358227D02*
X194542039Y-65448942D01*
X194542039Y-65448942D02*
X194723468Y-65539656D01*
X194723468Y-65539656D02*
X195449182Y-65539656D01*
X195449182Y-65539656D02*
X195449182Y-63634656D01*
X195449182Y-63634656D02*
X194814182Y-63634656D01*
X194814182Y-63634656D02*
X194632754Y-63725370D01*
X194632754Y-63725370D02*
X194542039Y-63816084D01*
X194542039Y-63816084D02*
X194451325Y-63997513D01*
X194451325Y-63997513D02*
X194451325Y-64178942D01*
X194451325Y-64178942D02*
X194542039Y-64360370D01*
X194542039Y-64360370D02*
X194632754Y-64451084D01*
X194632754Y-64451084D02*
X194814182Y-64541799D01*
X194814182Y-64541799D02*
X195449182Y-64541799D01*
X191094896Y-65539656D02*
X192183467Y-65539656D01*
X191639182Y-65539656D02*
X191639182Y-63634656D01*
X191639182Y-63634656D02*
X191820610Y-63906799D01*
X191820610Y-63906799D02*
X192002039Y-64088227D01*
X192002039Y-64088227D02*
X192183467Y-64178942D01*
X190278467Y-65358227D02*
X190187753Y-65448942D01*
X190187753Y-65448942D02*
X190278467Y-65539656D01*
X190278467Y-65539656D02*
X190369181Y-65448942D01*
X190369181Y-65448942D02*
X190278467Y-65358227D01*
X190278467Y-65358227D02*
X190278467Y-65539656D01*
X189008467Y-63634656D02*
X188827038Y-63634656D01*
X188827038Y-63634656D02*
X188645610Y-63725370D01*
X188645610Y-63725370D02*
X188554896Y-63816084D01*
X188554896Y-63816084D02*
X188464181Y-63997513D01*
X188464181Y-63997513D02*
X188373467Y-64360370D01*
X188373467Y-64360370D02*
X188373467Y-64813942D01*
X188373467Y-64813942D02*
X188464181Y-65176799D01*
X188464181Y-65176799D02*
X188554896Y-65358227D01*
X188554896Y-65358227D02*
X188645610Y-65448942D01*
X188645610Y-65448942D02*
X188827038Y-65539656D01*
X188827038Y-65539656D02*
X189008467Y-65539656D01*
X189008467Y-65539656D02*
X189189896Y-65448942D01*
X189189896Y-65448942D02*
X189280610Y-65358227D01*
X189280610Y-65358227D02*
X189371324Y-65176799D01*
X189371324Y-65176799D02*
X189462038Y-64813942D01*
X189462038Y-64813942D02*
X189462038Y-64360370D01*
X189462038Y-64360370D02*
X189371324Y-63997513D01*
X189371324Y-63997513D02*
X189280610Y-63816084D01*
X189280610Y-63816084D02*
X189189896Y-63725370D01*
X189189896Y-63725370D02*
X189008467Y-63634656D01*
D11*
X126002142Y-60765464D02*
X126510142Y-60039750D01*
X126872999Y-60765464D02*
X126872999Y-59241464D01*
X126872999Y-59241464D02*
X126292428Y-59241464D01*
X126292428Y-59241464D02*
X126147285Y-59314035D01*
X126147285Y-59314035D02*
X126074714Y-59386607D01*
X126074714Y-59386607D02*
X126002142Y-59531750D01*
X126002142Y-59531750D02*
X126002142Y-59749464D01*
X126002142Y-59749464D02*
X126074714Y-59894607D01*
X126074714Y-59894607D02*
X126147285Y-59967178D01*
X126147285Y-59967178D02*
X126292428Y-60039750D01*
X126292428Y-60039750D02*
X126872999Y-60039750D01*
X125566714Y-59241464D02*
X125058714Y-60765464D01*
X125058714Y-60765464D02*
X124550714Y-59241464D01*
X123244428Y-60765464D02*
X124115285Y-60765464D01*
X123679856Y-60765464D02*
X123679856Y-59241464D01*
X123679856Y-59241464D02*
X123824999Y-59459178D01*
X123824999Y-59459178D02*
X123970142Y-59604321D01*
X123970142Y-59604321D02*
X124115285Y-59676893D01*
X108711999Y-61781464D02*
X109219999Y-61055750D01*
X109582856Y-61781464D02*
X109582856Y-60257464D01*
X109582856Y-60257464D02*
X109002285Y-60257464D01*
X109002285Y-60257464D02*
X108857142Y-60330035D01*
X108857142Y-60330035D02*
X108784571Y-60402607D01*
X108784571Y-60402607D02*
X108711999Y-60547750D01*
X108711999Y-60547750D02*
X108711999Y-60765464D01*
X108711999Y-60765464D02*
X108784571Y-60910607D01*
X108784571Y-60910607D02*
X108857142Y-60983178D01*
X108857142Y-60983178D02*
X109002285Y-61055750D01*
X109002285Y-61055750D02*
X109582856Y-61055750D01*
X107260571Y-61781464D02*
X108131428Y-61781464D01*
X107695999Y-61781464D02*
X107695999Y-60257464D01*
X107695999Y-60257464D02*
X107841142Y-60475178D01*
X107841142Y-60475178D02*
X107986285Y-60620321D01*
X107986285Y-60620321D02*
X108131428Y-60692893D01*
X156464000Y-85657464D02*
X156464000Y-86746035D01*
X156464000Y-86746035D02*
X156536571Y-86963750D01*
X156536571Y-86963750D02*
X156681714Y-87108893D01*
X156681714Y-87108893D02*
X156899428Y-87181464D01*
X156899428Y-87181464D02*
X157044571Y-87181464D01*
X155810857Y-85802607D02*
X155738285Y-85730035D01*
X155738285Y-85730035D02*
X155593143Y-85657464D01*
X155593143Y-85657464D02*
X155230285Y-85657464D01*
X155230285Y-85657464D02*
X155085143Y-85730035D01*
X155085143Y-85730035D02*
X155012571Y-85802607D01*
X155012571Y-85802607D02*
X154940000Y-85947750D01*
X154940000Y-85947750D02*
X154940000Y-86092893D01*
X154940000Y-86092893D02*
X155012571Y-86310607D01*
X155012571Y-86310607D02*
X155883428Y-87181464D01*
X155883428Y-87181464D02*
X154940000Y-87181464D01*
X94487999Y-56066464D02*
X94995999Y-55340750D01*
X95358856Y-56066464D02*
X95358856Y-54542464D01*
X95358856Y-54542464D02*
X94778285Y-54542464D01*
X94778285Y-54542464D02*
X94633142Y-54615035D01*
X94633142Y-54615035D02*
X94560571Y-54687607D01*
X94560571Y-54687607D02*
X94487999Y-54832750D01*
X94487999Y-54832750D02*
X94487999Y-55050464D01*
X94487999Y-55050464D02*
X94560571Y-55195607D01*
X94560571Y-55195607D02*
X94633142Y-55268178D01*
X94633142Y-55268178D02*
X94778285Y-55340750D01*
X94778285Y-55340750D02*
X95358856Y-55340750D01*
X93181714Y-55050464D02*
X93181714Y-56066464D01*
X93544571Y-54469893D02*
X93907428Y-55558464D01*
X93907428Y-55558464D02*
X92963999Y-55558464D01*
X87629999Y-56066464D02*
X88137999Y-55340750D01*
X88500856Y-56066464D02*
X88500856Y-54542464D01*
X88500856Y-54542464D02*
X87920285Y-54542464D01*
X87920285Y-54542464D02*
X87775142Y-54615035D01*
X87775142Y-54615035D02*
X87702571Y-54687607D01*
X87702571Y-54687607D02*
X87629999Y-54832750D01*
X87629999Y-54832750D02*
X87629999Y-55050464D01*
X87629999Y-55050464D02*
X87702571Y-55195607D01*
X87702571Y-55195607D02*
X87775142Y-55268178D01*
X87775142Y-55268178D02*
X87920285Y-55340750D01*
X87920285Y-55340750D02*
X88500856Y-55340750D01*
X87121999Y-54542464D02*
X86178571Y-54542464D01*
X86178571Y-54542464D02*
X86686571Y-55123035D01*
X86686571Y-55123035D02*
X86468856Y-55123035D01*
X86468856Y-55123035D02*
X86323714Y-55195607D01*
X86323714Y-55195607D02*
X86251142Y-55268178D01*
X86251142Y-55268178D02*
X86178571Y-55413321D01*
X86178571Y-55413321D02*
X86178571Y-55776178D01*
X86178571Y-55776178D02*
X86251142Y-55921321D01*
X86251142Y-55921321D02*
X86323714Y-55993893D01*
X86323714Y-55993893D02*
X86468856Y-56066464D01*
X86468856Y-56066464D02*
X86904285Y-56066464D01*
X86904285Y-56066464D02*
X87049428Y-55993893D01*
X87049428Y-55993893D02*
X87121999Y-55921321D01*
X115443000Y-70163464D02*
X115443000Y-71252035D01*
X115443000Y-71252035D02*
X115515571Y-71469750D01*
X115515571Y-71469750D02*
X115660714Y-71614893D01*
X115660714Y-71614893D02*
X115878428Y-71687464D01*
X115878428Y-71687464D02*
X116023571Y-71687464D01*
X113919000Y-71687464D02*
X114789857Y-71687464D01*
X114354428Y-71687464D02*
X114354428Y-70163464D01*
X114354428Y-70163464D02*
X114499571Y-70381178D01*
X114499571Y-70381178D02*
X114644714Y-70526321D01*
X114644714Y-70526321D02*
X114789857Y-70598893D01*
X159130999Y-57336464D02*
X159638999Y-56610750D01*
X160001856Y-57336464D02*
X160001856Y-55812464D01*
X160001856Y-55812464D02*
X159421285Y-55812464D01*
X159421285Y-55812464D02*
X159276142Y-55885035D01*
X159276142Y-55885035D02*
X159203571Y-55957607D01*
X159203571Y-55957607D02*
X159130999Y-56102750D01*
X159130999Y-56102750D02*
X159130999Y-56320464D01*
X159130999Y-56320464D02*
X159203571Y-56465607D01*
X159203571Y-56465607D02*
X159276142Y-56538178D01*
X159276142Y-56538178D02*
X159421285Y-56610750D01*
X159421285Y-56610750D02*
X160001856Y-56610750D01*
X157824714Y-55812464D02*
X158114999Y-55812464D01*
X158114999Y-55812464D02*
X158260142Y-55885035D01*
X158260142Y-55885035D02*
X158332714Y-55957607D01*
X158332714Y-55957607D02*
X158477856Y-56175321D01*
X158477856Y-56175321D02*
X158550428Y-56465607D01*
X158550428Y-56465607D02*
X158550428Y-57046178D01*
X158550428Y-57046178D02*
X158477856Y-57191321D01*
X158477856Y-57191321D02*
X158405285Y-57263893D01*
X158405285Y-57263893D02*
X158260142Y-57336464D01*
X158260142Y-57336464D02*
X157969856Y-57336464D01*
X157969856Y-57336464D02*
X157824714Y-57263893D01*
X157824714Y-57263893D02*
X157752142Y-57191321D01*
X157752142Y-57191321D02*
X157679571Y-57046178D01*
X157679571Y-57046178D02*
X157679571Y-56683321D01*
X157679571Y-56683321D02*
X157752142Y-56538178D01*
X157752142Y-56538178D02*
X157824714Y-56465607D01*
X157824714Y-56465607D02*
X157969856Y-56393035D01*
X157969856Y-56393035D02*
X158260142Y-56393035D01*
X158260142Y-56393035D02*
X158405285Y-56465607D01*
X158405285Y-56465607D02*
X158477856Y-56538178D01*
X158477856Y-56538178D02*
X158550428Y-56683321D01*
X141223999Y-77439321D02*
X141296571Y-77511893D01*
X141296571Y-77511893D02*
X141514285Y-77584464D01*
X141514285Y-77584464D02*
X141659428Y-77584464D01*
X141659428Y-77584464D02*
X141877142Y-77511893D01*
X141877142Y-77511893D02*
X142022285Y-77366750D01*
X142022285Y-77366750D02*
X142094856Y-77221607D01*
X142094856Y-77221607D02*
X142167428Y-76931321D01*
X142167428Y-76931321D02*
X142167428Y-76713607D01*
X142167428Y-76713607D02*
X142094856Y-76423321D01*
X142094856Y-76423321D02*
X142022285Y-76278178D01*
X142022285Y-76278178D02*
X141877142Y-76133035D01*
X141877142Y-76133035D02*
X141659428Y-76060464D01*
X141659428Y-76060464D02*
X141514285Y-76060464D01*
X141514285Y-76060464D02*
X141296571Y-76133035D01*
X141296571Y-76133035D02*
X141223999Y-76205607D01*
X139772571Y-77584464D02*
X140643428Y-77584464D01*
X140207999Y-77584464D02*
X140207999Y-76060464D01*
X140207999Y-76060464D02*
X140353142Y-76278178D01*
X140353142Y-76278178D02*
X140498285Y-76423321D01*
X140498285Y-76423321D02*
X140643428Y-76495893D01*
X155320999Y-57463464D02*
X155828999Y-56737750D01*
X156191856Y-57463464D02*
X156191856Y-55939464D01*
X156191856Y-55939464D02*
X155611285Y-55939464D01*
X155611285Y-55939464D02*
X155466142Y-56012035D01*
X155466142Y-56012035D02*
X155393571Y-56084607D01*
X155393571Y-56084607D02*
X155320999Y-56229750D01*
X155320999Y-56229750D02*
X155320999Y-56447464D01*
X155320999Y-56447464D02*
X155393571Y-56592607D01*
X155393571Y-56592607D02*
X155466142Y-56665178D01*
X155466142Y-56665178D02*
X155611285Y-56737750D01*
X155611285Y-56737750D02*
X156191856Y-56737750D01*
X153942142Y-55939464D02*
X154667856Y-55939464D01*
X154667856Y-55939464D02*
X154740428Y-56665178D01*
X154740428Y-56665178D02*
X154667856Y-56592607D01*
X154667856Y-56592607D02*
X154522714Y-56520035D01*
X154522714Y-56520035D02*
X154159856Y-56520035D01*
X154159856Y-56520035D02*
X154014714Y-56592607D01*
X154014714Y-56592607D02*
X153942142Y-56665178D01*
X153942142Y-56665178D02*
X153869571Y-56810321D01*
X153869571Y-56810321D02*
X153869571Y-57173178D01*
X153869571Y-57173178D02*
X153942142Y-57318321D01*
X153942142Y-57318321D02*
X154014714Y-57390893D01*
X154014714Y-57390893D02*
X154159856Y-57463464D01*
X154159856Y-57463464D02*
X154522714Y-57463464D01*
X154522714Y-57463464D02*
X154667856Y-57390893D01*
X154667856Y-57390893D02*
X154740428Y-57318321D01*
X142493999Y-57336464D02*
X143001999Y-56610750D01*
X143364856Y-57336464D02*
X143364856Y-55812464D01*
X143364856Y-55812464D02*
X142784285Y-55812464D01*
X142784285Y-55812464D02*
X142639142Y-55885035D01*
X142639142Y-55885035D02*
X142566571Y-55957607D01*
X142566571Y-55957607D02*
X142493999Y-56102750D01*
X142493999Y-56102750D02*
X142493999Y-56320464D01*
X142493999Y-56320464D02*
X142566571Y-56465607D01*
X142566571Y-56465607D02*
X142639142Y-56538178D01*
X142639142Y-56538178D02*
X142784285Y-56610750D01*
X142784285Y-56610750D02*
X143364856Y-56610750D01*
X141913428Y-55957607D02*
X141840856Y-55885035D01*
X141840856Y-55885035D02*
X141695714Y-55812464D01*
X141695714Y-55812464D02*
X141332856Y-55812464D01*
X141332856Y-55812464D02*
X141187714Y-55885035D01*
X141187714Y-55885035D02*
X141115142Y-55957607D01*
X141115142Y-55957607D02*
X141042571Y-56102750D01*
X141042571Y-56102750D02*
X141042571Y-56247893D01*
X141042571Y-56247893D02*
X141115142Y-56465607D01*
X141115142Y-56465607D02*
X141985999Y-57336464D01*
X141985999Y-57336464D02*
X141042571Y-57336464D01*
X162197142Y-67369464D02*
X162197142Y-68603178D01*
X162197142Y-68603178D02*
X162124571Y-68748321D01*
X162124571Y-68748321D02*
X162052000Y-68820893D01*
X162052000Y-68820893D02*
X161906857Y-68893464D01*
X161906857Y-68893464D02*
X161616571Y-68893464D01*
X161616571Y-68893464D02*
X161471428Y-68820893D01*
X161471428Y-68820893D02*
X161398857Y-68748321D01*
X161398857Y-68748321D02*
X161326285Y-68603178D01*
X161326285Y-68603178D02*
X161326285Y-67369464D01*
X160745714Y-67369464D02*
X159802286Y-67369464D01*
X159802286Y-67369464D02*
X160310286Y-67950035D01*
X160310286Y-67950035D02*
X160092571Y-67950035D01*
X160092571Y-67950035D02*
X159947429Y-68022607D01*
X159947429Y-68022607D02*
X159874857Y-68095178D01*
X159874857Y-68095178D02*
X159802286Y-68240321D01*
X159802286Y-68240321D02*
X159802286Y-68603178D01*
X159802286Y-68603178D02*
X159874857Y-68748321D01*
X159874857Y-68748321D02*
X159947429Y-68820893D01*
X159947429Y-68820893D02*
X160092571Y-68893464D01*
X160092571Y-68893464D02*
X160528000Y-68893464D01*
X160528000Y-68893464D02*
X160673143Y-68820893D01*
X160673143Y-68820893D02*
X160745714Y-68748321D01*
D12*
%TO.C,RV1*%
X115270000Y-57915000D02*
X122220000Y-57915000D01*
X115270000Y-58560000D02*
X115270000Y-57915000D01*
X115270000Y-62655000D02*
X115270000Y-59550000D01*
X115270000Y-62655000D02*
X122220000Y-62655000D01*
X122220000Y-58560000D02*
X122220000Y-57915000D01*
X122220000Y-62655000D02*
X122220000Y-59550000D01*
%TO.C,R1*%
X107577936Y-62590000D02*
X109032064Y-62590000D01*
X107577936Y-64410000D02*
X109032064Y-64410000D01*
%TO.C,J2*%
X137735000Y-85030000D02*
X137735000Y-87690000D01*
X137735000Y-85030000D02*
X150495000Y-85030000D01*
X137735000Y-87690000D02*
X150495000Y-87690000D01*
X150495000Y-85030000D02*
X150495000Y-87690000D01*
X153095000Y-86360000D02*
X153095000Y-87690000D01*
X153095000Y-87690000D02*
X151765000Y-87690000D01*
%TO.C,R4*%
X95062064Y-56875000D02*
X93607936Y-56875000D01*
X95062064Y-58695000D02*
X93607936Y-58695000D01*
%TO.C,R3*%
X88077064Y-56875000D02*
X86622936Y-56875000D01*
X88077064Y-58695000D02*
X86622936Y-58695000D01*
%TO.C,J1*%
X104715000Y-66615000D02*
X104715000Y-71815000D01*
X104715000Y-66615000D02*
X112455000Y-66615000D01*
X104715000Y-71815000D02*
X109855000Y-71815000D01*
X109855000Y-69215000D02*
X109855000Y-71815000D01*
X112455000Y-66615000D02*
X112455000Y-69215000D01*
X112455000Y-69215000D02*
X109855000Y-69215000D01*
X112455000Y-70485000D02*
X112455000Y-71815000D01*
X112455000Y-71815000D02*
X111125000Y-71815000D01*
%TO.C,R6*%
X157840000Y-61052064D02*
X157840000Y-59597936D01*
X159660000Y-61052064D02*
X159660000Y-59597936D01*
%TO.C,C1*%
X140258748Y-77830000D02*
X141681252Y-77830000D01*
X140258748Y-79650000D02*
X141681252Y-79650000D01*
%TO.C,R5*%
X154030000Y-61052064D02*
X154030000Y-59597936D01*
X155850000Y-61052064D02*
X155850000Y-59597936D01*
%TO.C,R2*%
X141330000Y-61052064D02*
X141330000Y-59597936D01*
X143150000Y-61052064D02*
X143150000Y-59597936D01*
%TO.C,U3*%
X123130000Y-67200000D02*
X123130000Y-72500000D01*
X123130000Y-72500000D02*
X158810000Y-72500000D01*
X158810000Y-67200000D02*
X123130000Y-67200000D01*
X158810000Y-68850000D02*
X158810000Y-67200000D01*
X158810000Y-72500000D02*
X158810000Y-70850000D01*
X158810000Y-70850000D02*
G75*
G02*
X158810000Y-68850000I0J1000000D01*
G01*
%TD*%
M02*
